<?xml version="1.0" encoding="utf-8"?>
<!-- Generator: Adobe Illustrator 25.0.0, SVG Export Plug-In . SVG Version: 6.00 Build 0)  -->
<svg version="1.1" id="Layer_1" xmlns="http://www.w3.org/2000/svg" xmlns:xlink="http://www.w3.org/1999/xlink" x="0px" y="0px"
	 viewBox="0 0 200 200" style="enable-background:new 0 0 200 200;" xml:space="preserve">
<style type="text/css">
	.st0{fill:#FBEF9C;}
	.st1{fill:#FFFFFF;}
</style>
<g>
	<g>
		<polygon class="st0" points="155.7,166.2 171.9,53 61.9,84.2 92.2,110.7 39.5,171.1 72.6,200 125.3,139.7 		"/>
	</g>
	<g>
		<polygon class="st1" points="137.8,125.2 154,12 44,43.3 74.3,69.8 21.6,130.1 54.8,159 107.5,98.7 		"/>
		<path d="M55.1,163.3l-37.7-32.9l52.7-60.3L37.8,41.9l119.8-34L140,131.2L107.8,103L55.1,163.3z M25.9,129.8l28.6,25l52.7-60.3
			l28.4,24.8l14.8-103.1L50.2,44.7l28.4,24.8L25.9,129.8z"/>
	</g>
</g>
</svg>
