<?xml version="1.0" encoding="utf-8"?>
<!-- Generator: Adobe Illustrator 25.0.0, SVG Export Plug-In . SVG Version: 6.00 Build 0)  -->
<svg version="1.1" xmlns="http://www.w3.org/2000/svg" xmlns:xlink="http://www.w3.org/1999/xlink" x="0px" y="0px"
	 viewBox="0 0 561.5 695.8" style="enable-background:new 0 0 561.5 695.8;" xml:space="preserve">
<style type="text/css">
	.st0{fill:#FFFFFF;}
	.st1{fill:#FCF09D;}
	.st2{fill:none;}
	.st3{fill:#A3A3A3;}
	.st4{fill:#A3A3A3;stroke:#000000;stroke-width:0;stroke-linecap:round;stroke-linejoin:round;}
	.st5{fill:#A3A3A3;stroke:#FFFFFF;stroke-width:0;stroke-linecap:round;stroke-linejoin:round;}
	.st6{fill:none;stroke:#000000;stroke-width:0;stroke-linecap:round;stroke-linejoin:round;}
	.st7{fill:#FFFFFF;stroke:#FFFFFF;stroke-width:0;stroke-linecap:round;stroke-linejoin:round;}
	.st8{fill:none;stroke:#FFFFFF;stroke-width:0;stroke-linecap:round;stroke-linejoin:round;}
	.st9{fill:#FFFFFF;stroke:#000000;stroke-width:3;stroke-miterlimit:10;}
	.st10{fill:none;stroke:#000000;stroke-width:2.6792;stroke-miterlimit:10;}
	.st11{fill:none;stroke:#000000;stroke-miterlimit:10;}
</style>
<g id="Layer_2">
</g>
<g id="layer">
	<path class="st0" d="M440.1,523.8v-153c0-10.2-8.3-18.6-18.6-18.6H180.5c-10.2,0-18.6,8.3-18.6,18.6v153V547
		c0,10.2,8.3,18.6,18.6,18.6h92.6c-1.1,18.5-8.8,27.8-23,27.8h-9.3c-7.7,0-13.9,6.2-13.9,13.9c0,7.7,6.2,13.9,13.9,13.9h120.6
		c7.7,0,13.9-6.2,13.9-13.9c0-7.7-6.2-13.9-13.9-13.9H352c-14.2,0-22-9.4-23-27.8h92.6c10.2,0,18.6-8.3,18.6-18.6L440.1,523.8
		C440.1,523.8,440.1,523.8,440.1,523.8z"/>
	<g>
		<g>
			<path d="M421.6,352.3H180.5c-10.2,0-18.6,8.3-18.6,18.6v153c0,2.6,2.1,4.6,4.6,4.6h268.9c2.6,0,4.6-2.1,4.6-4.6v-153
				C440.1,360.6,431.8,352.3,421.6,352.3z M430.8,519.2H171.2V370.8c0-5.1,4.2-9.3,9.3-9.3h241.1c5.1,0,9.3,4.2,9.3,9.3V519.2z"/>
		</g>
	</g>
	<rect x="186.4" y="380.1" class="st1" width="230.6" height="148.4"/>
	<g>
		<path class="st0" d="M327.6,435.1c0.3,1.4,0,2.7-1.4,2.9l-2.2,0.5v33.2c-2,1.1-3.8,1.7-5.3,1.7c-2.4,0-3-0.8-4.8-3L299,447.1v22.5
			l4.7,1.1c0,0,0,2.7-3.8,2.7l-10.4,0.6c-0.3-0.6,0-2.1,1.1-2.4l2.7-0.8V441l-3.8-0.3c-0.3-1.4,0.5-3.3,2.6-3.5l11.2-0.8l15.4,23.5
			v-20.8l-3.9-0.5c-0.3-1.7,0.9-2.9,2.4-3L327.6,435.1z M270.5,412.5l43-3.2c5.3-0.5,6.6-0.2,10,2.2l13.7,9.6c2.3,1.7,3,2.1,3,3.9
			v52.9c0,3.3-1.2,5.3-5.4,5.6l-50,3c-3.2,0.2-4.7-0.3-6.4-2.4l-10.1-13.1c-1.8-2.4-2.6-4.2-2.6-6.3v-47.1
			C265.8,415.1,267,412.8,270.5,412.5z"/>
		<path d="M274.4,419.5c2.6,2.1,3.6,2,8.6,1.7l47-2.8c1,0,0.2-1-0.2-1.2l-7.8-5.7c-1.5-1.2-3.5-2.5-7.3-2.2l-45.5,3.3
			c-1.7,0.2-2,1-1.3,1.7L274.4,419.5z M277.3,430.5v49.5c0,2.6,1.3,3.6,4.3,3.5l51.7-3c3-0.2,3.3-2,3.3-4.2v-49.1
			c0-2.1-0.8-3.3-2.6-3.1l-54,3.1C277.9,427.3,277.3,428.3,277.3,430.5z M328.3,433.2c0.3,1.5,0,3-1.5,3.1l-2.5,0.5v36.5
			c-2.2,1.2-4.2,1.8-5.8,1.8c-2.6,0-3.3-0.8-5.3-3.3l-16.3-25.6V471l5.2,1.2c0,0,0,3-4.2,3l-11.4,0.7c-0.3-0.7,0-2.3,1.2-2.6l3-0.8
			v-32.7l-4.2-0.3c-0.3-1.5,0.5-3.6,2.8-3.8l12.3-0.8l16.9,25.9v-22.9l-4.3-0.5c-0.3-1.8,1-3.1,2.6-3.3L328.3,433.2z M265.5,408.3
			l47.4-3.5c5.8-0.5,7.3-0.2,11,2.5l15.1,10.6c2.5,1.8,3.3,2.3,3.3,4.3v58.3c0,3.6-1.3,5.8-6,6.2l-55,3.3c-3.5,0.2-5.2-0.3-7-2.6
			l-11.2-14.5c-2-2.6-2.8-4.7-2.8-7V414C260.3,411.1,261.7,408.6,265.5,408.3z"/>
	</g>
	<g>
		<g>
			<path d="M435.5,519.2H166.6c-2.6,0-4.6,2.1-4.6,4.6V547c0,10.2,8.3,18.6,18.6,18.6h241.1c10.2,0,18.6-8.3,18.6-18.6v-23.2
				C440.1,521.3,438,519.2,435.5,519.2z M430.8,547c0,5.1-4.2,9.3-9.3,9.3H180.5c-5.1,0-9.3-4.2-9.3-9.3v-18.5h259.6L430.8,547
				L430.8,547z"/>
		</g>
	</g>
	<g>
		<g>
			<path d="M314.9,537.7h-27.8c-2.6,0-4.6,2.1-4.6,4.6s2.1,4.6,4.6,4.6h27.8c2.6,0,4.6-2.1,4.6-4.6S317.5,537.7,314.9,537.7z"/>
		</g>
	</g>
	<g>
		<g>
			<path d="M416.9,370.8H185.1c-2.6,0-4.6,2.1-4.6,4.6v148.4c0,2.6,2.1,4.6,4.6,4.6h231.8c2.6,0,4.6-2.1,4.6-4.6V375.5
				C421.6,372.9,419.5,370.8,416.9,370.8z M412.3,519.2H189.7V380.1h222.6L412.3,519.2L412.3,519.2z"/>
		</g>
	</g>
	<g>
		<g>
			<path d="M361.3,593.4H240.7c-7.7,0-13.9,6.2-13.9,13.9c0,7.7,6.2,13.9,13.9,13.9h120.6c7.7,0,13.9-6.2,13.9-13.9
				C375.2,599.6,369,593.4,361.3,593.4z M361.3,611.9H240.7c-2.6,0-4.6-2.1-4.6-4.6c0-2.6,2.1-4.6,4.6-4.6h120.6
				c2.6,0,4.6,2.1,4.6,4.6C365.9,609.8,363.9,611.9,361.3,611.9z"/>
		</g>
	</g>
	<g>
		<g>
			<path d="M352,593.4c-15.4,0-23.2-10.9-23.2-32.5c0-2.6-2.1-4.6-4.6-4.6h-46.4c-2.6,0-4.6,2.1-4.6,4.6c0,21.5-7.8,32.5-23.2,32.5
				c-2.6,0-4.6,2.1-4.6,4.6c0,2.6,2.1,4.6,4.6,4.6h102c2.6,0,4.6-2.1,4.6-4.6C356.7,595.4,354.6,593.4,352,593.4z M272.6,593.4
				c5.7-6.3,9.1-15.7,9.7-27.8h37.3c0.7,12.1,4,21.5,9.7,27.8H272.6z"/>
		</g>
	</g>
	<g>
		<g>
			<polygon class="st1" points="268,570.2 276.7,509.1 217.3,526 233.7,540.3 205.2,572.9 223.1,588.5 251.6,555.9 			"/>
		</g>
		<g>
			<polygon class="st0" points="258.3,548.1 267.1,486.9 207.6,503.8 224,518.2 195.5,550.7 213.4,566.4 241.9,533.8 			"/>
			<path d="M213.6,569.6L192.3,551l28.5-32.6L203,502.8l66.8-19l-9.8,68.7L242.1,537L213.6,569.6z M198.7,550.5l14.5,12.7l28.5-32.6
				l15,13.1l7.7-53.6l-52.1,14.8l15,13.1L198.7,550.5z"/>
		</g>
	</g>
	<g>
		<rect x="484.5" y="267.2" class="st1" width="46.8" height="50.8"/>
	</g>
	<g>
		<rect x="473.4" y="258.4" class="st0" width="46.8" height="50.8"/>
		<path d="M521.1,310.1h-48.5v-52.5h48.5V310.1z M474.3,308.4h45.1v-49.1h-45.1V308.4z"/>
	</g>
	<g>
		<polygon class="st1" points="492.2,296.4 492.2,271.2 507.9,283.8 		"/>
		<path d="M491.3,298.2v-28.7l18,14.3L491.3,298.2z M493,273v21.6l13.5-10.8L493,273z"/>
	</g>
	<g>
		<g>
			<path d="M100.2,445.9c-0.1-0.3-13.6-28.6-21.7-59.7c-6-23.1-7.6-41.7-4.9-55.7c-1.2-2.7-2.2-5.9-2.8-9.8
				c-2.4-13.6-2.4-35.2,10.8-60.9c12.8-24.8,34.9-47.4,65.6-67l1.6,2.5c-80.9,51.6-78,108.6-75.1,124.8c0.3,1.8,0.7,3.5,1.2,5.1
				c2.7-9,7.5-15.7,14.5-20c6.5-4.1,12.9-4.7,17.8-1.6c5.1,3.2,7.8,9.8,7.1,17.7c-1,10.8-12,21.1-23.2,21.5
				c-3.4,0.2-10.1-0.6-15.1-7.9c-5.3,41.7,26.5,108.9,26.9,109.7L100.2,445.9z M76.8,330.2c3.1,6.5,8,9.8,14.2,9.5
				c9.6-0.4,19.5-9.5,20.3-18.8c0.6-6.8-1.5-12.3-5.7-14.9c-3.9-2.4-9.1-1.8-14.6,1.6C83.2,312.6,78.8,320.5,76.8,330.2z"/>
		</g>
		<g>
			<path d="M150.3,224h-3v-29.3c-14.9-1.5-36.3-3.6-37.7-3.6v-3c2.2,0,35.6,3.4,39.4,3.8l1.3,0.1V224z"/>
		</g>
	</g>
	<g>
		<g>
			<g>
				<path class="st1" d="M516.4,84v20.1h-18.6V84h-20V65.4h20V45.3h18.6v20.1h20V84H516.4z"/>
			</g>
		</g>
		<g>
			<g>
				<path class="st0" d="M526.5,72.7v20.1h-18.6V72.7h-20V54.1h20V34h18.6v20.1h20v18.6H526.5z"/>
				<path d="M528.5,94.9h-22.7V74.8h-20V52.1h20V32h22.7v20.1h20v22.7h-20V94.9z M510,90.8h14.4V70.7h20V56.2h-20V36.1H510v20.1h-20
					v14.4h20V90.8z"/>
			</g>
		</g>
	</g>
	<g>
		<g>
			<g>
				<path class="st1" d="M82.7,614.2v14.5H69.3v-14.5H54.8v-13.4h14.4v-14.5h13.4v14.5h14.4v13.4H82.7z"/>
			</g>
		</g>
		<g>
			<g>
				<path class="st0" d="M90,606v14.5H76.6V606H62.1v-13.4h14.4v-14.5H90v14.5h14.4V606H90z"/>
				<path d="M91.5,622H75v-14.5H60.6v-16.4H75v-14.5h16.4v14.5h14.4v16.4H91.5V622z M78,619h10.4v-14.5h14.4v-10.4H88.5v-14.5H78
					v14.5H63.6v10.4H78V619z"/>
			</g>
		</g>
	</g>
	<g>
		<rect x="183.2" y="94.3" class="st0" width="250.6" height="173.3"/>
		<path d="M435.3,269.1H181.7V92.8h253.6V269.1z M184.7,266.1h247.6V95.8H184.7V266.1z"/>
	</g>
	<g>
		<rect x="183.2" y="94.3" class="st0" width="250.6" height="27.6"/>
		<path d="M435.3,123.4H181.7V92.8h253.6V123.4z M184.7,120.4h247.6V95.8H184.7V120.4z"/>
	</g>
	<g>
		<path d="M201.5,117.4c-4.3,0-7.8-3.5-7.8-7.8s3.5-7.8,7.8-7.8s7.8,3.5,7.8,7.8S205.8,117.4,201.5,117.4z M201.5,104.8
			c-2.6,0-4.8,2.2-4.8,4.8s2.2,4.8,4.8,4.8s4.8-2.2,4.8-4.8S204.1,104.8,201.5,104.8z"/>
	</g>
	<g>
		<path d="M227.3,117.4c-4.3,0-7.8-3.5-7.8-7.8s3.5-7.8,7.8-7.8s7.8,3.5,7.8,7.8S231.6,117.4,227.3,117.4z M227.3,104.8
			c-2.6,0-4.8,2.2-4.8,4.8s2.2,4.8,4.8,4.8s4.8-2.2,4.8-4.8S230,104.8,227.3,104.8z"/>
	</g>
	<g>
		<path d="M253.2,117.4c-4.3,0-7.8-3.5-7.8-7.8s3.5-7.8,7.8-7.8s7.8,3.5,7.8,7.8S257.5,117.4,253.2,117.4z M253.2,104.8
			c-2.6,0-4.8,2.2-4.8,4.8s2.2,4.8,4.8,4.8s4.8-2.2,4.8-4.8S255.8,104.8,253.2,104.8z"/>
	</g>
	<g>
		<path class="st1" d="M386.4,206.8H241.8c-1.7,0-3.1-1.4-3.1-3.1v-40.2c0-1.7,1.4-3.1,3.1-3.1h144.6c1.7,0,3.1,1.4,3.1,3.1v40.2
			C389.5,205.4,388.1,206.8,386.4,206.8z"/>
	</g>
	<g>
		<path d="M377.5,197.8H232.9c-2.6,0-4.6-2.1-4.6-4.6V153c0-2.6,2.1-4.6,4.6-4.6h144.6c2.6,0,4.6,2.1,4.6,4.6v40.2
			C382.1,195.8,380.1,197.8,377.5,197.8z M232.9,151.4c-0.9,0-1.6,0.7-1.6,1.6v40.2c0,0.9,0.7,1.6,1.6,1.6h144.6
			c0.9,0,1.6-0.7,1.6-1.6V153c0-0.9-0.7-1.6-1.6-1.6H232.9z"/>
	</g>
	<g>
		<path d="M377.5,252.5h-57.2c-2.6,0-4.6-2.1-4.6-4.6v-27.7c0-2.6,2.1-4.6,4.6-4.6h57.2c2.6,0,4.6,2.1,4.6,4.6v27.7
			C382.1,250.4,380.1,252.5,377.5,252.5z M320.3,218.6c-0.9,0-1.6,0.7-1.6,1.6v27.7c0,0.9,0.7,1.6,1.6,1.6h57.2
			c0.9,0,1.6-0.7,1.6-1.6v-27.7c0-0.9-0.7-1.6-1.6-1.6H320.3z"/>
	</g>
	<g>
		<rect x="229.8" y="229.2" width="75.4" height="3"/>
	</g>
	<g>
		<rect x="229.8" y="241.3" width="75.4" height="3"/>
	</g>
	<g>
		<g>
			<g>
				<path class="st0" d="M352.2,97.6v7.1h-6.6v-7.1h-7.1V91h7.1v-7.1h6.6V91h7.1v6.6H352.2z"/>
			</g>
			<g>
				<path d="M352.7,105.2h-7.6v-7.1H338v-7.6h7.1v-7.1h7.6v7.1h7.1v7.6h-7.1V105.2z M346.1,104.2h5.6v-7.1h7.1v-5.6h-7.1v-7.1h-5.6
					v7.1H339v5.6h7.1V104.2z"/>
			</g>
		</g>
	</g>
	<g>
		<g>
			<polygon class="st0" points="117,129.9 28.5,129.9 43.7,67.6 132.3,67.6 			"/>
		</g>
		<g>
			<path d="M117.7,130.7H27.4l15.7-64h90.3L117.7,130.7z M29.6,129h86.8l14.8-60.6H44.4L29.6,129z"/>
		</g>
	</g>
	<g>
		<polygon class="st1" points="109.8,122.7 21.2,122.7 36.5,60.4 125,60.4 		"/>
		<path d="M110.5,123.6H20.2l15.7-64h90.3L110.5,123.6z M22.3,121.9h86.8l14.8-60.6H37.2L22.3,121.9z"/>
	</g>
	<g>
		<g>
			<circle class="st0" cx="77.9" cy="100" r="14.4"/>
		</g>
		<g>
			<path d="M77.9,115.3c-8.4,0-15.2-6.8-15.2-15.2s6.8-15.2,15.2-15.2s15.2,6.8,15.2,15.2S86.3,115.3,77.9,115.3z M77.9,86.5
				c-7.4,0-13.5,6.1-13.5,13.5c0,7.4,6.1,13.5,13.5,13.5c7.4,0,13.5-6.1,13.5-13.5C91.4,92.6,85.3,86.5,77.9,86.5z"/>
		</g>
	</g>
	<g>
		<g>
			<polygon class="st0" points="77.9,100 49.5,100 64.4,74.4 			"/>
		</g>
		<g>
			<path d="M79.3,100.9H48l16.4-28.3L79.3,100.9z M51,99.2h25.5l-12.1-23L51,99.2z"/>
		</g>
	</g>
	<g>
		<g>
			<path class="st0" d="M85.2,74.4c1.3-0.1,23.5,0,23.5,0"/>
		</g>
		<g>
			<path d="M108.7,75.3c-8.9-0.1-22.5-0.1-23.4,0l-0.2-1.7c1.3-0.1,21.4,0,23.6,0L108.7,75.3z"/>
		</g>
	</g>
	<g>
		<g>
			<path class="st0" d="M85.2,78.6c1.3-0.1,15.2,0,15.2,0"/>
		</g>
		<g>
			<path d="M100.3,79.5c-5.6-0.1-14.1-0.1-15.1,0l-0.2-1.7c1.3-0.1,13.8,0,15.3,0L100.3,79.5z"/>
		</g>
	</g>
	<g>
		<g>
			<path class="st0" d="M37.7,106.1c1.3-0.1,23.5,0,23.5,0"/>
		</g>
		<g>
			<path d="M61.3,106.9c-8.9-0.1-22.5-0.1-23.4,0l-0.2-1.7c1.3-0.1,21.4,0,23.6,0L61.3,106.9z"/>
		</g>
	</g>
	<g>
		<g>
			<path class="st0" d="M37.7,110.2c1.3-0.1,15.2,0,15.2,0"/>
		</g>
		<g>
			<path d="M52.9,111.1c-5.6-0.1-14.1-0.1-15.1,0l-0.2-1.7c1.3-0.1,13.8,0,15.3,0L52.9,111.1z"/>
		</g>
	</g>
	<g>
		<g>
			<g>
				<path class="st0" d="M116.8,95.4v4.1H113v-4.1H109v-3.8h4.1v-4.1h3.8v4.1h4.1v3.8H116.8z"/>
			</g>
			<g>
				<path d="M117.1,99.7h-4.3v-4.1h-4.1v-4.3h4.1v-4.1h4.3v4.1h4.1v4.3h-4.1V99.7z M113.3,99.2h3.2v-4.1h4.1v-3.2h-4.1v-4.1h-3.2
					v4.1h-4.1v3.2h4.1V99.2z"/>
			</g>
		</g>
	</g>
</g>
</svg>
