<?xml version="1.0" encoding="utf-8"?>
<!-- Generator: Adobe Illustrator 25.0.0, SVG Export Plug-In . SVG Version: 6.00 Build 0)  -->
<svg version="1.1" id="Layer_1" xmlns="http://www.w3.org/2000/svg" xmlns:xlink="http://www.w3.org/1999/xlink" x="0px" y="0px"
	 viewBox="0 0 637.3 560.2" style="enable-background:new 0 0 637.3 560.2;" xml:space="preserve">
<style type="text/css">
	.st0{display:none;}
	.st1{display:inline;fill:#FCF09D;}
	.st2{font-family:'AvantGarde-Medium';}
	.st3{font-size:77.5107px;}
	.st4{display:inline;fill:#FFFFFF;}
	.st5{display:inline;fill:none;stroke:#000000;stroke-miterlimit:10;}
	.st6{display:inline;fill:#1A1A1A;}
	.st7{font-family:'AvantGarde-Bold';}
	.st8{font-size:101.8176px;}
	.st9{enable-background:new    ;}
	.st10{fill:#FCF09D;}
	.st11{fill:#FFFFFF;}
	.st12{fill:#1A1A1A;}
</style>
<g id="Layer_1_1_" class="st0">
	<text transform="matrix(1 0 0 1 215.2148 148.0917)" class="st1 st2 st3">Trust </text>
	<text transform="matrix(1 0 0 1 223.2527 145.0537)" class="st4 st2 st3">Trust </text>
	<text transform="matrix(1 0 0 1 223.2527 145.0537)" class="st5 st2 st3">Trust </text>
	<text transform="matrix(1 0 0 1 227.9819 245.5303)" class="st6 st7 st8">The</text>
	<text transform="matrix(1 0 0 1 81.6208 349.6514)" class="st6 st7 st8">Process</text>
</g>
<g class="st9">
	<g>
		<path class="st10" d="M225.8,96.9h-10V85.6h32.7v11.3h-9.9V136h-12.9L225.8,96.9L225.8,96.9z"/>
	</g>
	<g>
		<path class="st10" d="M253.8,85.6h15.9c8.9,0,12.3,1.1,15.5,3.6c4.2,3.3,6.2,8.6,6.2,13.8c0,5.8-3,14.3-12.5,15.9l13.7,17.2h-14.7
			l-11.7-16.3h-0.1V136h-12.3V85.6z M266.1,110.9h4.6c7.6,0,8.5-4.8,8.5-7.2c0-4.6-3.3-6.8-8.3-6.8h-4.7v14H266.1z"/>
	</g>
	<g>
		<path class="st10" d="M311.7,85.6V116c0,3.4,0.2,9.6,6.5,9.6c6.4,0,6.4-5.6,6.4-9.6V85.6h12.9V116c0,8.5-1.8,12.2-5,15.5
			c-3.3,3.3-7.8,5.5-14.1,5.5c-3.7,0-10.4-0.9-14.5-5.4c-4.2-4.6-5-8.1-5-15.5V85.6H311.7z"/>
	</g>
	<g>
		<path class="st10" d="M366.3,100.3c-0.3-1.7-0.7-4.9-4.6-4.9c-2.2,0-4.4,1.6-4.4,4c0,3,1.4,3.6,10.4,7.7
			c9.4,4.2,11.8,8.6,11.8,14.5c0,7.4-4.2,15.5-17.6,15.5c-14.6,0-18.2-9.5-18.2-16v-1.6h12.8c0,5.9,3.6,6.9,5.2,6.9
			c3.1,0,4.9-2.5,4.9-4.8c0-3.3-2.1-4.2-9.9-7.4c-3.5-1.4-12.3-5-12.3-14.5s9.2-14.9,17.7-14.9c5,0,10.4,1.8,13.6,5.7
			c3,3.7,3.2,7.1,3.3,10h-12.7V100.3z"/>
	</g>
	<g>
		<path class="st10" d="M391.7,96.9h-10V85.6h32.7v11.3h-9.9V136h-12.9L391.7,96.9L391.7,96.9z"/>
	</g>
</g>
<g class="st9">
	<g>
		<path class="st11" d="M232.9,94.2h-10V82.9h32.7v11.3h-9.9v39.1h-12.9L232.9,94.2L232.9,94.2z"/>
	</g>
	<g>
		<path class="st11" d="M260.9,82.9h15.9c8.9,0,12.3,1.1,15.5,3.6c4.2,3.3,6.2,8.6,6.2,13.8c0,5.8-3,14.3-12.5,15.9l13.7,17.2H285
			l-11.7-16.3h-0.1v16.3h-12.3V82.9z M273.2,108.3h4.6c7.6,0,8.5-4.8,8.5-7.2c0-4.6-3.3-6.8-8.3-6.8h-4.7v14H273.2z"/>
	</g>
	<g>
		<path class="st11" d="M318.8,82.9v30.5c0,3.4,0.2,9.6,6.5,9.6c6.4,0,6.4-5.6,6.4-9.6V82.9h12.9v30.5c0,8.5-1.8,12.2-5,15.5
			c-3.3,3.3-7.8,5.5-14.1,5.5c-3.7,0-10.4-0.9-14.5-5.4c-4.2-4.6-5-8.1-5-15.5V82.9H318.8z"/>
	</g>
	<g>
		<path class="st11" d="M373.4,97.6c-0.3-1.7-0.7-4.9-4.6-4.9c-2.2,0-4.4,1.6-4.4,4c0,3,1.4,3.6,10.4,7.7
			c9.4,4.2,11.8,8.6,11.8,14.5c0,7.4-4.2,15.5-17.6,15.5c-14.6,0-18.2-9.5-18.2-16v-1.6h12.8c0,5.9,3.6,6.9,5.2,6.9
			c3.1,0,4.9-2.5,4.9-4.8c0-3.3-2.1-4.2-9.9-7.4c-3.5-1.4-12.3-5-12.3-14.5s9.2-14.9,17.7-14.9c5,0,10.4,1.8,13.6,5.7
			c3,3.7,3.2,7.1,3.3,10h-12.7V97.6z"/>
	</g>
	<g>
		<path class="st11" d="M398.7,94.2h-10V82.9h32.7v11.3h-9.9v39.1h-12.9L398.7,94.2L398.7,94.2z"/>
	</g>
</g>
<g class="st9">
	<g>
		<path d="M246.8,134.3h-14.9V95.2h-10V81.9h34.7v13.3h-9.9L246.8,134.3L246.8,134.3z M233.9,132.3h10.9V93.2h9.9v-9.3H224v9.3h10
			v39.1H233.9z"/>
	</g>
	<g>
		<path d="M301.8,134.3h-17.3L274.2,120v14.4h-14.3V81.9h16.9c8.5,0,12.4,0.9,16.2,3.8c4.1,3.3,6.6,8.7,6.6,14.6
			c0,6.9-3.7,14.4-11.8,16.5L301.8,134.3z M285.5,132.3h12.1l-13.5-16.9l1.7-0.3c8.6-1.4,11.7-8.9,11.7-14.9c0-5.3-2.2-10.1-5.8-13
			c-2.9-2.3-6-3.4-14.9-3.4h-14.9v48.4h10.3v-16.3h1.7L285.5,132.3z M277.8,109.3h-5.6v-16h5.7c5.8,0,9.3,2.9,9.3,7.8
			C287.2,103.5,286.3,109.3,277.8,109.3z M274.2,107.3h3.6c4.9,0,7.5-2.1,7.5-6.2c0-5.1-4.6-5.8-7.3-5.8h-3.7v12H274.2z"/>
	</g>
	<g>
		<path d="M325.5,135.3c-3,0-10.5-0.6-15.3-5.7c-4.5-5-5.3-9-5.3-16.2V81.9h14.9v31.5c0,4.5,0.7,8.6,5.5,8.6c5,0,5.4-3.7,5.4-8.6
			V81.9h14.9v31.5c0,8.9-2,12.8-5.3,16.2C336.6,133.4,331.6,135.3,325.5,135.3z M306.9,83.9v29.5c0,7.1,0.7,10.4,4.8,14.9
			c4.3,4.7,11.6,5.1,13.8,5.1c5.5,0,10-1.7,13.4-5.2c2.9-3,4.8-6.5,4.8-14.8V83.9h-10.9v29.5c0,4,0,10.6-7.4,10.6
			c-7.5,0-7.5-7.7-7.5-10.6V83.9H306.9z"/>
	</g>
	<g>
		<path d="M369,135.3c-14.2,0-19.2-8.8-19.2-17v-2.6h14.8v1c0,5.6,3.5,5.9,4.2,5.9c2.4,0,3.9-2,3.9-3.8c0-2.5-1.4-3.2-8.8-6.3
			l-0.5-0.2c-3.5-1.4-12.9-5.2-12.9-15.4c0-9.9,9.5-15.9,18.7-15.9c5.8,0,11.2,2.3,14.4,6.1c3.3,4,3.4,7.8,3.6,10.5v1h-14.6l-0.2-1
			c-0.3-2.2-0.8-3.9-3.6-3.9c-1.7,0-3.4,1.1-3.4,3c0,2.3,0.8,2.7,9.8,6.8c8.9,4,12.4,8.3,12.4,15.4
			C387.5,122.7,386.2,135.3,369,135.3z M351.8,117.6v0.6c0,3.5,1.2,15,17.2,15c15.4,0,16.6-11.1,16.6-14.5c0-5.3-1.9-9.3-11.2-13.5
			c-9.3-4.2-11-5-11-8.6c0-3.1,2.8-5,5.4-5c4.1,0,5.1,3,5.5,4.9h10.8c-0.2-2.4-0.6-5.3-3.1-8.3c-2.8-3.4-7.6-5.4-12.9-5.4
			c-8.2,0-16.7,5.2-16.7,13.9c0,8.8,8.2,12.1,11.7,13.5l0.5,0.2c7.5,3.2,10,4.2,10,8.1c0,2.8-2.3,5.8-5.9,5.8
			c-0.6,0-5.7-0.2-6.2-6.9h-10.7V117.6z"/>
	</g>
	<g>
		<path d="M412.6,134.3h-14.9V95.2h-10V81.9h34.7v13.3h-9.9L412.6,134.3L412.6,134.3z M399.7,132.3h10.9V93.2h9.9v-9.3h-30.7v9.3h10
			L399.7,132.3L399.7,132.3z"/>
	</g>
</g>
<g class="st9">
	<g>
		<path class="st12" d="M243.9,187.1H229v-16.9h48.9v16.9h-14.8v58.4h-19.2L243.9,187.1L243.9,187.1z"/>
	</g>
	<g>
		<path class="st12" d="M285.6,170.2h19.2v28.3h24.6v-28.3h19.2v75.3h-19.2v-30.1h-24.6v30.1h-19.2V170.2z"/>
	</g>
	<g>
		<path class="st12" d="M362.4,170.2h41.8v16.9h-23.4v11.7h22.7v16.9h-22.7v12.9h23.4v16.9h-41.8V170.2z"/>
	</g>
</g>
<g class="st9">
	<g>
		<path class="st12" d="M88.4,274.3H113c13.9,0,19.1,2.1,23.2,5.5c5.9,4.9,8.9,12.3,8.9,20s-3.2,15.7-7.9,19.8
			c-5.2,4.4-10.3,6.5-22,6.5h-8.3v23.6H88.4V274.3z M106.9,309.1h7.8c3.7,0,12,0,12-9.1c0-8.9-8.6-8.9-12.7-8.9h-7.1
			C106.9,291.1,106.9,309.1,106.9,309.1z"/>
	</g>
	<g>
		<path class="st12" d="M153.2,274.3H177c13.2,0,18.3,1.6,23.2,5.4c6.2,4.9,9.3,12.8,9.3,20.6c0,8.7-4.5,21.4-18.7,23.7l20.5,25.7
			h-22l-17.4-24.3h-0.2v24.3h-18.4v-75.4H153.2z M171.6,312.2h6.8c11.3,0,12.6-7.1,12.6-10.8c0-6.8-5-10.2-12.4-10.2h-7L171.6,312.2
			L171.6,312.2z"/>
	</g>
	<g>
		<path class="st12" d="M257.2,272.9c23.2,0,39.8,18.1,39.8,39.1s-16.5,39.1-39.9,39.1c-23.7,0-39.6-18.8-39.6-38.2
			c0-5,0.7-10.6,3-16.1C224.4,287,236.1,272.9,257.2,272.9z M257.5,334.2c13.6,0,20.3-12.4,20.3-22.1c0-9.8-6.6-22.3-20.5-22.3
			c-13.3,0-20.6,11.4-20.6,22C236.7,323.4,244.5,334.2,257.5,334.2z"/>
	</g>
	<g>
		<path class="st12" d="M382.1,321.4c-4.4,17.8-19.9,29.6-38.1,29.6c-23.6,0-39.7-18.8-39.7-39.2c0-19.2,14.9-39,39.5-39
			c23.6,0,36.2,18.2,38.3,30h-20.2c-2.1-5.6-7.8-13.1-18.2-13.1c-12.9,0-20.2,11.3-20.2,22c0,11.4,7.7,22.4,20.3,22.4
			c12,0,16.9-10.1,18.1-12.7L382.1,321.4L382.1,321.4z"/>
	</g>
	<g>
		<path class="st12" d="M392.1,274.3h41.8v16.9h-23.4v11.7h22.7v16.9h-22.7v12.9h23.4v16.9h-41.8V274.3z"/>
	</g>
	<g>
		<path class="st12" d="M475.3,296.3c-0.4-2.5-1-7.3-6.9-7.3c-3.4,0-6.6,2.3-6.6,5.9c0,4.5,2,5.4,15.6,11.5
			c14.1,6.3,17.6,12.8,17.6,21.6c0,11-6.3,23.1-26.3,23.1c-21.8,0-27.2-14.3-27.2-23.9v-2.4h19.1c0,8.8,5.4,10.3,7.8,10.3
			c4.6,0,7.3-3.8,7.3-7.2c0-5-3.2-6.2-14.8-11.1c-5.3-2.1-18.4-7.4-18.4-21.6s13.7-22.2,26.4-22.2c7.4,0,15.5,2.7,20.4,8.6
			c4.5,5.5,4.8,10.6,5,14.9h-19V296.3z"/>
	</g>
	<g>
		<path class="st12" d="M533.7,296.3c-0.4-2.5-1-7.3-6.9-7.3c-3.4,0-6.6,2.3-6.6,5.9c0,4.5,2,5.4,15.6,11.5
			c14.1,6.3,17.6,12.8,17.6,21.6c0,11-6.3,23.1-26.3,23.1c-21.8,0-27.2-14.3-27.2-23.9v-2.4H519c0,8.8,5.4,10.3,7.8,10.3
			c4.6,0,7.3-3.8,7.3-7.2c0-5-3.2-6.2-14.8-11.1c-5.3-2.1-18.4-7.4-18.4-21.6s13.7-22.2,26.4-22.2c7.4,0,15.5,2.7,20.4,8.6
			c4.5,5.5,4.8,10.6,5,14.9h-19V296.3z"/>
	</g>
</g>
<g>
	<g>
		<g>
			<g>
				<g>
					<path class="st10" d="M381.9,498.6V519h-18.8v-20.4h-20.2v-18.8h20.2v-20.4h18.8v20.4h20.2v18.8H381.9z"/>
				</g>
			</g>
		</g>
	</g>
	<g>
		<g>
			<g>
				<g>
					<path class="st11" d="M392.1,487.1v20.4h-19v-20.4h-20.2v-18.8h20.2V448H392v20.4h20.2v18.8L392.1,487.1L392.1,487.1z"/>
				</g>
			</g>
			<g>
				<g>
					<path d="M394.2,509.6h-23v-20.4H351v-23h20.2v-20.4h23v20.4h20.2v23h-20.2V509.6z M375.3,505.4H390V485h20.2v-14.6H390V450
						h-14.6v20.4h-20.2V485h20.2v20.4H375.3z"/>
				</g>
			</g>
		</g>
	</g>
</g>
</svg>
