<?xml version="1.0" encoding="utf-8"?>
<!-- Generator: Adobe Illustrator 25.0.0, SVG Export Plug-In . SVG Version: 6.00 Build 0)  -->
<svg version="1.1" id="Layer_1" xmlns="http://www.w3.org/2000/svg" xmlns:xlink="http://www.w3.org/1999/xlink" x="0px" y="0px"
	 viewBox="0 0 79.3 79.3" style="enable-background:new 0 0 79.3 79.3;" xml:space="preserve">
<style type="text/css">
	.st0{fill:#FFFFFF;}
	.st1{fill:#FCF09D;}
	.st2{fill:#FFFFFF;stroke:#000000;stroke-miterlimit:10;}
</style>
<circle class="st0" cx="42.2" cy="38.3" r="23.4"/>
<g>
	<g>
		<g>
			<path class="st1" d="M62.4,66l-12-12c3.2-3.2,4.9-7.4,4.9-11.9s-1.8-8.7-4.9-11.9c-6.6-6.6-17.3-6.6-23.8,0l-12-12
				c13.2-13.2,34.7-13.2,47.9,0c6.4,6.4,9.9,14.9,9.9,24S68.8,59.6,62.4,66z"/>
		</g>
	</g>
	<g>
		<g>
			<path class="st1" d="M38.5,75.9c-8.7,0-17.4-3.3-24-9.9c-13.2-13.2-13.2-34.7,0-47.9l12,12C20,36.7,20,47.4,26.6,54
				c6.6,6.6,17.3,6.6,23.8,0l12,12C55.8,72.6,47.2,75.9,38.5,75.9z"/>
		</g>
	</g>
</g>
<g>
	<path class="st2" d="M65.6,63.4l-12-12c3.2-3.2,4.9-7.4,4.9-11.9s-1.8-8.7-4.9-11.9c-6.6-6.6-17.3-6.6-23.8,0l-12-12
		c13.2-13.2,34.7-13.2,47.9,0c6.4,6.4,9.9,14.9,9.9,24S72,57,65.6,63.4z"/>
</g>
<g>
	<g>
		<g>
			<path class="st0" d="M41.6,73.3c-8.7,0-17.4-3.3-24-9.9c-13.2-13.2-13.2-34.7,0-47.9l12,12c-6.6,6.6-6.6,17.3,0,23.8
				c6.6,6.6,17.3,6.6,23.8,0l12,12C59,70,50.3,73.3,41.6,73.3z"/>
		</g>
		<g>
			<path d="M41.6,73.8c-9.2,0-17.8-3.6-24.3-10.1c-13.4-13.4-13.4-35.2,0-48.6l0.4-0.4l12.7,12.7l-0.4,0.4c-6.4,6.4-6.4,16.8,0,23.1
				c3.1,3.1,7.2,4.8,11.6,4.8s8.5-1.7,11.6-4.8l0.4-0.4l12.7,12.7L66,63.7C59.5,70.2,50.8,73.8,41.6,73.8L41.6,73.8
				C41.6,73.8,41.6,73.8,41.6,73.8z M17.7,16.2C5,29.2,5.1,50.1,18,63c6.3,6.3,14.7,9.8,23.6,9.8c0,0,0,0,0,0l0,0
				c8.8,0,17-3.3,23.2-9.4L53.6,52c-3.2,3.1-7.4,4.7-11.9,4.7c0,0,0,0,0,0c-4.6,0-9-1.8-12.3-5.1C22.7,45,22.6,34.3,29,27.5
				L17.7,16.2z"/>
		</g>
	</g>
</g>
</svg>
