<?xml version="1.0" encoding="utf-8"?>
<!-- Generator: Adobe Illustrator 25.0.0, SVG Export Plug-In . SVG Version: 6.00 Build 0)  -->
<svg version="1.1" id="Layer_1" xmlns="http://www.w3.org/2000/svg" xmlns:xlink="http://www.w3.org/1999/xlink" x="0px" y="0px"
	 viewBox="0 0 561.5 695.8" style="enable-background:new 0 0 561.5 695.8;" xml:space="preserve">
<style type="text/css">
	.st0{fill:#FCF09D;}
	.st1{fill:#FFFFFF;}
</style>
<g>
	<g>
		<rect x="51.1" y="603.5" class="st0" width="87.5" height="31.2"/>
	</g>
	<g>
		<rect x="87.3" y="594.1" class="st0" width="17.8" height="9.4"/>
	</g>
	<g>
		<rect x="112.3" y="594.1" class="st0" width="17.8" height="9.4"/>
	</g>
	<g>
		<rect x="60.6" y="594.1" class="st0" width="17.8" height="9.4"/>
	</g>
</g>
<g id="Layer_2_1_">
</g>
<g>
	<g>
		<g>
			<path class="st0" d="M384.4,119.1v34.6h-32.1v-34.6h-34.5V87h34.5V52.4h32.1V87h34.5v32.1H384.4z"/>
		</g>
	</g>
	<g>
		<g>
			<path class="st1" d="M401.8,99.6v34.6h-32.1V99.6h-34.5V67.6h34.5V32.9h32.1v34.6h34.5v32.1H401.8z"/>
			<path d="M405.3,137.9h-39.1v-34.6h-34.5V64.1h34.5V29.5h39.1v34.6h34.5v39.1h-34.5V137.9z M373.4,130.8h24.8V96.2h34.5v-25h-34.5
				V36.5h-24.8v34.6h-34.5V96h34.5V130.8z"/>
		</g>
	</g>
</g>
<g>
	<g>
		<g>
			<path class="st0" d="M471.7,660.5v14.9h-13.8v-14.9h-14.8v-13.8h14.8v-14.9h13.8v14.9h14.8v13.8H471.7z"/>
		</g>
	</g>
	<g>
		<g>
			<path class="st1" d="M479.2,652.1V667h-13.8v-14.9h-14.8v-13.8h14.8v-14.9h13.8v14.9H494v13.8H479.2z"/>
			<path d="M480.6,668.5h-16.8v-14.9H449v-16.8h14.8V622h16.8v14.9h14.8v16.8h-14.8V668.5z M466.9,665.5h10.7v-14.9h14.8v-10.7
				h-14.8V625h-10.7v14.9h-14.8v10.7h14.8V665.5z"/>
		</g>
	</g>
</g>
<g>
	<path class="st0" d="M404.8,373.6l-41-28.8c-10-7.2-14-8.1-29.8-6.7l-128.4,9.4c-10.3,0.9-14,7.6-14,15.7v140.5
		c0,6.3,2.2,11.7,7.6,18.9l30.2,39.2c5,6.3,9.5,7.6,19,7.2l149.1-9c12.6-0.9,16.3-6.8,16.3-16.7v-158
		C413.8,379.8,411.6,378.6,404.8,373.6z"/>
</g>
<g>
	<rect x="29.2" y="412.3" class="st0" width="288.9" height="15"/>
</g>
<g>
	<rect x="29.2" y="443.7" class="st0" width="288.9" height="15"/>
</g>
<g>
	<rect x="29.2" y="475.2" class="st0" width="288.9" height="15"/>
</g>
<g>
	<g>
		<path class="st1" d="M226.9,327.9l128.4-9.4c15.8-1.4,19.8-0.5,29.8,6.7l41,28.8c6.8,5,9,6.3,9,11.7v158c0,9.9-3.6,15.8-16.3,16.7
			l-149.1,9c-9.4,0.5-14-0.9-19-7.2L220.5,503c-5.5-7.2-7.6-12.6-7.6-18.9V343.6C212.9,335.6,216.6,328.9,226.9,327.9z"/>
	</g>
	<g>
		<path d="M251.2,358.5c7.2,5.8,9.9,5.5,23.4,4.5l127.5-7.6c2.7,0,0.5-2.7-0.5-3.2l-21.1-15.3c-4.1-3.2-9.4-6.7-19.8-5.9l-123.4,9
			c-4.5,0.5-5.5,2.7-3.6,4.5L251.2,358.5z M258.8,388.2v134.1c0,7.2,3.6,9.9,11.7,9.4l140.1-8.1c8.1-0.5,9-5.5,9-11.3V379.2
			c0-5.8-2.3-9-7.2-8.5l-146.4,8.5C260.7,379.7,258.8,382.4,258.8,388.2z M397.1,395.5c0.9,4.1,0,8.1-4.1,8.5l-6.7,1.4v99
			c-5.9,3.2-11.3,5-15.8,5c-7.2,0-9-2.3-14.4-9L311.9,431v67.1l14,3.2c0,0,0,8.1-11.3,8.1l-31,1.8c-0.9-1.8,0-6.3,3.2-7.2l8.1-2.3
			v-88.6l-11.3-0.9c-0.9-4.1,1.4-9.9,7.6-10.3l33.3-2.3l45.9,70.2v-62.2l-11.7-1.4c-0.9-5,2.7-8.5,7.2-9L397.1,395.5z M226.9,327.9
			l128.4-9.4c15.8-1.4,19.8-0.5,29.8,6.7l41,28.8c6.8,5,9,6.3,9,11.7v158c0,9.9-3.6,15.8-16.3,16.7l-149.1,9c-9.4,0.5-14-0.9-19-7.2
			L220.5,503c-5.5-7.2-7.6-12.6-7.6-18.9V343.6C212.9,335.6,216.6,328.9,226.9,327.9z"/>
	</g>
</g>
<g>
	<g>
		<polygon class="st0" points="235.9,460.7 243.2,409.9 193.8,423.9 207.4,435.8 183.8,462.9 198.6,475.9 222.3,448.8 		"/>
	</g>
	<g>
		<polygon class="st1" points="227.9,442.3 235.2,391.5 185.8,405.5 199.4,417.4 175.7,444.5 190.6,457.5 214.3,430.4 		"/>
		<path d="M190.7,459.5l-17-14.8l23.7-27.1l-14.5-12.7l53.9-15.3l-7.9,55.5l-14.5-12.7L190.7,459.5z M177.7,444.4l12.8,11.2
			l23.7-27.1l12.7,11.1l6.6-46.2l-44.9,12.8l12.7,11.1L177.7,444.4z"/>
	</g>
</g>
<g>
	<g>
		<g>
			<path class="st1" d="M162.2,304.7v6.6h-6.1v-6.6h-6.5v-6.1h6.5V292h6.1v6.6h6.5v6.1H162.2z"/>
		</g>
		<g>
			<path d="M162.6,311.7h-7v-6.6h-6.5v-7h6.5v-6.6h7v6.6h6.5v7h-6.5V311.7z M156.6,310.8h5.2v-6.6h6.5v-5.2h-6.5v-6.6h-5.2v6.6H150
				v5.2h6.5V310.8z"/>
		</g>
	</g>
</g>
<g>
	<g>
		<rect x="60.1" y="596.4" class="st1" width="87.5" height="31.2"/>
		<path d="M149.1,629.1H58.6v-34.2h90.5V629.1z M61.6,626.1h84.5v-28.2H61.6V626.1z"/>
	</g>
	<g>
		<rect x="96.3" y="587" class="st1" width="17.8" height="9.4"/>
		<path d="M115.6,597.9H94.8v-12.4h20.8V597.9z M97.8,594.9h14.8v-6.4H97.8V594.9z"/>
	</g>
	<g>
		<rect x="121.3" y="587" class="st1" width="17.8" height="9.4"/>
		<path d="M140.6,597.9h-20.8v-12.4h20.8V597.9z M122.8,594.9h14.8v-6.4h-14.8V594.9z"/>
	</g>
	<g>
		<rect x="69.7" y="587" class="st1" width="17.8" height="9.4"/>
		<path d="M89,597.9H68.2v-12.4H89V597.9z M71.2,594.9H86v-6.4H71.2V594.9z"/>
	</g>
</g>
<g>
	<g>
		<rect x="462" y="241" class="st0" width="43.7" height="15.6"/>
	</g>
	<g>
		<rect x="480.1" y="236.3" class="st0" width="8.9" height="4.7"/>
	</g>
	<g>
		<rect x="492.6" y="236.3" class="st0" width="8.9" height="4.7"/>
	</g>
	<g>
		<rect x="466.8" y="236.3" class="st0" width="8.9" height="4.7"/>
	</g>
</g>
<g>
	<g>
		<rect x="466.5" y="237.5" class="st1" width="43.7" height="15.6"/>
		<path d="M511,253.8h-45.2v-17.1H511V253.8z M467.2,252.3h42.2v-14.1h-42.2V252.3z"/>
	</g>
	<g>
		<rect x="484.6" y="232.8" class="st1" width="8.9" height="4.7"/>
		<path d="M494.3,238.2h-10.4V232h10.4V238.2z M485.3,236.7h7.4v-3.2h-7.4V236.7z"/>
	</g>
	<g>
		<rect x="497.1" y="232.8" class="st1" width="8.9" height="4.7"/>
		<path d="M506.8,238.2h-10.4V232h10.4V238.2z M497.8,236.7h7.4v-3.2h-7.4V236.7z"/>
	</g>
	<g>
		<rect x="471.3" y="232.8" class="st1" width="8.9" height="4.7"/>
		<path d="M480.9,238.2h-10.4V232h10.4V238.2z M472,236.7h7.4v-3.2H472V236.7z"/>
	</g>
</g>
</svg>
