<?xml version="1.0" encoding="utf-8"?>
<!-- Generator: Adobe Illustrator 25.0.0, SVG Export Plug-In . SVG Version: 6.00 Build 0)  -->
<svg version="1.1" id="Layer_1" xmlns="http://www.w3.org/2000/svg" xmlns:xlink="http://www.w3.org/1999/xlink" x="0px" y="0px"
	 viewBox="0 0 561.5 695.8" style="enable-background:new 0 0 561.5 695.8;" xml:space="preserve">
<style type="text/css">
	.st0{fill:#FFFFFF;}
	.st1{fill:#FCF09D;}
	.st2{fill:#FFFFFF;stroke:#000000;stroke-width:4;stroke-miterlimit:10;}
	.st3{fill:#E1E1E1;}
</style>
<rect x="267.8" y="265.7" class="st0" width="193.1" height="203.6"/>
<g id="Layer_2_1_">
</g>
<g>
	<g>
		<g>
			<path class="st1" d="M123.8,119.1v34.6H91.7v-34.6H57.2V87h34.5V52.4h32.1V87h34.5v32.1H123.8z"/>
		</g>
	</g>
	<g>
		<g>
			<path class="st0" d="M141.2,99.6v34.6h-32.1V99.6H74.7V67.6h34.5V32.9h32.1v34.6h34.5v32.1H141.2z"/>
			<path d="M144.6,137.9h-39.1v-34.6H71V64.1h34.5V29.5h39.1v34.6h34.5v39.1h-34.5V137.9z M112.7,130.8h24.8V96.2H172v-25h-34.5
				V36.5h-24.8v34.6H78.3V96h34.5V130.8z"/>
		</g>
	</g>
</g>
<g>
	<g>
		<g>
			<path class="st1" d="M425.2,610.6v14.9h-13.8v-14.9h-14.8v-13.8h14.8v-14.9h13.8v14.9H440v13.8H425.2z"/>
		</g>
	</g>
	<g>
		<g>
			<path class="st0" d="M432.7,602.2v14.9h-13.8v-14.9h-14.8v-13.8h14.8v-14.9h13.8v14.9h14.8v13.8H432.7z"/>
			<path d="M434.2,618.6h-16.8v-14.9h-14.8V587h14.8v-14.9h16.8V587H449v16.8h-14.8V618.6z M420.5,615.6h10.7v-14.9h14.8V590h-14.8
				v-14.9h-10.7V590h-14.8v10.7h14.8V615.6z"/>
		</g>
	</g>
</g>
<g>
	<g>
		<rect x="417.3" y="143.6" class="st1" width="63.6" height="22.7"/>
	</g>
	<g>
		<rect x="443.6" y="136.7" class="st1" width="13" height="6.8"/>
	</g>
	<g>
		<rect x="461.8" y="136.7" class="st1" width="13" height="6.8"/>
	</g>
	<g>
		<rect x="424.3" y="136.7" class="st1" width="13" height="6.8"/>
	</g>
</g>
<g>
	<g>
		<rect x="423.9" y="138.4" class="st0" width="63.6" height="22.7"/>
		<path d="M488.6,162.2h-65.8v-24.9h65.8V162.2z M425,160h61.4v-20.5H425V160z"/>
	</g>
	<g>
		<rect x="450.2" y="131.6" class="st0" width="13" height="6.8"/>
		<path d="M464.3,139.5h-15.1v-9h15.1V139.5z M451.3,137.3h10.8v-4.7h-10.8V137.3z"/>
	</g>
	<g>
		<rect x="468.4" y="131.6" class="st0" width="13" height="6.8"/>
		<path d="M482.5,139.5h-15.1v-9h15.1V139.5z M469.5,137.3h10.8v-4.7h-10.8V137.3z"/>
	</g>
	<g>
		<rect x="430.9" y="131.6" class="st0" width="13" height="6.8"/>
		<path d="M444.9,139.5h-15.1v-9h15.1V139.5z M432,137.3h10.8v-4.7H432V137.3z"/>
	</g>
</g>
<g>
	<g>
		<path class="st1" d="M257.3,262.2h14v14h-14V262.2z"/>
		<path class="st1" d="M257.3,458.8h14v14h-14V458.8z"/>
		<path class="st1" d="M453.9,262.2h14v14h-14V262.2z"/>
		<path class="st1" d="M453.9,458.8h14v14h-14V458.8z"/>
		<path class="st1" d="M285.4,293.8h77.2V371h-77.2V293.8z"/>
		<path class="st1" d="M383.7,293.8h56.2V378h-56.2V293.8z"/>
	</g>
	<g>
		<path d="M467.9,279.7c1.9,0,3.5-1.6,3.5-3.5v-14c0-1.9-1.6-3.5-3.5-3.5h-14c-1.9,0-3.5,1.6-3.5,3.5v3.5H274.8v-3.5
			c0-1.9-1.6-3.5-3.5-3.5h-14c-1.9,0-3.5,1.6-3.5,3.5v14c0,1.9,1.6,3.5,3.5,3.5h3.5v175.5h-3.5c-1.9,0-3.5,1.6-3.5,3.5v14
			c0,1.9,1.6,3.5,3.5,3.5h14c1.9,0,3.5-1.6,3.5-3.5v-3.5h175.5v3.5c0,1.9,1.6,3.5,3.5,3.5h14c1.9,0,3.5-1.6,3.5-3.5v-14
			c0-1.9-1.6-3.5-3.5-3.5h-3.5V279.7H467.9z M260.8,265.7h7v7h-7V265.7z M267.8,469.3h-7v-7h7V469.3z M450.3,458.8v3.5H274.8v-3.5
			c0-1.9-1.6-3.5-3.5-3.5h-3.5V279.7h3.5c1.9,0,3.5-1.6,3.5-3.5v-3.5h175.5v3.5c0,1.9,1.6,3.5,3.5,3.5h3.5v175.5h-3.5
			C451.9,455.3,450.3,456.8,450.3,458.8z M464.4,469.3h-7v-7h7V469.3z M457.4,272.7v-7h7v7H457.4z"/>
		<path d="M362.6,290.3h-77.2c-1.9,0-3.5,1.6-3.5,3.5V371c0,1.9,1.6,3.5,3.5,3.5h77.2c1.9,0,3.5-1.6,3.5-3.5v-77.2
			C366.1,291.8,364.5,290.3,362.6,290.3z M353.7,297.3L324,327.4l-29.7-30.1H353.7z M288.9,301.8l30.2,30.6l-30.2,30.6V301.8z
			 M294.2,367.5l29.7-30.1l29.7,30.1H294.2z M359.1,362.9l-30.2-30.6l30.2-30.6V362.9z"/>
		<path d="M439.8,385h-56.2c-1.9,0-3.5,1.6-3.5,3.5c0,1.9,1.6,3.5,3.5,3.5h56.2c1.9,0,3.5-1.6,3.5-3.5
			C443.3,386.6,441.8,385,439.8,385z"/>
		<path d="M439.8,395.6h-56.2c-1.9,0-3.5,1.6-3.5,3.5c0,1.9,1.6,3.5,3.5,3.5h56.2c1.9,0,3.5-1.6,3.5-3.5
			C443.3,397.1,441.8,395.6,439.8,395.6z"/>
		<path d="M439.8,406.1h-56.2c-1.9,0-3.5,1.6-3.5,3.5c0,1.9,1.6,3.5,3.5,3.5h56.2c1.9,0,3.5-1.6,3.5-3.5
			C443.3,407.7,441.8,406.1,439.8,406.1z"/>
		<path d="M439.8,416.6h-56.2c-1.9,0-3.5,1.6-3.5,3.5s1.6,3.5,3.5,3.5h56.2c1.9,0,3.5-1.6,3.5-3.5S441.8,416.6,439.8,416.6z"/>
		<path d="M411.3,427.2h-27.6c-1.9,0-3.5,1.6-3.5,3.5c0,1.9,1.6,3.5,3.5,3.5h27.6c1.9,0,3.5-1.6,3.5-3.5
			C414.8,428.7,413.2,427.2,411.3,427.2z"/>
		<path d="M425.8,427.2h-3.5c-1.9,0-3.5,1.6-3.5,3.5c0,1.9,1.6,3.5,3.5,3.5h3.5c1.9,0,3.5-1.6,3.5-3.5
			C429.3,428.7,427.7,427.2,425.8,427.2z"/>
		<path d="M439.8,290.3h-56.2c-1.9,0-3.5,1.6-3.5,3.5V378c0,1.9,1.6,3.5,3.5,3.5h56.2c1.9,0,3.5-1.6,3.5-3.5v-84.3
			C443.3,291.8,441.8,290.3,439.8,290.3z M436.3,374.5h-49.1v-77.2h49.1V374.5z"/>
	</g>
</g>
<g>
	<g>
		<path d="M171.2,414.3h-56.2c-1.9,0-3.5,1.6-3.5,3.5c0,1.9,1.6,3.5,3.5,3.5h56.2c1.9,0,3.5-1.6,3.5-3.5
			C174.7,415.9,173.2,414.3,171.2,414.3z"/>
		<path d="M177.8,424.8h-56.2c-1.9,0-3.5,1.6-3.5,3.5c0,1.9,1.6,3.5,3.5,3.5h56.2c1.9,0,3.5-1.6,3.5-3.5
			C181.4,426.4,179.8,424.8,177.8,424.8z"/>
		<path d="M160.4,435.3h-56.2c-1.9,0-3.5,1.6-3.5,3.5c0,1.9,1.6,3.5,3.5,3.5h56.2c1.9,0,3.5-1.6,3.5-3.5
			C163.9,436.9,162.3,435.3,160.4,435.3z"/>
	</g>
</g>
<g>
	<g>
		<path class="st1" d="M54.6,324h100.3v57H54.6V324z"/>
	</g>
	<g>
		<path d="M154.9,321.4H54.6c-2.6,0-4.7,1.2-4.7,2.6v57c0,1.4,2.1,2.6,4.7,2.6h100.3c2.6,0,2.6-1.2,2.6-2.6v-57
			C157.5,322.5,157.5,321.4,154.9,321.4z M143.1,326.5l-39.4,22.2l-39.4-22.2H143.1z M57.2,329.9l40,22.5l-40,22.5L57.2,329.9z
			 M64.3,378.3l39.4-22.2l39.4,22.2H64.3z M150.3,375l-40-22.5l40-22.5V375z"/>
	</g>
</g>
<g>
	<polygon class="st1" points="297.9,444.2 310.1,359.3 227.6,382.8 250.4,402.6 210.8,447.9 235.7,469.6 275.2,424.3 	"/>
	<polygon class="st2" points="284.5,413.5 296.7,328.6 214.2,352 237,371.9 197.4,417.1 222.3,438.9 261.8,393.6 	"/>
</g>
<g>
	<rect x="63" y="550.3" class="st0" width="189.5" height="84.7"/>
	<path d="M253.8,636.4H61.7V549h192.1V636.4z M64.3,633.8h186.8v-82.1H64.3V633.8z"/>
</g>
<g>
	<g>
		<g>
			
				<rect x="187" y="605.5" transform="matrix(-1 -1.224647e-16 1.224647e-16 -1 404.2408 1219.6663)" class="st1" width="30.3" height="8.7"/>
		</g>
		<g>
			<path d="M218,614.9h-31.8v-10.2H218V614.9z M187.7,613.4h28.8v-7.2h-28.8V613.4z"/>
		</g>
	</g>
	<g>
		<g>
			<rect x="142.5" y="570.3" transform="matrix(-1 -1.224647e-16 1.224647e-16 -1 315.4185 1149.2583)" width="30.3" height="8.7"/>
		</g>
	</g>
	<g>
		<g>
			
				<rect x="98.1" y="605.5" transform="matrix(-1 -1.224647e-16 1.224647e-16 -1 226.5961 1219.6663)" class="st1" width="30.3" height="8.7"/>
		</g>
		<g>
			<path d="M129.2,614.9H97.4v-10.2h31.8V614.9z M98.9,613.4h28.8v-7.2H98.9V613.4z"/>
		</g>
	</g>
	<g>
		<g>
			<polygon points="202.9,605.5 201.4,605.5 201.4,597 112.8,597 112.8,605.5 111.3,605.5 111.3,595.5 202.9,595.5 			"/>
		</g>
	</g>
	<g>
		<g>
			<line class="st3" x1="157.7" y1="579" x2="157.7" y2="596.3"/>
		</g>
		<g>
			<rect x="157" y="579" width="1.5" height="17.3"/>
		</g>
	</g>
</g>
</svg>
