<?xml version="1.0" encoding="utf-8"?>
<!-- Generator: Adobe Illustrator 25.0.0, SVG Export Plug-In . SVG Version: 6.00 Build 0)  -->
<svg version="1.1" id="Layer_1" xmlns="http://www.w3.org/2000/svg" xmlns:xlink="http://www.w3.org/1999/xlink" x="0px" y="0px"
	 viewBox="0 0 1500 500" style="enable-background:new 0 0 1500 500;" xml:space="preserve">
<style type="text/css">
	.st0{fill:#FCF09D;}
	.st1{fill:#FFFFFF;}
	.st2{fill:#010101;}
</style>
<g>
	<g>
		<polygon class="st0" points="55.6,49.9 58.3,31.2 40.1,36.4 45.1,40.7 36.4,50.7 41.9,55.5 50.6,45.5 		"/>
	</g>
	<g>
		<polygon class="st1" points="52.6,43.1 55.3,24.4 37.1,29.6 42.1,34 33.4,43.9 38.9,48.7 47.6,38.8 		"/>
		<path class="st2" d="M39,49.4L32.7,44l8.7-10l-5.3-4.7l19.8-5.6L53,44.1l-5.3-4.7L39,49.4z M34.1,43.9l4.7,4.1l8.7-10l4.7,4.1
			l2.4-17.1l-16.6,4.7l4.7,4.1L34.1,43.9z"/>
	</g>
</g>
<g>
	<g>
		<polygon class="st0" points="127.5,49.9 130.2,31.2 112,36.4 117,40.7 108.3,50.7 113.8,55.5 122.5,45.5 		"/>
	</g>
	<g>
		<polygon class="st1" points="124.6,43.1 127.3,24.4 109.1,29.6 114.1,34 105.4,43.9 110.9,48.7 119.6,38.8 		"/>
		<path class="st2" d="M110.9,49.4l-6.2-5.4l8.7-10l-5.3-4.7l19.8-5.6L125,44.1l-5.3-4.7L110.9,49.4z M106.1,43.9l4.7,4.1l8.7-10
			l4.7,4.1l2.4-17.1l-16.6,4.7l4.7,4.1L106.1,43.9z"/>
	</g>
</g>
<g>
	<g>
		<polygon class="st0" points="199.5,49.9 202.2,31.2 184,36.4 189,40.7 180.3,50.7 185.8,55.5 194.5,45.5 		"/>
	</g>
	<g>
		<polygon class="st1" points="196.5,43.1 199.2,24.4 181,29.6 186,34 177.3,43.9 182.8,48.7 191.5,38.8 		"/>
		<path class="st2" d="M182.8,49.4l-6.2-5.4l8.7-10l-5.3-4.7l19.8-5.6l-2.9,20.4l-5.3-4.7L182.8,49.4z M178,43.9l4.7,4.1l8.7-10
			l4.7,4.1l2.4-17.1L182,29.8l4.7,4.1L178,43.9z"/>
	</g>
</g>
<g>
	<g>
		<polygon class="st0" points="271.4,49.9 274.1,31.2 255.9,36.4 260.9,40.7 252.2,50.7 257.7,55.5 266.4,45.5 		"/>
	</g>
	<g>
		<polygon class="st1" points="268.5,43.1 271.2,24.4 253,29.6 258,34 249.3,43.9 254.7,48.7 263.5,38.8 		"/>
		<path class="st2" d="M254.8,49.4l-6.2-5.4l8.7-10l-5.3-4.7l19.8-5.6l-2.9,20.4l-5.3-4.7L254.8,49.4z M250,43.9l4.7,4.1l8.7-10
			l4.7,4.1l2.4-17.1L254,29.8l4.7,4.1L250,43.9z"/>
	</g>
</g>
<g>
	<g>
		<polygon class="st0" points="343.4,49.9 346.1,31.2 327.9,36.4 332.9,40.7 324.2,50.7 329.6,55.5 338.4,45.5 		"/>
	</g>
	<g>
		<polygon class="st1" points="340.4,43.1 343.1,24.4 324.9,29.6 329.9,34 321.2,43.9 326.7,48.7 335.4,38.8 		"/>
		<path class="st2" d="M326.7,49.4l-6.2-5.4l8.7-10l-5.3-4.7l19.8-5.6l-2.9,20.4l-5.3-4.7L326.7,49.4z M321.9,43.9l4.7,4.1l8.7-10
			l4.7,4.1l2.4-17.1l-16.6,4.7l4.7,4.1L321.9,43.9z"/>
	</g>
</g>
<g>
	<g>
		<polygon class="st0" points="415.3,49.9 418,31.2 399.8,36.4 404.8,40.7 396.1,50.7 401.6,55.5 410.3,45.5 		"/>
	</g>
	<g>
		<polygon class="st1" points="412.4,43.1 415,24.4 396.9,29.6 401.9,34 393.2,43.9 398.6,48.7 407.4,38.8 		"/>
		<path class="st2" d="M398.7,49.4l-6.2-5.4l8.7-10l-5.3-4.7l19.8-5.6l-2.9,20.4l-5.3-4.7L398.7,49.4z M393.9,43.9l4.7,4.1l8.7-10
			l4.7,4.1l2.4-17.1l-16.6,4.7l4.7,4.1L393.9,43.9z"/>
	</g>
</g>
<g>
	<g>
		<polygon class="st0" points="487.3,49.9 490,31.2 471.8,36.4 476.8,40.7 468.1,50.7 473.5,55.5 482.3,45.5 		"/>
	</g>
	<g>
		<polygon class="st1" points="484.3,43.1 487,24.4 468.8,29.6 473.8,34 465.1,43.9 470.6,48.7 479.3,38.8 		"/>
		<path class="st2" d="M470.6,49.4l-6.2-5.4l8.7-10l-5.3-4.7l19.8-5.6l-2.9,20.4l-5.3-4.7L470.6,49.4z M465.8,43.9l4.7,4.1l8.7-10
			l4.7,4.1l2.4-17.1l-16.6,4.7l4.7,4.1L465.8,43.9z"/>
	</g>
</g>
<g>
	<g>
		<polygon class="st0" points="559.2,49.9 561.9,31.2 543.7,36.4 548.7,40.7 540,50.7 545.5,55.5 554.2,45.5 		"/>
	</g>
	<g>
		<polygon class="st1" points="556.3,43.1 558.9,24.4 540.7,29.6 545.8,34 537,43.9 542.5,48.7 551.2,38.8 		"/>
		<path class="st2" d="M542.6,49.4l-6.2-5.4l8.7-10l-5.3-4.7l19.8-5.6l-2.9,20.4l-5.3-4.7L542.6,49.4z M537.8,43.9l4.7,4.1l8.7-10
			l4.7,4.1l2.4-17.1l-16.6,4.7l4.7,4.1L537.8,43.9z"/>
	</g>
</g>
<g>
	<g>
		<polygon class="st0" points="631.2,49.9 633.8,31.2 615.6,36.4 620.7,40.7 611.9,50.7 617.4,55.5 626.1,45.5 		"/>
	</g>
	<g>
		<polygon class="st1" points="628.2,43.1 630.9,24.4 612.7,29.6 617.7,34 609,43.9 614.5,48.7 623.2,38.8 		"/>
		<path class="st2" d="M614.5,49.4l-6.2-5.4l8.7-10l-5.3-4.7l19.8-5.6l-2.9,20.4l-5.3-4.7L614.5,49.4z M609.7,43.9l4.7,4.1l8.7-10
			l4.7,4.1l2.4-17.1l-16.6,4.7l4.7,4.1L609.7,43.9z"/>
	</g>
</g>
<g>
	<g>
		<polygon class="st0" points="703.1,49.9 705.8,31.2 687.6,36.4 692.6,40.7 683.9,50.7 689.4,55.5 698.1,45.5 		"/>
	</g>
	<g>
		<polygon class="st1" points="700.1,43.1 702.8,24.4 684.6,29.6 689.7,34 680.9,43.9 686.4,48.7 695.1,38.8 		"/>
		<path class="st2" d="M686.5,49.4l-6.2-5.4l8.7-10l-5.3-4.7l19.8-5.6l-2.9,20.4l-5.3-4.7L686.5,49.4z M681.6,43.9l4.7,4.1l8.7-10
			l4.7,4.1l2.4-17.1l-16.6,4.7l4.7,4.1L681.6,43.9z"/>
	</g>
</g>
<g>
	<g>
		<polygon class="st0" points="775.1,49.9 777.7,31.2 759.5,36.4 764.6,40.7 755.8,50.7 761.3,55.5 770,45.5 		"/>
	</g>
	<g>
		<polygon class="st1" points="772.1,43.1 774.8,24.4 756.6,29.6 761.6,34 752.9,43.9 758.4,48.7 767.1,38.8 		"/>
		<path class="st2" d="M758.4,49.4l-6.2-5.4l8.7-10l-5.3-4.7l19.8-5.6l-2.9,20.4l-5.3-4.7L758.4,49.4z M753.6,43.9l4.7,4.1l8.7-10
			l4.7,4.1l2.4-17.1l-16.6,4.7l4.7,4.1L753.6,43.9z"/>
	</g>
</g>
<g>
	<g>
		<polygon class="st0" points="847,49.9 849.7,31.2 831.5,36.4 836.5,40.7 827.8,50.7 833.3,55.5 842,45.5 		"/>
	</g>
	<g>
		<polygon class="st1" points="844,43.1 846.7,24.4 828.5,29.6 833.5,34 824.8,43.9 830.3,48.7 839,38.8 		"/>
		<path class="st2" d="M830.4,49.4l-6.2-5.4l8.7-10l-5.3-4.7l19.8-5.6l-2.9,20.4l-5.3-4.7L830.4,49.4z M825.5,43.9l4.7,4.1l8.7-10
			l4.7,4.1l2.4-17.1l-16.6,4.7l4.7,4.1L825.5,43.9z"/>
	</g>
</g>
<g>
	<g>
		<polygon class="st0" points="918.9,49.9 921.6,31.2 903.4,36.4 908.4,40.7 899.7,50.7 905.2,55.5 913.9,45.5 		"/>
	</g>
	<g>
		<polygon class="st1" points="916,43.1 918.7,24.4 900.5,29.6 905.5,34 896.8,43.9 902.3,48.7 911,38.8 		"/>
		<path class="st2" d="M902.3,49.4l-6.2-5.4l8.7-10l-5.3-4.7l19.8-5.6l-2.9,20.4l-5.3-4.7L902.3,49.4z M897.5,43.9l4.7,4.1l8.7-10
			l4.7,4.1l2.4-17.1l-16.6,4.7l4.7,4.1L897.5,43.9z"/>
	</g>
</g>
<g>
	<g>
		<polygon class="st0" points="88.7,95.3 91.4,76.6 73.2,81.8 78.2,86.2 69.5,96.1 75,100.9 83.7,91 		"/>
	</g>
	<g>
		<polygon class="st1" points="85.8,88.6 88.5,69.8 70.3,75 75.3,79.4 66.6,89.4 72.1,94.2 80.8,84.2 		"/>
		<path class="st2" d="M72.1,94.9l-6.2-5.4l8.7-10l-5.3-4.7l19.8-5.6l-2.9,20.4l-5.3-4.7L72.1,94.9z M67.3,89.3l4.7,4.1l8.7-10
			l4.7,4.1l2.4-17.1l-16.6,4.7l4.7,4.1L67.3,89.3z"/>
	</g>
</g>
<g>
	<g>
		<polygon class="st0" points="160.7,95.3 163.4,76.6 145.2,81.8 150.2,86.2 141.5,96.1 147,100.9 155.7,91 		"/>
	</g>
	<g>
		<polygon class="st1" points="157.7,88.6 160.4,69.8 142.2,75 147.2,79.4 138.5,89.4 144,94.2 152.7,84.2 		"/>
		<path class="st2" d="M144,94.9l-6.2-5.4l8.7-10l-5.3-4.7l19.8-5.6l-2.9,20.4l-5.3-4.7L144,94.9z M139.2,89.3l4.7,4.1l8.7-10
			l4.7,4.1l2.4-17.1l-16.6,4.7l4.7,4.1L139.2,89.3z"/>
	</g>
</g>
<g>
	<g>
		<polygon class="st0" points="232.6,95.3 235.3,76.6 217.1,81.8 222.1,86.2 213.4,96.1 218.9,100.9 227.6,91 		"/>
	</g>
	<g>
		<polygon class="st1" points="229.7,88.6 232.4,69.8 214.2,75 219.2,79.4 210.5,89.4 215.9,94.2 224.7,84.2 		"/>
		<path class="st2" d="M216,94.9l-6.2-5.4l8.7-10l-5.3-4.7l19.8-5.6L230,89.5l-5.3-4.7L216,94.9z M211.2,89.3l4.7,4.1l8.7-10
			l4.7,4.1l2.4-17.1l-16.6,4.7l4.7,4.1L211.2,89.3z"/>
	</g>
</g>
<g>
	<g>
		<polygon class="st0" points="304.6,95.3 307.3,76.6 289.1,81.8 294.1,86.2 285.4,96.1 290.8,100.9 299.6,91 		"/>
	</g>
	<g>
		<polygon class="st1" points="301.6,88.6 304.3,69.8 286.1,75 291.1,79.4 282.4,89.4 287.9,94.2 296.6,84.2 		"/>
		<path class="st2" d="M287.9,94.9l-6.2-5.4l8.7-10l-5.3-4.7l19.8-5.6L302,89.5l-5.3-4.7L287.9,94.9z M283.1,89.3l4.7,4.1l8.7-10
			l4.7,4.1l2.4-17.1l-16.6,4.7l4.7,4.1L283.1,89.3z"/>
	</g>
</g>
<g>
	<g>
		<polygon class="st0" points="376.5,95.3 379.2,76.6 361,81.8 366,86.2 357.3,96.1 362.8,100.9 371.5,91 		"/>
	</g>
	<g>
		<polygon class="st1" points="373.6,88.6 376.2,69.8 358.1,75 363.1,79.4 354.4,89.4 359.8,94.2 368.6,84.2 		"/>
		<path class="st2" d="M359.9,94.9l-6.2-5.4l8.7-10l-5.3-4.7l19.8-5.6l-2.9,20.4l-5.3-4.7L359.9,94.9z M355.1,89.3l4.7,4.1l8.7-10
			l4.7,4.1l2.4-17.1l-16.6,4.7l4.7,4.1L355.1,89.3z"/>
	</g>
</g>
<g>
	<g>
		<polygon class="st0" points="448.5,95.3 451.1,76.6 433,81.8 438,86.2 429.3,96.1 434.7,100.9 443.5,91 		"/>
	</g>
	<g>
		<polygon class="st1" points="445.5,88.6 448.2,69.8 430,75 435,79.4 426.3,89.4 431.8,94.2 440.5,84.2 		"/>
		<path class="st2" d="M431.8,94.9l-6.2-5.4l8.7-10l-5.3-4.7l19.8-5.6l-2.9,20.4l-5.3-4.7L431.8,94.9z M427,89.3l4.7,4.1l8.7-10
			l4.7,4.1l2.4-17.1L431,75.2l4.7,4.1L427,89.3z"/>
	</g>
</g>
<g>
	<g>
		<polygon class="st0" points="520.4,95.3 523.1,76.6 504.9,81.8 509.9,86.2 501.2,96.1 506.7,100.9 515.4,91 		"/>
	</g>
	<g>
		<polygon class="st1" points="517.5,88.6 520.1,69.8 501.9,75 507,79.4 498.2,89.4 503.7,94.2 512.4,84.2 		"/>
		<path class="st2" d="M503.8,94.9l-6.2-5.4l8.7-10l-5.3-4.7l19.8-5.6l-2.9,20.4l-5.3-4.7L503.8,94.9z M499,89.3l4.7,4.1l8.7-10
			l4.7,4.1l2.4-17.1L503,75.2l4.7,4.1L499,89.3z"/>
	</g>
</g>
<g>
	<g>
		<polygon class="st0" points="592.4,95.3 595,76.6 576.8,81.8 581.9,86.2 573.1,96.1 578.6,100.9 587.3,91 		"/>
	</g>
	<g>
		<polygon class="st1" points="589.4,88.6 592.1,69.8 573.9,75 578.9,79.4 570.2,89.4 575.7,94.2 584.4,84.2 		"/>
		<path class="st2" d="M575.7,94.9l-6.2-5.4l8.7-10l-5.3-4.7l19.8-5.6l-2.9,20.4l-5.3-4.7L575.7,94.9z M570.9,89.3l4.7,4.1l8.7-10
			l4.7,4.1l2.4-17.1l-16.6,4.7l4.7,4.1L570.9,89.3z"/>
	</g>
</g>
<g>
	<g>
		<polygon class="st0" points="664.3,95.3 667,76.6 648.8,81.8 653.8,86.2 645.1,96.1 650.6,100.9 659.3,91 		"/>
	</g>
	<g>
		<polygon class="st1" points="661.3,88.6 664,69.8 645.8,75 650.9,79.4 642.1,89.4 647.6,94.2 656.3,84.2 		"/>
		<path class="st2" d="M647.7,94.9l-6.2-5.4l8.7-10l-5.3-4.7l19.8-5.6l-2.9,20.4l-5.3-4.7L647.7,94.9z M642.8,89.3l4.7,4.1l8.7-10
			l4.7,4.1l2.4-17.1l-16.6,4.7l4.7,4.1L642.8,89.3z"/>
	</g>
</g>
<g>
	<g>
		<polygon class="st0" points="736.2,95.3 738.9,76.6 720.7,81.8 725.8,86.2 717,96.1 722.5,100.9 731.2,91 		"/>
	</g>
	<g>
		<polygon class="st1" points="733.3,88.6 736,69.8 717.8,75 722.8,79.4 714.1,89.4 719.6,94.2 728.3,84.2 		"/>
		<path class="st2" d="M719.6,94.9l-6.2-5.4l8.7-10l-5.3-4.7l19.8-5.6l-2.9,20.4l-5.3-4.7L719.6,94.9z M714.8,89.3l4.7,4.1l8.7-10
			l4.7,4.1l2.4-17.1l-16.6,4.7l4.7,4.1L714.8,89.3z"/>
	</g>
</g>
<g>
	<g>
		<polygon class="st0" points="808.2,95.3 810.9,76.6 792.7,81.8 797.7,86.2 789,96.1 794.5,100.9 803.2,91 		"/>
	</g>
	<g>
		<polygon class="st1" points="805.2,88.6 807.9,69.8 789.7,75 794.7,79.4 786,89.4 791.5,94.2 800.2,84.2 		"/>
		<path class="st2" d="M791.6,94.9l-6.2-5.4l8.7-10l-5.3-4.7l19.8-5.6l-2.9,20.4l-5.3-4.7L791.6,94.9z M786.7,89.3l4.7,4.1l8.7-10
			l4.7,4.1l2.4-17.1l-16.6,4.7l4.7,4.1L786.7,89.3z"/>
	</g>
</g>
<g>
	<g>
		<polygon class="st0" points="880.1,95.3 882.8,76.6 864.6,81.8 869.6,86.2 860.9,96.1 866.4,100.9 875.1,91 		"/>
	</g>
	<g>
		<polygon class="st1" points="877.2,88.6 879.9,69.8 861.7,75 866.7,79.4 858,89.4 863.5,94.2 872.2,84.2 		"/>
		<path class="st2" d="M863.5,94.9l-6.2-5.4l8.7-10l-5.3-4.7l19.8-5.6l-2.9,20.4l-5.3-4.7L863.5,94.9z M858.7,89.3l4.7,4.1l8.7-10
			l4.7,4.1l2.4-17.1l-16.6,4.7l4.7,4.1L858.7,89.3z"/>
	</g>
</g>
<g>
	<g>
		<polygon class="st0" points="55.6,141.9 58.3,123.2 40.1,128.3 45.1,132.7 36.4,142.7 41.9,147.5 50.6,137.5 		"/>
	</g>
	<g>
		<polygon class="st1" points="52.6,135.1 55.3,116.4 37.1,121.6 42.1,125.9 33.4,135.9 38.9,140.7 47.6,130.7 		"/>
		<path class="st2" d="M39,141.4l-6.2-5.4l8.7-10l-5.3-4.7l19.8-5.6L53,136.1l-5.3-4.7L39,141.4z M34.1,135.9l4.7,4.1l8.7-10
			l4.7,4.1l2.4-17.1l-16.6,4.7l4.7,4.1L34.1,135.9z"/>
	</g>
</g>
<g>
	<g>
		<polygon class="st0" points="127.5,141.9 130.2,123.2 112,128.3 117,132.7 108.3,142.7 113.8,147.5 122.5,137.5 		"/>
	</g>
	<g>
		<polygon class="st1" points="124.6,135.1 127.3,116.4 109.1,121.6 114.1,125.9 105.4,135.9 110.9,140.7 119.6,130.7 		"/>
		<path class="st2" d="M110.9,141.4l-6.2-5.4l8.7-10l-5.3-4.7l19.8-5.6l-2.9,20.4l-5.3-4.7L110.9,141.4z M106.1,135.9l4.7,4.1
			l8.7-10l4.7,4.1l2.4-17.1l-16.6,4.7l4.7,4.1L106.1,135.9z"/>
	</g>
</g>
<g>
	<g>
		<polygon class="st0" points="199.5,141.9 202.2,123.2 184,128.3 189,132.7 180.3,142.7 185.8,147.5 194.5,137.5 		"/>
	</g>
	<g>
		<polygon class="st1" points="196.5,135.1 199.2,116.4 181,121.6 186,125.9 177.3,135.9 182.8,140.7 191.5,130.7 		"/>
		<path class="st2" d="M182.8,141.4l-6.2-5.4l8.7-10l-5.3-4.7l19.8-5.6l-2.9,20.4l-5.3-4.7L182.8,141.4z M178,135.9l4.7,4.1l8.7-10
			l4.7,4.1l2.4-17.1l-16.6,4.7l4.7,4.1L178,135.9z"/>
	</g>
</g>
<g>
	<g>
		<polygon class="st0" points="271.4,141.9 274.1,123.2 255.9,128.3 260.9,132.7 252.2,142.7 257.7,147.5 266.4,137.5 		"/>
	</g>
	<g>
		<polygon class="st1" points="268.5,135.1 271.2,116.4 253,121.6 258,125.9 249.3,135.9 254.7,140.7 263.5,130.7 		"/>
		<path class="st2" d="M254.8,141.4l-6.2-5.4l8.7-10l-5.3-4.7l19.8-5.6l-2.9,20.4l-5.3-4.7L254.8,141.4z M250,135.9l4.7,4.1l8.7-10
			l4.7,4.1l2.4-17.1l-16.6,4.7l4.7,4.1L250,135.9z"/>
	</g>
</g>
<g>
	<g>
		<polygon class="st0" points="343.4,141.9 346.1,123.2 327.9,128.3 332.9,132.7 324.2,142.7 329.6,147.5 338.4,137.5 		"/>
	</g>
	<g>
		<polygon class="st1" points="340.4,135.1 343.1,116.4 324.9,121.6 329.9,125.9 321.2,135.9 326.7,140.7 335.4,130.7 		"/>
		<path class="st2" d="M326.7,141.4l-6.2-5.4l8.7-10l-5.3-4.7l19.8-5.6l-2.9,20.4l-5.3-4.7L326.7,141.4z M321.9,135.9l4.7,4.1
			l8.7-10l4.7,4.1l2.4-17.1l-16.6,4.7l4.7,4.1L321.9,135.9z"/>
	</g>
</g>
<g>
	<g>
		<polygon class="st0" points="415.3,141.9 418,123.2 399.8,128.3 404.8,132.7 396.1,142.7 401.6,147.5 410.3,137.5 		"/>
	</g>
	<g>
		<polygon class="st1" points="412.4,135.1 415,116.4 396.9,121.6 401.9,125.9 393.2,135.9 398.6,140.7 407.4,130.7 		"/>
		<path class="st2" d="M398.7,141.4l-6.2-5.4l8.7-10l-5.3-4.7l19.8-5.6l-2.9,20.4l-5.3-4.7L398.7,141.4z M393.9,135.9l4.7,4.1
			l8.7-10l4.7,4.1l2.4-17.1l-16.6,4.7l4.7,4.1L393.9,135.9z"/>
	</g>
</g>
<g>
	<g>
		<polygon class="st0" points="487.3,141.9 490,123.2 471.8,128.3 476.8,132.7 468.1,142.7 473.5,147.5 482.3,137.5 		"/>
	</g>
	<g>
		<polygon class="st1" points="484.3,135.1 487,116.4 468.8,121.6 473.8,125.9 465.1,135.9 470.6,140.7 479.3,130.7 		"/>
		<path class="st2" d="M470.6,141.4l-6.2-5.4l8.7-10l-5.3-4.7l19.8-5.6l-2.9,20.4l-5.3-4.7L470.6,141.4z M465.8,135.9l4.7,4.1
			l8.7-10l4.7,4.1l2.4-17.1l-16.6,4.7l4.7,4.1L465.8,135.9z"/>
	</g>
</g>
<g>
	<g>
		<polygon class="st0" points="559.2,141.9 561.9,123.2 543.7,128.3 548.7,132.7 540,142.7 545.5,147.5 554.2,137.5 		"/>
	</g>
	<g>
		<polygon class="st1" points="556.3,135.1 558.9,116.4 540.7,121.6 545.8,125.9 537,135.9 542.5,140.7 551.2,130.7 		"/>
		<path class="st2" d="M542.6,141.4l-6.2-5.4l8.7-10l-5.3-4.7l19.8-5.6l-2.9,20.4l-5.3-4.7L542.6,141.4z M537.8,135.9l4.7,4.1
			l8.7-10l4.7,4.1l2.4-17.1l-16.6,4.7l4.7,4.1L537.8,135.9z"/>
	</g>
</g>
<g>
	<g>
		<polygon class="st0" points="631.2,141.9 633.8,123.2 615.6,128.3 620.7,132.7 611.9,142.7 617.4,147.5 626.1,137.5 		"/>
	</g>
	<g>
		<polygon class="st1" points="628.2,135.1 630.9,116.4 612.7,121.6 617.7,125.9 609,135.9 614.5,140.7 623.2,130.7 		"/>
		<path class="st2" d="M614.5,141.4l-6.2-5.4l8.7-10l-5.3-4.7l19.8-5.6l-2.9,20.4l-5.3-4.7L614.5,141.4z M609.7,135.9l4.7,4.1
			l8.7-10l4.7,4.1l2.4-17.1l-16.6,4.7l4.7,4.1L609.7,135.9z"/>
	</g>
</g>
<g>
	<g>
		<polygon class="st0" points="703.1,141.9 705.8,123.2 687.6,128.3 692.6,132.7 683.9,142.7 689.4,147.5 698.1,137.5 		"/>
	</g>
	<g>
		<polygon class="st1" points="700.1,135.1 702.8,116.4 684.6,121.6 689.7,125.9 680.9,135.9 686.4,140.7 695.1,130.7 		"/>
		<path class="st2" d="M686.5,141.4l-6.2-5.4l8.7-10l-5.3-4.7l19.8-5.6l-2.9,20.4l-5.3-4.7L686.5,141.4z M681.6,135.9l4.7,4.1
			l8.7-10l4.7,4.1l2.4-17.1l-16.6,4.7l4.7,4.1L681.6,135.9z"/>
	</g>
</g>
<g>
	<g>
		<polygon class="st0" points="775.1,141.9 777.7,123.2 759.5,128.3 764.6,132.7 755.8,142.7 761.3,147.5 770,137.5 		"/>
	</g>
	<g>
		<polygon class="st1" points="772.1,135.1 774.8,116.4 756.6,121.6 761.6,125.9 752.9,135.9 758.4,140.7 767.1,130.7 		"/>
		<path class="st2" d="M758.4,141.4l-6.2-5.4l8.7-10l-5.3-4.7l19.8-5.6l-2.9,20.4l-5.3-4.7L758.4,141.4z M753.6,135.9l4.7,4.1
			l8.7-10l4.7,4.1l2.4-17.1l-16.6,4.7l4.7,4.1L753.6,135.9z"/>
	</g>
</g>
<g>
	<g>
		<polygon class="st0" points="847,141.9 849.7,123.2 831.5,128.3 836.5,132.7 827.8,142.7 833.3,147.5 842,137.5 		"/>
	</g>
	<g>
		<polygon class="st1" points="844,135.1 846.7,116.4 828.5,121.6 833.5,125.9 824.8,135.9 830.3,140.7 839,130.7 		"/>
		<path class="st2" d="M830.4,141.4l-6.2-5.4l8.7-10l-5.3-4.7l19.8-5.6l-2.9,20.4l-5.3-4.7L830.4,141.4z M825.5,135.9l4.7,4.1
			l8.7-10l4.7,4.1l2.4-17.1l-16.6,4.7l4.7,4.1L825.5,135.9z"/>
	</g>
</g>
<g>
	<g>
		<polygon class="st0" points="918.9,141.9 921.6,123.2 903.4,128.3 908.4,132.7 899.7,142.7 905.2,147.5 913.9,137.5 		"/>
	</g>
	<g>
		<polygon class="st1" points="916,135.1 918.7,116.4 900.5,121.6 905.5,125.9 896.8,135.9 902.3,140.7 911,130.7 		"/>
		<path class="st2" d="M902.3,141.4l-6.2-5.4l8.7-10l-5.3-4.7l19.8-5.6l-2.9,20.4l-5.3-4.7L902.3,141.4z M897.5,135.9l4.7,4.1
			l8.7-10l4.7,4.1l2.4-17.1l-16.6,4.7l4.7,4.1L897.5,135.9z"/>
	</g>
</g>
<g>
	<g>
		<polygon class="st0" points="88.7,187.3 91.4,168.6 73.2,173.8 78.2,178.1 69.5,188.1 75,192.9 83.7,182.9 		"/>
	</g>
	<g>
		<polygon class="st1" points="85.8,180.5 88.5,161.8 70.3,167 75.3,171.4 66.6,181.3 72.1,186.1 80.8,176.2 		"/>
		<path class="st2" d="M72.1,186.8l-6.2-5.4l8.7-10l-5.3-4.7l19.8-5.6l-2.9,20.4l-5.3-4.7L72.1,186.8z M67.3,181.3l4.7,4.1l8.7-10
			l4.7,4.1l2.4-17.1l-16.6,4.7l4.7,4.1L67.3,181.3z"/>
	</g>
</g>
<g>
	<g>
		<polygon class="st0" points="160.7,187.3 163.4,168.6 145.2,173.8 150.2,178.1 141.5,188.1 147,192.9 155.7,182.9 		"/>
	</g>
	<g>
		<polygon class="st1" points="157.7,180.5 160.4,161.8 142.2,167 147.2,171.4 138.5,181.3 144,186.1 152.7,176.2 		"/>
		<path class="st2" d="M144,186.8l-6.2-5.4l8.7-10l-5.3-4.7l19.8-5.6l-2.9,20.4l-5.3-4.7L144,186.8z M139.2,181.3l4.7,4.1l8.7-10
			l4.7,4.1l2.4-17.1l-16.6,4.7l4.7,4.1L139.2,181.3z"/>
	</g>
</g>
<g>
	<g>
		<polygon class="st0" points="232.6,187.3 235.3,168.6 217.1,173.8 222.1,178.1 213.4,188.1 218.9,192.9 227.6,182.9 		"/>
	</g>
	<g>
		<polygon class="st1" points="229.7,180.5 232.4,161.8 214.2,167 219.2,171.4 210.5,181.3 215.9,186.1 224.7,176.2 		"/>
		<path class="st2" d="M216,186.8l-6.2-5.4l8.7-10l-5.3-4.7l19.8-5.6l-2.9,20.4l-5.3-4.7L216,186.8z M211.2,181.3l4.7,4.1l8.7-10
			l4.7,4.1l2.4-17.1l-16.6,4.7l4.7,4.1L211.2,181.3z"/>
	</g>
</g>
<g>
	<g>
		<polygon class="st0" points="304.6,187.3 307.3,168.6 289.1,173.8 294.1,178.1 285.4,188.1 290.8,192.9 299.6,182.9 		"/>
	</g>
	<g>
		<polygon class="st1" points="301.6,180.5 304.3,161.8 286.1,167 291.1,171.4 282.4,181.3 287.9,186.1 296.6,176.2 		"/>
		<path class="st2" d="M287.9,186.8l-6.2-5.4l8.7-10l-5.3-4.7l19.8-5.6l-2.9,20.4l-5.3-4.7L287.9,186.8z M283.1,181.3l4.7,4.1
			l8.7-10l4.7,4.1l2.4-17.1l-16.6,4.7l4.7,4.1L283.1,181.3z"/>
	</g>
</g>
<g>
	<g>
		<polygon class="st0" points="376.5,187.3 379.2,168.6 361,173.8 366,178.1 357.3,188.1 362.8,192.9 371.5,182.9 		"/>
	</g>
	<g>
		<polygon class="st1" points="373.6,180.5 376.2,161.8 358.1,167 363.1,171.4 354.4,181.3 359.8,186.1 368.6,176.2 		"/>
		<path class="st2" d="M359.9,186.8l-6.2-5.4l8.7-10l-5.3-4.7l19.8-5.6l-2.9,20.4l-5.3-4.7L359.9,186.8z M355.1,181.3l4.7,4.1
			l8.7-10l4.7,4.1l2.4-17.1l-16.6,4.7l4.7,4.1L355.1,181.3z"/>
	</g>
</g>
<g>
	<g>
		<polygon class="st0" points="448.5,187.3 451.1,168.6 433,173.8 438,178.1 429.3,188.1 434.7,192.9 443.5,182.9 		"/>
	</g>
	<g>
		<polygon class="st1" points="445.5,180.5 448.2,161.8 430,167 435,171.4 426.3,181.3 431.8,186.1 440.5,176.2 		"/>
		<path class="st2" d="M431.8,186.8l-6.2-5.4l8.7-10l-5.3-4.7l19.8-5.6l-2.9,20.4l-5.3-4.7L431.8,186.8z M427,181.3l4.7,4.1l8.7-10
			l4.7,4.1l2.4-17.1l-16.6,4.7l4.7,4.1L427,181.3z"/>
	</g>
</g>
<g>
	<g>
		<polygon class="st0" points="520.4,187.3 523.1,168.6 504.9,173.8 509.9,178.1 501.2,188.1 506.7,192.9 515.4,182.9 		"/>
	</g>
	<g>
		<polygon class="st1" points="517.5,180.5 520.1,161.8 501.9,167 507,171.4 498.2,181.3 503.7,186.1 512.4,176.2 		"/>
		<path class="st2" d="M503.8,186.8l-6.2-5.4l8.7-10l-5.3-4.7l19.8-5.6l-2.9,20.4l-5.3-4.7L503.8,186.8z M499,181.3l4.7,4.1l8.7-10
			l4.7,4.1l2.4-17.1l-16.6,4.7l4.7,4.1L499,181.3z"/>
	</g>
</g>
<g>
	<g>
		<polygon class="st0" points="592.4,187.3 595,168.6 576.8,173.8 581.9,178.1 573.1,188.1 578.6,192.9 587.3,182.9 		"/>
	</g>
	<g>
		<polygon class="st1" points="589.4,180.5 592.1,161.8 573.9,167 578.9,171.4 570.2,181.3 575.7,186.1 584.4,176.2 		"/>
		<path class="st2" d="M575.7,186.8l-6.2-5.4l8.7-10l-5.3-4.7l19.8-5.6l-2.9,20.4l-5.3-4.7L575.7,186.8z M570.9,181.3l4.7,4.1
			l8.7-10l4.7,4.1l2.4-17.1l-16.6,4.7l4.7,4.1L570.9,181.3z"/>
	</g>
</g>
<g>
	<g>
		<polygon class="st0" points="664.3,187.3 667,168.6 648.8,173.8 653.8,178.1 645.1,188.1 650.6,192.9 659.3,182.9 		"/>
	</g>
	<g>
		<polygon class="st1" points="661.3,180.5 664,161.8 645.8,167 650.9,171.4 642.1,181.3 647.6,186.1 656.3,176.2 		"/>
		<path class="st2" d="M647.7,186.8l-6.2-5.4l8.7-10l-5.3-4.7l19.8-5.6l-2.9,20.4l-5.3-4.7L647.7,186.8z M642.8,181.3l4.7,4.1
			l8.7-10l4.7,4.1l2.4-17.1l-16.6,4.7l4.7,4.1L642.8,181.3z"/>
	</g>
</g>
<g>
	<g>
		<polygon class="st0" points="736.2,187.3 738.9,168.6 720.7,173.8 725.8,178.1 717,188.1 722.5,192.9 731.2,182.9 		"/>
	</g>
	<g>
		<polygon class="st1" points="733.3,180.5 736,161.8 717.8,167 722.8,171.4 714.1,181.3 719.6,186.1 728.3,176.2 		"/>
		<path class="st2" d="M719.6,186.8l-6.2-5.4l8.7-10l-5.3-4.7l19.8-5.6l-2.9,20.4l-5.3-4.7L719.6,186.8z M714.8,181.3l4.7,4.1
			l8.7-10l4.7,4.1l2.4-17.1l-16.6,4.7l4.7,4.1L714.8,181.3z"/>
	</g>
</g>
<g>
	<g>
		<polygon class="st0" points="808.2,187.3 810.9,168.6 792.7,173.8 797.7,178.1 789,188.1 794.5,192.9 803.2,182.9 		"/>
	</g>
	<g>
		<polygon class="st1" points="805.2,180.5 807.9,161.8 789.7,167 794.7,171.4 786,181.3 791.5,186.1 800.2,176.2 		"/>
		<path class="st2" d="M791.6,186.8l-6.2-5.4l8.7-10l-5.3-4.7l19.8-5.6l-2.9,20.4l-5.3-4.7L791.6,186.8z M786.7,181.3l4.7,4.1
			l8.7-10l4.7,4.1l2.4-17.1l-16.6,4.7l4.7,4.1L786.7,181.3z"/>
	</g>
</g>
<g>
	<g>
		<polygon class="st0" points="880.1,187.3 882.8,168.6 864.6,173.8 869.6,178.1 860.9,188.1 866.4,192.9 875.1,182.9 		"/>
	</g>
	<g>
		<polygon class="st1" points="877.2,180.5 879.9,161.8 861.7,167 866.7,171.4 858,181.3 863.5,186.1 872.2,176.2 		"/>
		<path class="st2" d="M863.5,186.8l-6.2-5.4l8.7-10l-5.3-4.7l19.8-5.6l-2.9,20.4l-5.3-4.7L863.5,186.8z M858.7,181.3l4.7,4.1
			l8.7-10l4.7,4.1l2.4-17.1l-16.6,4.7l4.7,4.1L858.7,181.3z"/>
	</g>
</g>
<g>
	<g>
		<polygon class="st0" points="55.6,233.9 58.3,215.1 40.1,220.3 45.1,224.7 36.4,234.7 41.9,239.5 50.6,229.5 		"/>
	</g>
	<g>
		<polygon class="st1" points="52.6,227.1 55.3,208.4 37.1,213.5 42.1,217.9 33.4,227.9 38.9,232.7 47.6,222.7 		"/>
		<path class="st2" d="M39,233.4l-6.2-5.4l8.7-10l-5.3-4.7l19.8-5.6L53,228.1l-5.3-4.7L39,233.4z M34.1,227.8l4.7,4.1l8.7-10
			l4.7,4.1l2.4-17.1l-16.6,4.7l4.7,4.1L34.1,227.8z"/>
	</g>
</g>
<g>
	<g>
		<polygon class="st0" points="127.5,233.9 130.2,215.1 112,220.3 117,224.7 108.3,234.7 113.8,239.5 122.5,229.5 		"/>
	</g>
	<g>
		<polygon class="st1" points="124.6,227.1 127.3,208.4 109.1,213.5 114.1,217.9 105.4,227.9 110.9,232.7 119.6,222.7 		"/>
		<path class="st2" d="M110.9,233.4l-6.2-5.4l8.7-10l-5.3-4.7l19.8-5.6l-2.9,20.4l-5.3-4.7L110.9,233.4z M106.1,227.8l4.7,4.1
			l8.7-10l4.7,4.1l2.4-17.1l-16.6,4.7l4.7,4.1L106.1,227.8z"/>
	</g>
</g>
<g>
	<g>
		<polygon class="st0" points="199.5,233.9 202.2,215.1 184,220.3 189,224.7 180.3,234.7 185.8,239.5 194.5,229.5 		"/>
	</g>
	<g>
		<polygon class="st1" points="196.5,227.1 199.2,208.4 181,213.5 186,217.9 177.3,227.9 182.8,232.7 191.5,222.7 		"/>
		<path class="st2" d="M182.8,233.4l-6.2-5.4l8.7-10l-5.3-4.7l19.8-5.6l-2.9,20.4l-5.3-4.7L182.8,233.4z M178,227.8l4.7,4.1l8.7-10
			l4.7,4.1l2.4-17.1l-16.6,4.7l4.7,4.1L178,227.8z"/>
	</g>
</g>
<g>
	<g>
		<polygon class="st0" points="271.4,233.9 274.1,215.1 255.9,220.3 260.9,224.7 252.2,234.7 257.7,239.5 266.4,229.5 		"/>
	</g>
	<g>
		<polygon class="st1" points="268.5,227.1 271.2,208.4 253,213.5 258,217.9 249.3,227.9 254.7,232.7 263.5,222.7 		"/>
		<path class="st2" d="M254.8,233.4l-6.2-5.4l8.7-10l-5.3-4.7l19.8-5.6l-2.9,20.4l-5.3-4.7L254.8,233.4z M250,227.8l4.7,4.1l8.7-10
			l4.7,4.1l2.4-17.1l-16.6,4.7l4.7,4.1L250,227.8z"/>
	</g>
</g>
<g>
	<g>
		<polygon class="st0" points="343.4,233.9 346.1,215.1 327.9,220.3 332.9,224.7 324.2,234.7 329.6,239.5 338.4,229.5 		"/>
	</g>
	<g>
		<polygon class="st1" points="340.4,227.1 343.1,208.4 324.9,213.5 329.9,217.9 321.2,227.9 326.7,232.7 335.4,222.7 		"/>
		<path class="st2" d="M326.7,233.4l-6.2-5.4l8.7-10l-5.3-4.7l19.8-5.6l-2.9,20.4l-5.3-4.7L326.7,233.4z M321.9,227.8l4.7,4.1
			l8.7-10l4.7,4.1l2.4-17.1l-16.6,4.7l4.7,4.1L321.9,227.8z"/>
	</g>
</g>
<g>
	<g>
		<polygon class="st0" points="415.3,233.9 418,215.1 399.8,220.3 404.8,224.7 396.1,234.7 401.6,239.5 410.3,229.5 		"/>
	</g>
	<g>
		<polygon class="st1" points="412.4,227.1 415,208.4 396.9,213.5 401.9,217.9 393.2,227.9 398.6,232.7 407.4,222.7 		"/>
		<path class="st2" d="M398.7,233.4l-6.2-5.4l8.7-10l-5.3-4.7l19.8-5.6l-2.9,20.4l-5.3-4.7L398.7,233.4z M393.9,227.8l4.7,4.1
			l8.7-10l4.7,4.1l2.4-17.1l-16.6,4.7l4.7,4.1L393.9,227.8z"/>
	</g>
</g>
<g>
	<g>
		<polygon class="st0" points="487.3,233.9 490,215.1 471.8,220.3 476.8,224.7 468.1,234.7 473.5,239.5 482.3,229.5 		"/>
	</g>
	<g>
		<polygon class="st1" points="484.3,227.1 487,208.4 468.8,213.5 473.8,217.9 465.1,227.9 470.6,232.7 479.3,222.7 		"/>
		<path class="st2" d="M470.6,233.4l-6.2-5.4l8.7-10l-5.3-4.7l19.8-5.6l-2.9,20.4l-5.3-4.7L470.6,233.4z M465.8,227.8l4.7,4.1
			l8.7-10l4.7,4.1l2.4-17.1l-16.6,4.7l4.7,4.1L465.8,227.8z"/>
	</g>
</g>
<g>
	<g>
		<polygon class="st0" points="559.2,233.9 561.9,215.1 543.7,220.3 548.7,224.7 540,234.7 545.5,239.5 554.2,229.5 		"/>
	</g>
	<g>
		<polygon class="st1" points="556.3,227.1 558.9,208.4 540.7,213.5 545.8,217.9 537,227.9 542.5,232.7 551.2,222.7 		"/>
		<path class="st2" d="M542.6,233.4l-6.2-5.4l8.7-10l-5.3-4.7l19.8-5.6l-2.9,20.4l-5.3-4.7L542.6,233.4z M537.8,227.8l4.7,4.1
			l8.7-10l4.7,4.1l2.4-17.1l-16.6,4.7l4.7,4.1L537.8,227.8z"/>
	</g>
</g>
<g>
	<g>
		<polygon class="st0" points="631.2,233.9 633.8,215.1 615.6,220.3 620.7,224.7 611.9,234.7 617.4,239.5 626.1,229.5 		"/>
	</g>
	<g>
		<polygon class="st1" points="628.2,227.1 630.9,208.4 612.7,213.5 617.7,217.9 609,227.9 614.5,232.7 623.2,222.7 		"/>
		<path class="st2" d="M614.5,233.4l-6.2-5.4l8.7-10l-5.3-4.7l19.8-5.6l-2.9,20.4l-5.3-4.7L614.5,233.4z M609.7,227.8l4.7,4.1
			l8.7-10l4.7,4.1l2.4-17.1l-16.6,4.7l4.7,4.1L609.7,227.8z"/>
	</g>
</g>
<g>
	<g>
		<polygon class="st0" points="703.1,233.9 705.8,215.1 687.6,220.3 692.6,224.7 683.9,234.7 689.4,239.5 698.1,229.5 		"/>
	</g>
	<g>
		<polygon class="st1" points="700.1,227.1 702.8,208.4 684.6,213.5 689.7,217.9 680.9,227.9 686.4,232.7 695.1,222.7 		"/>
		<path class="st2" d="M686.5,233.4l-6.2-5.4l8.7-10l-5.3-4.7l19.8-5.6l-2.9,20.4l-5.3-4.7L686.5,233.4z M681.6,227.8l4.7,4.1
			l8.7-10l4.7,4.1l2.4-17.1l-16.6,4.7l4.7,4.1L681.6,227.8z"/>
	</g>
</g>
<g>
	<g>
		<polygon class="st0" points="775.1,233.9 777.7,215.1 759.5,220.3 764.6,224.7 755.8,234.7 761.3,239.5 770,229.5 		"/>
	</g>
	<g>
		<polygon class="st1" points="772.1,227.1 774.8,208.4 756.6,213.5 761.6,217.9 752.9,227.9 758.4,232.7 767.1,222.7 		"/>
		<path class="st2" d="M758.4,233.4l-6.2-5.4l8.7-10l-5.3-4.7l19.8-5.6l-2.9,20.4l-5.3-4.7L758.4,233.4z M753.6,227.8l4.7,4.1
			l8.7-10l4.7,4.1l2.4-17.1l-16.6,4.7l4.7,4.1L753.6,227.8z"/>
	</g>
</g>
<g>
	<g>
		<polygon class="st0" points="847,233.9 849.7,215.1 831.5,220.3 836.5,224.7 827.8,234.7 833.3,239.5 842,229.5 		"/>
	</g>
	<g>
		<polygon class="st1" points="844,227.1 846.7,208.4 828.5,213.5 833.5,217.9 824.8,227.9 830.3,232.7 839,222.7 		"/>
		<path class="st2" d="M830.4,233.4l-6.2-5.4l8.7-10l-5.3-4.7l19.8-5.6l-2.9,20.4l-5.3-4.7L830.4,233.4z M825.5,227.8l4.7,4.1
			l8.7-10l4.7,4.1l2.4-17.1l-16.6,4.7l4.7,4.1L825.5,227.8z"/>
	</g>
</g>
<g>
	<g>
		<polygon class="st0" points="918.9,233.9 921.6,215.1 903.4,220.3 908.4,224.7 899.7,234.7 905.2,239.5 913.9,229.5 		"/>
	</g>
	<g>
		<polygon class="st1" points="916,227.1 918.7,208.4 900.5,213.5 905.5,217.9 896.8,227.9 902.3,232.7 911,222.7 		"/>
		<path class="st2" d="M902.3,233.4l-6.2-5.4l8.7-10l-5.3-4.7l19.8-5.6l-2.9,20.4l-5.3-4.7L902.3,233.4z M897.5,227.8l4.7,4.1
			l8.7-10l4.7,4.1l2.4-17.1l-16.6,4.7l4.7,4.1L897.5,227.8z"/>
	</g>
</g>
<g>
	<g>
		<polygon class="st0" points="88.7,279.3 91.4,260.6 73.2,265.7 78.2,270.1 69.5,280.1 75,284.9 83.7,274.9 		"/>
	</g>
	<g>
		<polygon class="st1" points="85.8,272.5 88.5,253.8 70.3,259 75.3,263.3 66.6,273.3 72.1,278.1 80.8,268.1 		"/>
		<path class="st2" d="M72.1,278.8l-6.2-5.4l8.7-10l-5.3-4.7l19.8-5.6l-2.9,20.4l-5.3-4.7L72.1,278.8z M67.3,273.3l4.7,4.1l8.7-10
			l4.7,4.1l2.4-17.1l-16.6,4.7l4.7,4.1L67.3,273.3z"/>
	</g>
</g>
<g>
	<g>
		<polygon class="st0" points="160.7,279.3 163.4,260.6 145.2,265.7 150.2,270.1 141.5,280.1 147,284.9 155.7,274.9 		"/>
	</g>
	<g>
		<polygon class="st1" points="157.7,272.5 160.4,253.8 142.2,259 147.2,263.3 138.5,273.3 144,278.1 152.7,268.1 		"/>
		<path class="st2" d="M144,278.8l-6.2-5.4l8.7-10l-5.3-4.7l19.8-5.6l-2.9,20.4l-5.3-4.7L144,278.8z M139.2,273.3l4.7,4.1l8.7-10
			l4.7,4.1l2.4-17.1l-16.6,4.7l4.7,4.1L139.2,273.3z"/>
	</g>
</g>
<g>
	<g>
		<polygon class="st0" points="232.6,279.3 235.3,260.6 217.1,265.7 222.1,270.1 213.4,280.1 218.9,284.9 227.6,274.9 		"/>
	</g>
	<g>
		<polygon class="st1" points="229.7,272.5 232.4,253.8 214.2,259 219.2,263.3 210.5,273.3 215.9,278.1 224.7,268.1 		"/>
		<path class="st2" d="M216,278.8l-6.2-5.4l8.7-10l-5.3-4.7l19.8-5.6l-2.9,20.4l-5.3-4.7L216,278.8z M211.2,273.3l4.7,4.1l8.7-10
			l4.7,4.1l2.4-17.1l-16.6,4.7l4.7,4.1L211.2,273.3z"/>
	</g>
</g>
<g>
	<g>
		<polygon class="st0" points="304.6,279.3 307.3,260.6 289.1,265.7 294.1,270.1 285.4,280.1 290.8,284.9 299.6,274.9 		"/>
	</g>
	<g>
		<polygon class="st1" points="301.6,272.5 304.3,253.8 286.1,259 291.1,263.3 282.4,273.3 287.9,278.1 296.6,268.1 		"/>
		<path class="st2" d="M287.9,278.8l-6.2-5.4l8.7-10l-5.3-4.7l19.8-5.6l-2.9,20.4l-5.3-4.7L287.9,278.8z M283.1,273.3l4.7,4.1
			l8.7-10l4.7,4.1l2.4-17.1l-16.6,4.7l4.7,4.1L283.1,273.3z"/>
	</g>
</g>
<g>
	<g>
		<polygon class="st0" points="376.5,279.3 379.2,260.6 361,265.7 366,270.1 357.3,280.1 362.8,284.9 371.5,274.9 		"/>
	</g>
	<g>
		<polygon class="st1" points="373.6,272.5 376.2,253.8 358.1,259 363.1,263.3 354.4,273.3 359.8,278.1 368.6,268.1 		"/>
		<path class="st2" d="M359.9,278.8l-6.2-5.4l8.7-10l-5.3-4.7l19.8-5.6l-2.9,20.4l-5.3-4.7L359.9,278.8z M355.1,273.3l4.7,4.1
			l8.7-10l4.7,4.1l2.4-17.1l-16.6,4.7l4.7,4.1L355.1,273.3z"/>
	</g>
</g>
<g>
	<g>
		<polygon class="st0" points="448.5,279.3 451.1,260.6 433,265.7 438,270.1 429.3,280.1 434.7,284.9 443.5,274.9 		"/>
	</g>
	<g>
		<polygon class="st1" points="445.5,272.5 448.2,253.8 430,259 435,263.3 426.3,273.3 431.8,278.1 440.5,268.1 		"/>
		<path class="st2" d="M431.8,278.8l-6.2-5.4l8.7-10l-5.3-4.7l19.8-5.6l-2.9,20.4l-5.3-4.7L431.8,278.8z M427,273.3l4.7,4.1l8.7-10
			l4.7,4.1l2.4-17.1l-16.6,4.7l4.7,4.1L427,273.3z"/>
	</g>
</g>
<g>
	<g>
		<polygon class="st0" points="520.4,279.3 523.1,260.6 504.9,265.7 509.9,270.1 501.2,280.1 506.7,284.9 515.4,274.9 		"/>
	</g>
	<g>
		<polygon class="st1" points="517.5,272.5 520.1,253.8 501.9,259 507,263.3 498.2,273.3 503.7,278.1 512.4,268.1 		"/>
		<path class="st2" d="M503.8,278.8l-6.2-5.4l8.7-10l-5.3-4.7l19.8-5.6l-2.9,20.4l-5.3-4.7L503.8,278.8z M499,273.3l4.7,4.1l8.7-10
			l4.7,4.1l2.4-17.1l-16.6,4.7l4.7,4.1L499,273.3z"/>
	</g>
</g>
<g>
	<g>
		<polygon class="st0" points="592.4,279.3 595,260.6 576.8,265.7 581.9,270.1 573.1,280.1 578.6,284.9 587.3,274.9 		"/>
	</g>
	<g>
		<polygon class="st1" points="589.4,272.5 592.1,253.8 573.9,259 578.9,263.3 570.2,273.3 575.7,278.1 584.4,268.1 		"/>
		<path class="st2" d="M575.7,278.8l-6.2-5.4l8.7-10l-5.3-4.7l19.8-5.6l-2.9,20.4l-5.3-4.7L575.7,278.8z M570.9,273.3l4.7,4.1
			l8.7-10l4.7,4.1l2.4-17.1l-16.6,4.7l4.7,4.1L570.9,273.3z"/>
	</g>
</g>
<g>
	<g>
		<polygon class="st0" points="664.3,279.3 667,260.6 648.8,265.7 653.8,270.1 645.1,280.1 650.6,284.9 659.3,274.9 		"/>
	</g>
	<g>
		<polygon class="st1" points="661.3,272.5 664,253.8 645.8,259 650.9,263.3 642.1,273.3 647.6,278.1 656.3,268.1 		"/>
		<path class="st2" d="M647.7,278.8l-6.2-5.4l8.7-10l-5.3-4.7l19.8-5.6l-2.9,20.4l-5.3-4.7L647.7,278.8z M642.8,273.3l4.7,4.1
			l8.7-10l4.7,4.1l2.4-17.1l-16.6,4.7l4.7,4.1L642.8,273.3z"/>
	</g>
</g>
<g>
	<g>
		<polygon class="st0" points="736.2,279.3 738.9,260.6 720.7,265.7 725.8,270.1 717,280.1 722.5,284.9 731.2,274.9 		"/>
	</g>
	<g>
		<polygon class="st1" points="733.3,272.5 736,253.8 717.8,259 722.8,263.3 714.1,273.3 719.6,278.1 728.3,268.1 		"/>
		<path class="st2" d="M719.6,278.8l-6.2-5.4l8.7-10l-5.3-4.7l19.8-5.6l-2.9,20.4l-5.3-4.7L719.6,278.8z M714.8,273.3l4.7,4.1
			l8.7-10l4.7,4.1l2.4-17.1l-16.6,4.7l4.7,4.1L714.8,273.3z"/>
	</g>
</g>
<g>
	<g>
		<polygon class="st0" points="808.2,279.3 810.9,260.6 792.7,265.7 797.7,270.1 789,280.1 794.5,284.9 803.2,274.9 		"/>
	</g>
	<g>
		<polygon class="st1" points="805.2,272.5 807.9,253.8 789.7,259 794.7,263.3 786,273.3 791.5,278.1 800.2,268.1 		"/>
		<path class="st2" d="M791.6,278.8l-6.2-5.4l8.7-10l-5.3-4.7l19.8-5.6l-2.9,20.4l-5.3-4.7L791.6,278.8z M786.7,273.3l4.7,4.1
			l8.7-10l4.7,4.1l2.4-17.1l-16.6,4.7l4.7,4.1L786.7,273.3z"/>
	</g>
</g>
<g>
	<g>
		<polygon class="st0" points="880.1,279.3 882.8,260.6 864.6,265.7 869.6,270.1 860.9,280.1 866.4,284.9 875.1,274.9 		"/>
	</g>
	<g>
		<polygon class="st1" points="877.2,272.5 879.9,253.8 861.7,259 866.7,263.3 858,273.3 863.5,278.1 872.2,268.1 		"/>
		<path class="st2" d="M863.5,278.8l-6.2-5.4l8.7-10l-5.3-4.7l19.8-5.6l-2.9,20.4l-5.3-4.7L863.5,278.8z M858.7,273.3l4.7,4.1
			l8.7-10l4.7,4.1l2.4-17.1l-16.6,4.7l4.7,4.1L858.7,273.3z"/>
	</g>
</g>
<g>
	<g>
		<polygon class="st0" points="55.6,334.1 58.3,315.4 40.1,320.6 45.1,324.9 36.4,334.9 41.9,339.7 50.6,329.7 		"/>
	</g>
	<g>
		<polygon class="st1" points="52.6,327.3 55.3,308.6 37.1,313.8 42.1,318.2 33.4,328.2 38.9,332.9 47.6,323 		"/>
		<path class="st2" d="M39,333.6l-6.2-5.4l8.7-10l-5.3-4.7l19.8-5.6L53,328.3l-5.3-4.7L39,333.6z M34.1,328.1l4.7,4.1l8.7-10
			l4.7,4.1l2.4-17.1L38.2,314l4.7,4.1L34.1,328.1z"/>
	</g>
</g>
<g>
	<g>
		<polygon class="st0" points="127.5,334.1 130.2,315.4 112,320.6 117,324.9 108.3,334.9 113.8,339.7 122.5,329.7 		"/>
	</g>
	<g>
		<polygon class="st1" points="124.6,327.3 127.3,308.6 109.1,313.8 114.1,318.2 105.4,328.2 110.9,332.9 119.6,323 		"/>
		<path class="st2" d="M110.9,333.6l-6.2-5.4l8.7-10l-5.3-4.7l19.8-5.6l-2.9,20.4l-5.3-4.7L110.9,333.6z M106.1,328.1l4.7,4.1
			l8.7-10l4.7,4.1l2.4-17.1l-16.6,4.7l4.7,4.1L106.1,328.1z"/>
	</g>
</g>
<g>
	<g>
		<polygon class="st0" points="199.5,334.1 202.2,315.4 184,320.6 189,324.9 180.3,334.9 185.8,339.7 194.5,329.7 		"/>
	</g>
	<g>
		<polygon class="st1" points="196.5,327.3 199.2,308.6 181,313.8 186,318.2 177.3,328.2 182.8,332.9 191.5,323 		"/>
		<path class="st2" d="M182.8,333.6l-6.2-5.4l8.7-10l-5.3-4.7l19.8-5.6l-2.9,20.4l-5.3-4.7L182.8,333.6z M178,328.1l4.7,4.1l8.7-10
			l4.7,4.1l2.4-17.1L182,314l4.7,4.1L178,328.1z"/>
	</g>
</g>
<g>
	<g>
		<polygon class="st0" points="271.4,334.1 274.1,315.4 255.9,320.6 260.9,324.9 252.2,334.9 257.7,339.7 266.4,329.7 		"/>
	</g>
	<g>
		<polygon class="st1" points="268.5,327.3 271.2,308.6 253,313.8 258,318.2 249.3,328.2 254.7,332.9 263.5,323 		"/>
		<path class="st2" d="M254.8,333.6l-6.2-5.4l8.7-10l-5.3-4.7l19.8-5.6l-2.9,20.4l-5.3-4.7L254.8,333.6z M250,328.1l4.7,4.1l8.7-10
			l4.7,4.1l2.4-17.1L254,314l4.7,4.1L250,328.1z"/>
	</g>
</g>
<g>
	<g>
		<polygon class="st0" points="343.4,334.1 346.1,315.4 327.9,320.6 332.9,324.9 324.2,334.9 329.6,339.7 338.4,329.7 		"/>
	</g>
	<g>
		<polygon class="st1" points="340.4,327.3 343.1,308.6 324.9,313.8 329.9,318.2 321.2,328.2 326.7,332.9 335.4,323 		"/>
		<path class="st2" d="M326.7,333.6l-6.2-5.4l8.7-10l-5.3-4.7l19.8-5.6l-2.9,20.4l-5.3-4.7L326.7,333.6z M321.9,328.1l4.7,4.1
			l8.7-10l4.7,4.1l2.4-17.1l-16.6,4.7l4.7,4.1L321.9,328.1z"/>
	</g>
</g>
<g>
	<g>
		<polygon class="st0" points="415.3,334.1 418,315.4 399.8,320.6 404.8,324.9 396.1,334.9 401.6,339.7 410.3,329.7 		"/>
	</g>
	<g>
		<polygon class="st1" points="412.4,327.3 415,308.6 396.9,313.8 401.9,318.2 393.2,328.2 398.6,332.9 407.4,323 		"/>
		<path class="st2" d="M398.7,333.6l-6.2-5.4l8.7-10l-5.3-4.7l19.8-5.6l-2.9,20.4l-5.3-4.7L398.7,333.6z M393.9,328.1l4.7,4.1
			l8.7-10l4.7,4.1l2.4-17.1l-16.6,4.7l4.7,4.1L393.9,328.1z"/>
	</g>
</g>
<g>
	<g>
		<polygon class="st0" points="487.3,334.1 490,315.4 471.8,320.6 476.8,324.9 468.1,334.9 473.5,339.7 482.3,329.7 		"/>
	</g>
	<g>
		<polygon class="st1" points="484.3,327.3 487,308.6 468.8,313.8 473.8,318.2 465.1,328.2 470.6,332.9 479.3,323 		"/>
		<path class="st2" d="M470.6,333.6l-6.2-5.4l8.7-10l-5.3-4.7l19.8-5.6l-2.9,20.4l-5.3-4.7L470.6,333.6z M465.8,328.1l4.7,4.1
			l8.7-10l4.7,4.1l2.4-17.1l-16.6,4.7l4.7,4.1L465.8,328.1z"/>
	</g>
</g>
<g>
	<g>
		<polygon class="st0" points="559.2,334.1 561.9,315.4 543.7,320.6 548.7,324.9 540,334.9 545.5,339.7 554.2,329.7 		"/>
	</g>
	<g>
		<polygon class="st1" points="556.3,327.3 558.9,308.6 540.7,313.8 545.8,318.2 537,328.2 542.5,332.9 551.2,323 		"/>
		<path class="st2" d="M542.6,333.6l-6.2-5.4l8.7-10l-5.3-4.7l19.8-5.6l-2.9,20.4l-5.3-4.7L542.6,333.6z M537.8,328.1l4.7,4.1
			l8.7-10l4.7,4.1l2.4-17.1l-16.6,4.7l4.7,4.1L537.8,328.1z"/>
	</g>
</g>
<g>
	<g>
		<polygon class="st0" points="631.2,334.1 633.8,315.4 615.6,320.6 620.7,324.9 611.9,334.9 617.4,339.7 626.1,329.7 		"/>
	</g>
	<g>
		<polygon class="st1" points="628.2,327.3 630.9,308.6 612.7,313.8 617.7,318.2 609,328.2 614.5,332.9 623.2,323 		"/>
		<path class="st2" d="M614.5,333.6l-6.2-5.4l8.7-10l-5.3-4.7l19.8-5.6l-2.9,20.4l-5.3-4.7L614.5,333.6z M609.7,328.1l4.7,4.1
			l8.7-10l4.7,4.1l2.4-17.1l-16.6,4.7l4.7,4.1L609.7,328.1z"/>
	</g>
</g>
<g>
	<g>
		<polygon class="st0" points="703.1,334.1 705.8,315.4 687.6,320.6 692.6,324.9 683.9,334.9 689.4,339.7 698.1,329.7 		"/>
	</g>
	<g>
		<polygon class="st1" points="700.1,327.3 702.8,308.6 684.6,313.8 689.7,318.2 680.9,328.2 686.4,332.9 695.1,323 		"/>
		<path class="st2" d="M686.5,333.6l-6.2-5.4l8.7-10l-5.3-4.7l19.8-5.6l-2.9,20.4l-5.3-4.7L686.5,333.6z M681.6,328.1l4.7,4.1
			l8.7-10l4.7,4.1l2.4-17.1l-16.6,4.7l4.7,4.1L681.6,328.1z"/>
	</g>
</g>
<g>
	<g>
		<polygon class="st0" points="775.1,334.1 777.7,315.4 759.5,320.6 764.6,324.9 755.8,334.9 761.3,339.7 770,329.7 		"/>
	</g>
	<g>
		<polygon class="st1" points="772.1,327.3 774.8,308.6 756.6,313.8 761.6,318.2 752.9,328.2 758.4,332.9 767.1,323 		"/>
		<path class="st2" d="M758.4,333.6l-6.2-5.4l8.7-10l-5.3-4.7l19.8-5.6l-2.9,20.4l-5.3-4.7L758.4,333.6z M753.6,328.1l4.7,4.1
			l8.7-10l4.7,4.1l2.4-17.1l-16.6,4.7l4.7,4.1L753.6,328.1z"/>
	</g>
</g>
<g>
	<g>
		<polygon class="st0" points="847,334.1 849.7,315.4 831.5,320.6 836.5,324.9 827.8,334.9 833.3,339.7 842,329.7 		"/>
	</g>
	<g>
		<polygon class="st1" points="844,327.3 846.7,308.6 828.5,313.8 833.5,318.2 824.8,328.2 830.3,332.9 839,323 		"/>
		<path class="st2" d="M830.4,333.6l-6.2-5.4l8.7-10l-5.3-4.7l19.8-5.6l-2.9,20.4l-5.3-4.7L830.4,333.6z M825.5,328.1l4.7,4.1
			l8.7-10l4.7,4.1l2.4-17.1l-16.6,4.7l4.7,4.1L825.5,328.1z"/>
	</g>
</g>
<g>
	<g>
		<polygon class="st0" points="918.9,334.1 921.6,315.4 903.4,320.6 908.4,324.9 899.7,334.9 905.2,339.7 913.9,329.7 		"/>
	</g>
	<g>
		<polygon class="st1" points="916,327.3 918.7,308.6 900.5,313.8 905.5,318.2 896.8,328.2 902.3,332.9 911,323 		"/>
		<path class="st2" d="M902.3,333.6l-6.2-5.4l8.7-10l-5.3-4.7l19.8-5.6l-2.9,20.4l-5.3-4.7L902.3,333.6z M897.5,328.1l4.7,4.1
			l8.7-10l4.7,4.1l2.4-17.1l-16.6,4.7l4.7,4.1L897.5,328.1z"/>
	</g>
</g>
<g>
	<g>
		<polygon class="st0" points="88.7,379.5 91.4,360.8 73.2,366 78.2,370.4 69.5,380.3 75,385.1 83.7,375.2 		"/>
	</g>
	<g>
		<polygon class="st1" points="85.8,372.8 88.5,354 70.3,359.2 75.3,363.6 66.6,373.6 72.1,378.4 80.8,368.4 		"/>
		<path class="st2" d="M72.1,379.1l-6.2-5.4l8.7-10l-5.3-4.7l19.8-5.6l-2.9,20.4l-5.3-4.7L72.1,379.1z M67.3,373.5l4.7,4.1l8.7-10
			l4.7,4.1l2.4-17.1l-16.6,4.7l4.7,4.1L67.3,373.5z"/>
	</g>
</g>
<g>
	<g>
		<polygon class="st0" points="160.7,379.5 163.4,360.8 145.2,366 150.2,370.4 141.5,380.3 147,385.1 155.7,375.2 		"/>
	</g>
	<g>
		<polygon class="st1" points="157.7,372.8 160.4,354 142.2,359.2 147.2,363.6 138.5,373.6 144,378.4 152.7,368.4 		"/>
		<path class="st2" d="M144,379.1l-6.2-5.4l8.7-10l-5.3-4.7l19.8-5.6l-2.9,20.4l-5.3-4.7L144,379.1z M139.2,373.5l4.7,4.1l8.7-10
			l4.7,4.1l2.4-17.1l-16.6,4.7l4.7,4.1L139.2,373.5z"/>
	</g>
</g>
<g>
	<g>
		<polygon class="st0" points="232.6,379.5 235.3,360.8 217.1,366 222.1,370.4 213.4,380.3 218.9,385.1 227.6,375.2 		"/>
	</g>
	<g>
		<polygon class="st1" points="229.7,372.8 232.4,354 214.2,359.2 219.2,363.6 210.5,373.6 215.9,378.4 224.7,368.4 		"/>
		<path class="st2" d="M216,379.1l-6.2-5.4l8.7-10l-5.3-4.7l19.8-5.6l-2.9,20.4l-5.3-4.7L216,379.1z M211.2,373.5l4.7,4.1l8.7-10
			l4.7,4.1l2.4-17.1l-16.6,4.7l4.7,4.1L211.2,373.5z"/>
	</g>
</g>
<g>
	<g>
		<polygon class="st0" points="304.6,379.5 307.3,360.8 289.1,366 294.1,370.4 285.4,380.3 290.8,385.1 299.6,375.2 		"/>
	</g>
	<g>
		<polygon class="st1" points="301.6,372.8 304.3,354 286.1,359.2 291.1,363.6 282.4,373.6 287.9,378.4 296.6,368.4 		"/>
		<path class="st2" d="M287.9,379.1l-6.2-5.4l8.7-10l-5.3-4.7l19.8-5.6l-2.9,20.4l-5.3-4.7L287.9,379.1z M283.1,373.5l4.7,4.1
			l8.7-10l4.7,4.1l2.4-17.1l-16.6,4.7l4.7,4.1L283.1,373.5z"/>
	</g>
</g>
<g>
	<g>
		<polygon class="st0" points="376.5,379.5 379.2,360.8 361,366 366,370.4 357.3,380.3 362.8,385.1 371.5,375.2 		"/>
	</g>
	<g>
		<polygon class="st1" points="373.6,372.8 376.2,354 358.1,359.2 363.1,363.6 354.4,373.6 359.8,378.4 368.6,368.4 		"/>
		<path class="st2" d="M359.9,379.1l-6.2-5.4l8.7-10L357,359l19.8-5.6l-2.9,20.4l-5.3-4.7L359.9,379.1z M355.1,373.5l4.7,4.1l8.7-10
			l4.7,4.1l2.4-17.1l-16.6,4.7l4.7,4.1L355.1,373.5z"/>
	</g>
</g>
<g>
	<g>
		<polygon class="st0" points="448.5,379.5 451.1,360.8 433,366 438,370.4 429.3,380.3 434.7,385.1 443.5,375.2 		"/>
	</g>
	<g>
		<polygon class="st1" points="445.5,372.8 448.2,354 430,359.2 435,363.6 426.3,373.6 431.8,378.4 440.5,368.4 		"/>
		<path class="st2" d="M431.8,379.1l-6.2-5.4l8.7-10L429,359l19.8-5.6l-2.9,20.4l-5.3-4.7L431.8,379.1z M427,373.5l4.7,4.1l8.7-10
			l4.7,4.1l2.4-17.1l-16.6,4.7l4.7,4.1L427,373.5z"/>
	</g>
</g>
<g>
	<g>
		<polygon class="st0" points="520.4,379.5 523.1,360.8 504.9,366 509.9,370.4 501.2,380.3 506.7,385.1 515.4,375.2 		"/>
	</g>
	<g>
		<polygon class="st1" points="517.5,372.8 520.1,354 501.9,359.2 507,363.6 498.2,373.6 503.7,378.4 512.4,368.4 		"/>
		<path class="st2" d="M503.8,379.1l-6.2-5.4l8.7-10l-5.3-4.7l19.8-5.6l-2.9,20.4l-5.3-4.7L503.8,379.1z M499,373.5l4.7,4.1l8.7-10
			l4.7,4.1l2.4-17.1l-16.6,4.7l4.7,4.1L499,373.5z"/>
	</g>
</g>
<g>
	<g>
		<polygon class="st0" points="592.4,379.5 595,360.8 576.8,366 581.9,370.4 573.1,380.3 578.6,385.1 587.3,375.2 		"/>
	</g>
	<g>
		<polygon class="st1" points="589.4,372.8 592.1,354 573.9,359.2 578.9,363.6 570.2,373.6 575.7,378.4 584.4,368.4 		"/>
		<path class="st2" d="M575.7,379.1l-6.2-5.4l8.7-10l-5.3-4.7l19.8-5.6l-2.9,20.4l-5.3-4.7L575.7,379.1z M570.9,373.5l4.7,4.1
			l8.7-10l4.7,4.1l2.4-17.1l-16.6,4.7l4.7,4.1L570.9,373.5z"/>
	</g>
</g>
<g>
	<g>
		<polygon class="st0" points="664.3,379.5 667,360.8 648.8,366 653.8,370.4 645.1,380.3 650.6,385.1 659.3,375.2 		"/>
	</g>
	<g>
		<polygon class="st1" points="661.3,372.8 664,354 645.8,359.2 650.9,363.6 642.1,373.6 647.6,378.4 656.3,368.4 		"/>
		<path class="st2" d="M647.7,379.1l-6.2-5.4l8.7-10l-5.3-4.7l19.8-5.6l-2.9,20.4l-5.3-4.7L647.7,379.1z M642.8,373.5l4.7,4.1
			l8.7-10l4.7,4.1l2.4-17.1l-16.6,4.7l4.7,4.1L642.8,373.5z"/>
	</g>
</g>
<g>
	<g>
		<polygon class="st0" points="736.2,379.5 738.9,360.8 720.7,366 725.8,370.4 717,380.3 722.5,385.1 731.2,375.2 		"/>
	</g>
	<g>
		<polygon class="st1" points="733.3,372.8 736,354 717.8,359.2 722.8,363.6 714.1,373.6 719.6,378.4 728.3,368.4 		"/>
		<path class="st2" d="M719.6,379.1l-6.2-5.4l8.7-10l-5.3-4.7l19.8-5.6l-2.9,20.4l-5.3-4.7L719.6,379.1z M714.8,373.5l4.7,4.1
			l8.7-10l4.7,4.1l2.4-17.1l-16.6,4.7l4.7,4.1L714.8,373.5z"/>
	</g>
</g>
<g>
	<g>
		<polygon class="st0" points="808.2,379.5 810.9,360.8 792.7,366 797.7,370.4 789,380.3 794.5,385.1 803.2,375.2 		"/>
	</g>
	<g>
		<polygon class="st1" points="805.2,372.8 807.9,354 789.7,359.2 794.7,363.6 786,373.6 791.5,378.4 800.2,368.4 		"/>
		<path class="st2" d="M791.6,379.1l-6.2-5.4l8.7-10l-5.3-4.7l19.8-5.6l-2.9,20.4l-5.3-4.7L791.6,379.1z M786.7,373.5l4.7,4.1
			l8.7-10l4.7,4.1l2.4-17.1l-16.6,4.7l4.7,4.1L786.7,373.5z"/>
	</g>
</g>
<g>
	<g>
		<polygon class="st0" points="880.1,379.5 882.8,360.8 864.6,366 869.6,370.4 860.9,380.3 866.4,385.1 875.1,375.2 		"/>
	</g>
	<g>
		<polygon class="st1" points="877.2,372.8 879.9,354 861.7,359.2 866.7,363.6 858,373.6 863.5,378.4 872.2,368.4 		"/>
		<path class="st2" d="M863.5,379.1l-6.2-5.4l8.7-10l-5.3-4.7l19.8-5.6l-2.9,20.4l-5.3-4.7L863.5,379.1z M858.7,373.5l4.7,4.1
			l8.7-10l4.7,4.1l2.4-17.1l-16.6,4.7l4.7,4.1L858.7,373.5z"/>
	</g>
</g>
<g>
	<g>
		<polygon class="st0" points="55.6,426.1 58.3,407.4 40.1,412.5 45.1,416.9 36.4,426.9 41.9,431.7 50.6,421.7 		"/>
	</g>
	<g>
		<polygon class="st1" points="52.6,419.3 55.3,400.6 37.1,405.8 42.1,410.2 33.4,420.1 38.9,424.9 47.6,414.9 		"/>
		<path class="st2" d="M39,425.6l-6.2-5.4l8.7-10l-5.3-4.7l19.8-5.6L53,420.3l-5.3-4.7L39,425.6z M34.1,420.1l4.7,4.1l8.7-10
			l4.7,4.1l2.4-17L38.2,406l4.7,4.1L34.1,420.1z"/>
	</g>
</g>
<g>
	<g>
		<polygon class="st0" points="127.5,426.1 130.2,407.4 112,412.5 117,416.9 108.3,426.9 113.8,431.7 122.5,421.7 		"/>
	</g>
	<g>
		<polygon class="st1" points="124.6,419.3 127.3,400.6 109.1,405.8 114.1,410.2 105.4,420.1 110.9,424.9 119.6,414.9 		"/>
		<path class="st2" d="M110.9,425.6l-6.2-5.4l8.7-10l-5.3-4.7l19.8-5.6l-2.9,20.4l-5.3-4.7L110.9,425.6z M106.1,420.1l4.7,4.1
			l8.7-10l4.7,4.1l2.4-17l-16.6,4.7l4.7,4.1L106.1,420.1z"/>
	</g>
</g>
<g>
	<g>
		<polygon class="st0" points="199.5,426.1 202.2,407.4 184,412.5 189,416.9 180.3,426.9 185.8,431.7 194.5,421.7 		"/>
	</g>
	<g>
		<polygon class="st1" points="196.5,419.3 199.2,400.6 181,405.8 186,410.2 177.3,420.1 182.8,424.9 191.5,414.9 		"/>
		<path class="st2" d="M182.8,425.6l-6.2-5.4l8.7-10l-5.3-4.7l19.8-5.6l-2.9,20.4l-5.3-4.7L182.8,425.6z M178,420.1l4.7,4.1l8.7-10
			l4.7,4.1l2.4-17L182,406l4.7,4.1L178,420.1z"/>
	</g>
</g>
<g>
	<g>
		<polygon class="st0" points="271.4,426.1 274.1,407.4 255.9,412.5 260.9,416.9 252.2,426.9 257.7,431.7 266.4,421.7 		"/>
	</g>
	<g>
		<polygon class="st1" points="268.5,419.3 271.2,400.6 253,405.8 258,410.2 249.3,420.1 254.7,424.9 263.5,414.9 		"/>
		<path class="st2" d="M254.8,425.6l-6.2-5.4l8.7-10l-5.3-4.7l19.8-5.6l-2.9,20.4l-5.3-4.7L254.8,425.6z M250,420.1l4.7,4.1l8.7-10
			l4.7,4.1l2.4-17L254,406l4.7,4.1L250,420.1z"/>
	</g>
</g>
<g>
	<g>
		<polygon class="st0" points="343.4,426.1 346.1,407.4 327.9,412.5 332.9,416.9 324.2,426.9 329.6,431.7 338.4,421.7 		"/>
	</g>
	<g>
		<polygon class="st1" points="340.4,419.3 343.1,400.6 324.9,405.8 329.9,410.2 321.2,420.1 326.7,424.9 335.4,414.9 		"/>
		<path class="st2" d="M326.7,425.6l-6.2-5.4l8.7-10l-5.3-4.7l19.8-5.6l-2.9,20.4l-5.3-4.7L326.7,425.6z M321.9,420.1l4.7,4.1
			l8.7-10l4.7,4.1l2.4-17l-16.6,4.7l4.7,4.1L321.9,420.1z"/>
	</g>
</g>
<g>
	<g>
		<polygon class="st0" points="415.3,426.1 418,407.4 399.8,412.5 404.8,416.9 396.1,426.9 401.6,431.7 410.3,421.7 		"/>
	</g>
	<g>
		<polygon class="st1" points="412.4,419.3 415,400.6 396.9,405.8 401.9,410.2 393.2,420.1 398.6,424.9 407.4,414.9 		"/>
		<path class="st2" d="M398.7,425.6l-6.2-5.4l8.7-10l-5.3-4.7l19.8-5.6l-2.9,20.4l-5.3-4.7L398.7,425.6z M393.9,420.1l4.7,4.1
			l8.7-10l4.7,4.1l2.4-17l-16.6,4.7l4.7,4.1L393.9,420.1z"/>
	</g>
</g>
<g>
	<g>
		<polygon class="st0" points="487.3,426.1 490,407.4 471.8,412.5 476.8,416.9 468.1,426.9 473.5,431.7 482.3,421.7 		"/>
	</g>
	<g>
		<polygon class="st1" points="484.3,419.3 487,400.6 468.8,405.8 473.8,410.2 465.1,420.1 470.6,424.9 479.3,414.9 		"/>
		<path class="st2" d="M470.6,425.6l-6.2-5.4l8.7-10l-5.3-4.7l19.8-5.6l-2.9,20.4l-5.3-4.7L470.6,425.6z M465.8,420.1l4.7,4.1
			l8.7-10l4.7,4.1l2.4-17l-16.6,4.7l4.7,4.1L465.8,420.1z"/>
	</g>
</g>
<g>
	<g>
		<polygon class="st0" points="559.2,426.1 561.9,407.4 543.7,412.5 548.7,416.9 540,426.9 545.5,431.7 554.2,421.7 		"/>
	</g>
	<g>
		<polygon class="st1" points="556.3,419.3 558.9,400.6 540.7,405.8 545.8,410.2 537,420.1 542.5,424.9 551.2,414.9 		"/>
		<path class="st2" d="M542.6,425.6l-6.2-5.4l8.7-10l-5.3-4.7l19.8-5.6l-2.9,20.4l-5.3-4.7L542.6,425.6z M537.8,420.1l4.7,4.1
			l8.7-10l4.7,4.1l2.4-17l-16.6,4.7l4.7,4.1L537.8,420.1z"/>
	</g>
</g>
<g>
	<g>
		<polygon class="st0" points="631.2,426.1 633.8,407.4 615.6,412.5 620.7,416.9 611.9,426.9 617.4,431.7 626.1,421.7 		"/>
	</g>
	<g>
		<polygon class="st1" points="628.2,419.3 630.9,400.6 612.7,405.8 617.7,410.2 609,420.1 614.5,424.9 623.2,414.9 		"/>
		<path class="st2" d="M614.5,425.6l-6.2-5.4l8.7-10l-5.3-4.7l19.8-5.6l-2.9,20.4l-5.3-4.7L614.5,425.6z M609.7,420.1l4.7,4.1
			l8.7-10l4.7,4.1l2.4-17l-16.6,4.7l4.7,4.1L609.7,420.1z"/>
	</g>
</g>
<g>
	<g>
		<polygon class="st0" points="703.1,426.1 705.8,407.4 687.6,412.5 692.6,416.9 683.9,426.9 689.4,431.7 698.1,421.7 		"/>
	</g>
	<g>
		<polygon class="st1" points="700.1,419.3 702.8,400.6 684.6,405.8 689.7,410.2 680.9,420.1 686.4,424.9 695.1,414.9 		"/>
		<path class="st2" d="M686.5,425.6l-6.2-5.4l8.7-10l-5.3-4.7l19.8-5.6l-2.9,20.4l-5.3-4.7L686.5,425.6z M681.6,420.1l4.7,4.1
			l8.7-10l4.7,4.1l2.4-17l-16.6,4.7l4.7,4.1L681.6,420.1z"/>
	</g>
</g>
<g>
	<g>
		<polygon class="st0" points="775.1,426.1 777.7,407.4 759.5,412.5 764.6,416.9 755.8,426.9 761.3,431.7 770,421.7 		"/>
	</g>
	<g>
		<polygon class="st1" points="772.1,419.3 774.8,400.6 756.6,405.8 761.6,410.2 752.9,420.1 758.4,424.9 767.1,414.9 		"/>
		<path class="st2" d="M758.4,425.6l-6.2-5.4l8.7-10l-5.3-4.7l19.8-5.6l-2.9,20.4l-5.3-4.7L758.4,425.6z M753.6,420.1l4.7,4.1
			l8.7-10l4.7,4.1l2.4-17l-16.6,4.7l4.7,4.1L753.6,420.1z"/>
	</g>
</g>
<g>
	<g>
		<polygon class="st0" points="847,426.1 849.7,407.4 831.5,412.5 836.5,416.9 827.8,426.9 833.3,431.7 842,421.7 		"/>
	</g>
	<g>
		<polygon class="st1" points="844,419.3 846.7,400.6 828.5,405.8 833.5,410.2 824.8,420.1 830.3,424.9 839,414.9 		"/>
		<path class="st2" d="M830.4,425.6l-6.2-5.4l8.7-10l-5.3-4.7l19.8-5.6l-2.9,20.4l-5.3-4.7L830.4,425.6z M825.5,420.1l4.7,4.1
			l8.7-10l4.7,4.1l2.4-17l-16.6,4.7l4.7,4.1L825.5,420.1z"/>
	</g>
</g>
<g>
	<g>
		<polygon class="st0" points="918.9,426.1 921.6,407.4 903.4,412.5 908.4,416.9 899.7,426.9 905.2,431.7 913.9,421.7 		"/>
	</g>
	<g>
		<polygon class="st1" points="916,419.3 918.7,400.6 900.5,405.8 905.5,410.2 896.8,420.1 902.3,424.9 911,414.9 		"/>
		<path class="st2" d="M902.3,425.6l-6.2-5.4l8.7-10l-5.3-4.7l19.8-5.6l-2.9,20.4l-5.3-4.7L902.3,425.6z M897.5,420.1l4.7,4.1
			l8.7-10l4.7,4.1l2.4-17l-16.6,4.7l4.7,4.1L897.5,420.1z"/>
	</g>
</g>
<g>
	<g>
		<polygon class="st0" points="88.7,471.5 91.4,452.8 73.2,458 78.2,462.3 69.5,472.3 75,477.1 83.7,467.1 		"/>
	</g>
	<g>
		<polygon class="st1" points="85.8,464.7 88.5,446 70.3,451.2 75.3,455.6 66.6,465.6 72.1,470.3 80.8,460.4 		"/>
		<path class="st2" d="M72.1,471l-6.2-5.4l8.7-10l-5.3-4.7l19.8-5.6l-2.9,20.4l-5.3-4.7L72.1,471z M67.3,465.5l4.7,4.1l8.7-10
			l4.7,4.1l2.4-17.1l-16.6,4.7l4.7,4.1L67.3,465.5z"/>
	</g>
</g>
<g>
	<g>
		<polygon class="st0" points="160.7,471.5 163.4,452.8 145.2,458 150.2,462.3 141.5,472.3 147,477.1 155.7,467.1 		"/>
	</g>
	<g>
		<polygon class="st1" points="157.7,464.7 160.4,446 142.2,451.2 147.2,455.6 138.5,465.6 144,470.3 152.7,460.4 		"/>
		<path class="st2" d="M144,471l-6.2-5.4l8.7-10l-5.3-4.7l19.8-5.6l-2.9,20.4l-5.3-4.7L144,471z M139.2,465.5l4.7,4.1l8.7-10
			l4.7,4.1l2.4-17.1l-16.6,4.7l4.7,4.1L139.2,465.5z"/>
	</g>
</g>
<g>
	<g>
		<polygon class="st0" points="232.6,471.5 235.3,452.8 217.1,458 222.1,462.3 213.4,472.3 218.9,477.1 227.6,467.1 		"/>
	</g>
	<g>
		<polygon class="st1" points="229.7,464.7 232.4,446 214.2,451.2 219.2,455.6 210.5,465.6 215.9,470.3 224.7,460.4 		"/>
		<path class="st2" d="M216,471l-6.2-5.4l8.7-10l-5.3-4.7l19.8-5.6l-2.9,20.4l-5.3-4.7L216,471z M211.2,465.5l4.7,4.1l8.7-10
			l4.7,4.1l2.4-17.1l-16.6,4.7l4.7,4.1L211.2,465.5z"/>
	</g>
</g>
<g>
	<g>
		<polygon class="st0" points="304.6,471.5 307.3,452.8 289.1,458 294.1,462.3 285.4,472.3 290.8,477.1 299.6,467.1 		"/>
	</g>
	<g>
		<polygon class="st1" points="301.6,464.7 304.3,446 286.1,451.2 291.1,455.6 282.4,465.6 287.9,470.3 296.6,460.4 		"/>
		<path class="st2" d="M287.9,471l-6.2-5.4l8.7-10l-5.3-4.7l19.8-5.6l-2.9,20.4l-5.3-4.7L287.9,471z M283.1,465.5l4.7,4.1l8.7-10
			l4.7,4.1l2.4-17.1l-16.6,4.7l4.7,4.1L283.1,465.5z"/>
	</g>
</g>
<g>
	<g>
		<polygon class="st0" points="376.5,471.5 379.2,452.8 361,458 366,462.3 357.3,472.3 362.8,477.1 371.5,467.1 		"/>
	</g>
	<g>
		<polygon class="st1" points="373.6,464.7 376.2,446 358.1,451.2 363.1,455.6 354.4,465.6 359.8,470.3 368.6,460.4 		"/>
		<path class="st2" d="M359.9,471l-6.2-5.4l8.7-10L357,451l19.8-5.6l-2.9,20.4l-5.3-4.7L359.9,471z M355.1,465.5l4.7,4.1l8.7-10
			l4.7,4.1l2.4-17.1l-16.6,4.7l4.7,4.1L355.1,465.5z"/>
	</g>
</g>
<g>
	<g>
		<polygon class="st0" points="448.5,471.5 451.1,452.8 433,458 438,462.3 429.3,472.3 434.7,477.1 443.5,467.1 		"/>
	</g>
	<g>
		<polygon class="st1" points="445.5,464.7 448.2,446 430,451.2 435,455.6 426.3,465.6 431.8,470.3 440.5,460.4 		"/>
		<path class="st2" d="M431.8,471l-6.2-5.4l8.7-10L429,451l19.8-5.6l-2.9,20.4l-5.3-4.7L431.8,471z M427,465.5l4.7,4.1l8.7-10
			l4.7,4.1l2.4-17.1l-16.6,4.7l4.7,4.1L427,465.5z"/>
	</g>
</g>
<g>
	<g>
		<polygon class="st0" points="520.4,471.5 523.1,452.8 504.9,458 509.9,462.3 501.2,472.3 506.7,477.1 515.4,467.1 		"/>
	</g>
	<g>
		<polygon class="st1" points="517.5,464.7 520.1,446 501.9,451.2 507,455.6 498.2,465.6 503.7,470.3 512.4,460.4 		"/>
		<path class="st2" d="M503.8,471l-6.2-5.4l8.7-10l-5.3-4.7l19.8-5.6l-2.9,20.4l-5.3-4.7L503.8,471z M499,465.5l4.7,4.1l8.7-10
			l4.7,4.1l2.4-17.1l-16.6,4.7l4.7,4.1L499,465.5z"/>
	</g>
</g>
<g>
	<g>
		<polygon class="st0" points="592.4,471.5 595,452.8 576.8,458 581.9,462.3 573.1,472.3 578.6,477.1 587.3,467.1 		"/>
	</g>
	<g>
		<polygon class="st1" points="589.4,464.7 592.1,446 573.9,451.2 578.9,455.6 570.2,465.6 575.7,470.3 584.4,460.4 		"/>
		<path class="st2" d="M575.7,471l-6.2-5.4l8.7-10l-5.3-4.7l19.8-5.6l-2.9,20.4l-5.3-4.7L575.7,471z M570.9,465.5l4.7,4.1l8.7-10
			l4.7,4.1l2.4-17.1l-16.6,4.7l4.7,4.1L570.9,465.5z"/>
	</g>
</g>
<g>
	<g>
		<polygon class="st0" points="664.3,471.5 667,452.8 648.8,458 653.8,462.3 645.1,472.3 650.6,477.1 659.3,467.1 		"/>
	</g>
	<g>
		<polygon class="st1" points="661.3,464.7 664,446 645.8,451.2 650.9,455.6 642.1,465.6 647.6,470.3 656.3,460.4 		"/>
		<path class="st2" d="M647.7,471l-6.2-5.4l8.7-10l-5.3-4.7l19.8-5.6l-2.9,20.4l-5.3-4.7L647.7,471z M642.8,465.5l4.7,4.1l8.7-10
			l4.7,4.1l2.4-17.1l-16.6,4.7l4.7,4.1L642.8,465.5z"/>
	</g>
</g>
<g>
	<g>
		<polygon class="st0" points="736.2,471.5 738.9,452.8 720.7,458 725.8,462.3 717,472.3 722.5,477.1 731.2,467.1 		"/>
	</g>
	<g>
		<polygon class="st1" points="733.3,464.7 736,446 717.8,451.2 722.8,455.6 714.1,465.6 719.6,470.3 728.3,460.4 		"/>
		<path class="st2" d="M719.6,471l-6.2-5.4l8.7-10l-5.3-4.7l19.8-5.6l-2.9,20.4l-5.3-4.7L719.6,471z M714.8,465.5l4.7,4.1l8.7-10
			l4.7,4.1l2.4-17.1l-16.6,4.7l4.7,4.1L714.8,465.5z"/>
	</g>
</g>
<g>
	<g>
		<polygon class="st0" points="808.2,471.5 810.9,452.8 792.7,458 797.7,462.3 789,472.3 794.5,477.1 803.2,467.1 		"/>
	</g>
	<g>
		<polygon class="st1" points="805.2,464.7 807.9,446 789.7,451.2 794.7,455.6 786,465.6 791.5,470.3 800.2,460.4 		"/>
		<path class="st2" d="M791.6,471l-6.2-5.4l8.7-10l-5.3-4.7l19.8-5.6l-2.9,20.4l-5.3-4.7L791.6,471z M786.7,465.5l4.7,4.1l8.7-10
			l4.7,4.1l2.4-17.1l-16.6,4.7l4.7,4.1L786.7,465.5z"/>
	</g>
</g>
<g>
	<g>
		<polygon class="st0" points="880.1,471.5 882.8,452.8 864.6,458 869.6,462.3 860.9,472.3 866.4,477.1 875.1,467.1 		"/>
	</g>
	<g>
		<polygon class="st1" points="877.2,464.7 879.9,446 861.7,451.2 866.7,455.6 858,465.6 863.5,470.3 872.2,460.4 		"/>
		<path class="st2" d="M863.5,471l-6.2-5.4l8.7-10l-5.3-4.7l19.8-5.6l-2.9,20.4l-5.3-4.7L863.5,471z M858.7,465.5l4.7,4.1l8.7-10
			l4.7,4.1l2.4-17.1l-16.6,4.7l4.7,4.1L858.7,465.5z"/>
	</g>
</g>
<g>
	<g>
		<polygon class="st0" points="960.1,95.3 962.8,76.6 944.6,81.8 949.6,86.2 940.9,96.1 946.4,100.9 955.1,91 		"/>
	</g>
	<g>
		<polygon class="st1" points="957.2,88.6 959.9,69.8 941.7,75 946.7,79.4 938,89.4 943.5,94.2 952.2,84.2 		"/>
		<path class="st2" d="M943.5,94.9l-6.2-5.4l8.7-10l-5.3-4.7l19.8-5.6l-2.9,20.4l-5.3-4.7L943.5,94.9z M938.7,89.3l4.7,4.1l8.7-10
			l4.7,4.1l2.4-17.1l-16.6,4.7l4.7,4.1L938.7,89.3z"/>
	</g>
</g>
<g>
	<g>
		<polygon class="st0" points="960.1,187.3 962.8,168.6 944.6,173.8 949.6,178.1 940.9,188.1 946.4,192.9 955.1,182.9 		"/>
	</g>
	<g>
		<polygon class="st1" points="957.2,180.5 959.9,161.8 941.7,167 946.7,171.4 938,181.3 943.5,186.1 952.2,176.2 		"/>
		<path class="st2" d="M943.5,186.8l-6.2-5.4l8.7-10l-5.3-4.7l19.8-5.6l-2.9,20.4l-5.3-4.7L943.5,186.8z M938.7,181.3l4.7,4.1
			l8.7-10l4.7,4.1l2.4-17.1l-16.6,4.7l4.7,4.1L938.7,181.3z"/>
	</g>
</g>
<g>
	<g>
		<polygon class="st0" points="960.1,279.3 962.8,260.6 944.6,265.7 949.6,270.1 940.9,280.1 946.4,284.9 955.1,274.9 		"/>
	</g>
	<g>
		<polygon class="st1" points="957.2,272.5 959.9,253.8 941.7,259 946.7,263.3 938,273.3 943.5,278.1 952.2,268.1 		"/>
		<path class="st2" d="M943.5,278.8l-6.2-5.4l8.7-10l-5.3-4.7l19.8-5.6l-2.9,20.4l-5.3-4.7L943.5,278.8z M938.7,273.3l4.7,4.1
			l8.7-10l4.7,4.1l2.4-17.1l-16.6,4.7l4.7,4.1L938.7,273.3z"/>
	</g>
</g>
<g>
	<g>
		<polygon class="st0" points="960.1,379.5 962.8,360.8 944.6,366 949.6,370.4 940.9,380.3 946.4,385.1 955.1,375.2 		"/>
	</g>
	<g>
		<polygon class="st1" points="957.2,372.8 959.9,354 941.7,359.2 946.7,363.6 938,373.6 943.5,378.4 952.2,368.4 		"/>
		<path class="st2" d="M943.5,379.1l-6.2-5.4l8.7-10l-5.3-4.7l19.8-5.6l-2.9,20.4l-5.3-4.7L943.5,379.1z M938.7,373.5l4.7,4.1
			l8.7-10l4.7,4.1l2.4-17.1l-16.6,4.7l4.7,4.1L938.7,373.5z"/>
	</g>
</g>
<g>
	<g>
		<polygon class="st0" points="960.1,471.5 962.8,452.8 944.6,458 949.6,462.3 940.9,472.3 946.4,477.1 955.1,467.1 		"/>
	</g>
	<g>
		<polygon class="st1" points="957.2,464.7 959.9,446 941.7,451.2 946.7,455.6 938,465.6 943.5,470.3 952.2,460.4 		"/>
		<path class="st2" d="M943.5,471l-6.2-5.4l8.7-10l-5.3-4.7l19.8-5.6l-2.9,20.4l-5.3-4.7L943.5,471z M938.7,465.5l4.7,4.1l8.7-10
			l4.7,4.1l2.4-17.1l-16.6,4.7l4.7,4.1L938.7,465.5z"/>
	</g>
</g>
<g>
	<g>
		<polygon class="st0" points="998.9,49.9 1001.6,31.2 983.4,36.4 988.4,40.7 979.7,50.7 985.2,55.5 993.9,45.5 		"/>
	</g>
	<g>
		<polygon class="st1" points="996,43.1 998.7,24.4 980.5,29.6 985.5,34 976.8,43.9 982.3,48.7 991,38.8 		"/>
		<path class="st2" d="M982.3,49.4l-6.2-5.4l8.7-10l-5.3-4.7l19.8-5.6l-2.9,20.4l-5.3-4.7L982.3,49.4z M977.5,43.9l4.7,4.1l8.7-10
			l4.7,4.1l2.4-17.1l-16.6,4.7l4.7,4.1L977.5,43.9z"/>
	</g>
</g>
<g>
	<g>
		<polygon class="st0" points="1070.9,49.9 1073.6,31.2 1055.4,36.4 1060.4,40.7 1051.7,50.7 1057.2,55.5 1065.9,45.5 		"/>
	</g>
	<g>
		<polygon class="st1" points="1067.9,43.1 1070.6,24.4 1052.4,29.6 1057.4,34 1048.7,43.9 1054.2,48.7 1062.9,38.8 		"/>
		<path class="st2" d="M1054.2,49.4L1048,44l8.7-10l-5.3-4.7l19.8-5.6l-2.9,20.4l-5.3-4.7L1054.2,49.4z M1049.4,43.9l4.7,4.1l8.7-10
			l4.7,4.1l2.4-17.1l-16.6,4.7l4.7,4.1L1049.4,43.9z"/>
	</g>
</g>
<g>
	<g>
		<polygon class="st0" points="1142.8,49.9 1145.5,31.2 1127.3,36.4 1132.3,40.7 1123.6,50.7 1129.1,55.5 1137.8,45.5 		"/>
	</g>
	<g>
		<polygon class="st1" points="1139.9,43.1 1142.6,24.4 1124.4,29.6 1129.4,34 1120.7,43.9 1126.1,48.7 1134.9,38.8 		"/>
		<path class="st2" d="M1126.2,49.4L1120,44l8.7-10l-5.3-4.7l19.8-5.6l-2.9,20.4l-5.3-4.7L1126.2,49.4z M1121.4,43.9l4.7,4.1l8.7-10
			l4.7,4.1l2.4-17.1l-16.6,4.7l4.7,4.1L1121.4,43.9z"/>
	</g>
</g>
<g>
	<g>
		<polygon class="st0" points="1214.8,49.9 1217.5,31.2 1199.3,36.4 1204.3,40.7 1195.6,50.7 1201,55.5 1209.8,45.5 		"/>
	</g>
	<g>
		<polygon class="st1" points="1211.8,43.1 1214.5,24.4 1196.3,29.6 1201.3,34 1192.6,43.9 1198.1,48.7 1206.8,38.8 		"/>
		<path class="st2" d="M1198.1,49.4l-6.2-5.4l8.7-10l-5.3-4.7l19.8-5.6l-2.9,20.4l-5.3-4.7L1198.1,49.4z M1193.3,43.9l4.7,4.1
			l8.7-10l4.7,4.1l2.4-17.1l-16.6,4.7l4.7,4.1L1193.3,43.9z"/>
	</g>
</g>
<g>
	<g>
		<polygon class="st0" points="1286.7,49.9 1289.4,31.2 1271.2,36.4 1276.2,40.7 1267.5,50.7 1273,55.5 1281.7,45.5 		"/>
	</g>
	<g>
		<polygon class="st1" points="1283.8,43.1 1286.5,24.4 1268.3,29.6 1273.3,34 1264.6,43.9 1270,48.7 1278.8,38.8 		"/>
		<path class="st2" d="M1270.1,49.4l-6.2-5.4l8.7-10l-5.3-4.7l19.8-5.6l-2.9,20.4l-5.3-4.7L1270.1,49.4z M1265.3,43.9l4.7,4.1
			l8.7-10l4.7,4.1l2.4-17.1l-16.6,4.7l4.7,4.1L1265.3,43.9z"/>
	</g>
</g>
<g>
	<g>
		<polygon class="st0" points="1358.7,49.9 1361.4,31.2 1343.2,36.4 1348.2,40.7 1339.5,50.7 1344.9,55.5 1353.7,45.5 		"/>
	</g>
	<g>
		<polygon class="st1" points="1355.7,43.1 1358.4,24.4 1340.2,29.6 1345.2,34 1336.5,43.9 1342,48.7 1350.7,38.8 		"/>
		<path class="st2" d="M1342,49.4l-6.2-5.4l8.7-10l-5.3-4.7l19.8-5.6l-2.9,20.4l-5.3-4.7L1342,49.4z M1337.2,43.9l4.7,4.1l8.7-10
			l4.7,4.1l2.4-17.1l-16.6,4.7l4.7,4.1L1337.2,43.9z"/>
	</g>
</g>
<g>
	<g>
		<polygon class="st0" points="1430.6,49.9 1433.3,31.2 1415.1,36.4 1420.1,40.7 1411.4,50.7 1416.9,55.5 1425.6,45.5 		"/>
	</g>
	<g>
		<polygon class="st1" points="1427.7,43.1 1430.3,24.4 1412.1,29.6 1417.2,34 1408.4,43.9 1413.9,48.7 1422.6,38.8 		"/>
		<path class="st2" d="M1414,49.4l-6.2-5.4l8.7-10l-5.3-4.7l19.8-5.6l-2.9,20.4l-5.3-4.7L1414,49.4z M1409.2,43.9l4.7,4.1l8.7-10
			l4.7,4.1l2.4-17.1l-16.6,4.7l4.7,4.1L1409.2,43.9z"/>
	</g>
</g>
<g>
	<g>
		<polygon class="st0" points="1032.1,95.3 1034.8,76.6 1016.6,81.8 1021.6,86.2 1012.9,96.1 1018.4,100.9 1027.1,91 		"/>
	</g>
	<g>
		<polygon class="st1" points="1029.1,88.6 1031.8,69.8 1013.6,75 1018.6,79.4 1009.9,89.4 1015.4,94.2 1024.1,84.2 		"/>
		<path class="st2" d="M1015.4,94.9l-6.2-5.4l8.7-10l-5.3-4.7l19.8-5.6l-2.9,20.4l-5.3-4.7L1015.4,94.9z M1010.6,89.3l4.7,4.1
			l8.7-10l4.7,4.1l2.4-17.1l-16.6,4.7l4.7,4.1L1010.6,89.3z"/>
	</g>
</g>
<g>
	<g>
		<polygon class="st0" points="1104,95.3 1106.7,76.6 1088.5,81.8 1093.5,86.2 1084.8,96.1 1090.3,100.9 1099,91 		"/>
	</g>
	<g>
		<polygon class="st1" points="1101.1,88.6 1103.8,69.8 1085.6,75 1090.6,79.4 1081.9,89.4 1087.3,94.2 1096.1,84.2 		"/>
		<path class="st2" d="M1087.4,94.9l-6.2-5.4l8.7-10l-5.3-4.7l19.8-5.6l-2.9,20.4l-5.3-4.7L1087.4,94.9z M1082.6,89.3l4.7,4.1
			l8.7-10l4.7,4.1l2.4-17.1l-16.6,4.7l4.7,4.1L1082.6,89.3z"/>
	</g>
</g>
<g>
	<g>
		<polygon class="st0" points="1176,95.3 1178.7,76.6 1160.5,81.8 1165.5,86.2 1156.8,96.1 1162.2,100.9 1171,91 		"/>
	</g>
	<g>
		<polygon class="st1" points="1173,88.6 1175.7,69.8 1157.5,75 1162.5,79.4 1153.8,89.4 1159.3,94.2 1168,84.2 		"/>
		<path class="st2" d="M1159.3,94.9l-6.2-5.4l8.7-10l-5.3-4.7l19.8-5.6l-2.9,20.4l-5.3-4.7L1159.3,94.9z M1154.5,89.3l4.7,4.1
			l8.7-10l4.7,4.1l2.4-17.1l-16.6,4.7l4.7,4.1L1154.5,89.3z"/>
	</g>
</g>
<g>
	<g>
		<polygon class="st0" points="1247.9,95.3 1250.6,76.6 1232.4,81.8 1237.4,86.2 1228.7,96.1 1234.2,100.9 1242.9,91 		"/>
	</g>
	<g>
		<polygon class="st1" points="1245,88.6 1247.7,69.8 1229.5,75 1234.5,79.4 1225.8,89.4 1231.2,94.2 1240,84.2 		"/>
		<path class="st2" d="M1231.3,94.9l-6.2-5.4l8.7-10l-5.3-4.7l19.8-5.6l-2.9,20.4l-5.3-4.7L1231.3,94.9z M1226.5,89.3l4.7,4.1
			l8.7-10l4.7,4.1l2.4-17.1l-16.6,4.7l4.7,4.1L1226.5,89.3z"/>
	</g>
</g>
<g>
	<g>
		<polygon class="st0" points="1319.9,95.3 1322.6,76.6 1304.4,81.8 1309.4,86.2 1300.7,96.1 1306.1,100.9 1314.9,91 		"/>
	</g>
	<g>
		<polygon class="st1" points="1316.9,88.6 1319.6,69.8 1301.4,75 1306.4,79.4 1297.7,89.4 1303.2,94.2 1311.9,84.2 		"/>
		<path class="st2" d="M1303.2,94.9l-6.2-5.4l8.7-10l-5.3-4.7l19.8-5.6l-2.9,20.4l-5.3-4.7L1303.2,94.9z M1298.4,89.3l4.7,4.1
			l8.7-10l4.7,4.1l2.4-17.1l-16.6,4.7l4.7,4.1L1298.4,89.3z"/>
	</g>
</g>
<g>
	<g>
		<polygon class="st0" points="1391.8,95.3 1394.5,76.6 1376.3,81.8 1381.3,86.2 1372.6,96.1 1378.1,100.9 1386.8,91 		"/>
	</g>
	<g>
		<polygon class="st1" points="1388.9,88.6 1391.5,69.8 1373.3,75 1378.4,79.4 1369.6,89.4 1375.1,94.2 1383.8,84.2 		"/>
		<path class="st2" d="M1375.2,94.9l-6.2-5.4l8.7-10l-5.3-4.7l19.8-5.6l-2.9,20.4l-5.3-4.7L1375.2,94.9z M1370.4,89.3l4.7,4.1
			l8.7-10l4.7,4.1l2.4-17.1l-16.6,4.7l4.7,4.1L1370.4,89.3z"/>
	</g>
</g>
<g>
	<g>
		<polygon class="st0" points="1463.8,95.3 1466.4,76.6 1448.2,81.8 1453.3,86.2 1444.5,96.1 1450,100.9 1458.7,91 		"/>
	</g>
	<g>
		<polygon class="st1" points="1460.8,88.6 1463.5,69.8 1445.3,75 1450.3,79.4 1441.6,89.4 1447.1,94.2 1455.8,84.2 		"/>
		<path class="st2" d="M1447.1,94.9l-6.2-5.4l8.7-10l-5.3-4.7l19.8-5.6l-2.9,20.4l-5.3-4.7L1447.1,94.9z M1442.3,89.3l4.7,4.1
			l8.7-10l4.7,4.1l2.4-17.1l-16.6,4.7l4.7,4.1L1442.3,89.3z"/>
	</g>
</g>
<g>
	<g>
		<polygon class="st0" points="998.9,141.9 1001.6,123.2 983.4,128.3 988.4,132.7 979.7,142.7 985.2,147.5 993.9,137.5 		"/>
	</g>
	<g>
		<polygon class="st1" points="996,135.1 998.7,116.4 980.5,121.6 985.5,125.9 976.8,135.9 982.3,140.7 991,130.7 		"/>
		<path class="st2" d="M982.3,141.4l-6.2-5.4l8.7-10l-5.3-4.7l19.8-5.6l-2.9,20.4l-5.3-4.7L982.3,141.4z M977.5,135.9l4.7,4.1
			l8.7-10l4.7,4.1l2.4-17.1l-16.6,4.7l4.7,4.1L977.5,135.9z"/>
	</g>
</g>
<g>
	<g>
		<polygon class="st0" points="1070.9,141.9 1073.6,123.2 1055.4,128.3 1060.4,132.7 1051.7,142.7 1057.2,147.5 1065.9,137.5 		"/>
	</g>
	<g>
		<polygon class="st1" points="1067.9,135.1 1070.6,116.4 1052.4,121.6 1057.4,125.9 1048.7,135.9 1054.2,140.7 1062.9,130.7 		"/>
		<path class="st2" d="M1054.2,141.4l-6.2-5.4l8.7-10l-5.3-4.7l19.8-5.6l-2.9,20.4l-5.3-4.7L1054.2,141.4z M1049.4,135.9l4.7,4.1
			l8.7-10l4.7,4.1l2.4-17.1l-16.6,4.7l4.7,4.1L1049.4,135.9z"/>
	</g>
</g>
<g>
	<g>
		<polygon class="st0" points="1142.8,141.9 1145.5,123.2 1127.3,128.3 1132.3,132.7 1123.6,142.7 1129.1,147.5 1137.8,137.5 		"/>
	</g>
	<g>
		<polygon class="st1" points="1139.9,135.1 1142.6,116.4 1124.4,121.6 1129.4,125.9 1120.7,135.9 1126.1,140.7 1134.9,130.7 		"/>
		<path class="st2" d="M1126.2,141.4l-6.2-5.4l8.7-10l-5.3-4.7l19.8-5.6l-2.9,20.4l-5.3-4.7L1126.2,141.4z M1121.4,135.9l4.7,4.1
			l8.7-10l4.7,4.1l2.4-17.1l-16.6,4.7l4.7,4.1L1121.4,135.9z"/>
	</g>
</g>
<g>
	<g>
		<polygon class="st0" points="1214.8,141.9 1217.5,123.2 1199.3,128.3 1204.3,132.7 1195.6,142.7 1201,147.5 1209.8,137.5 		"/>
	</g>
	<g>
		<polygon class="st1" points="1211.8,135.1 1214.5,116.4 1196.3,121.6 1201.3,125.9 1192.6,135.9 1198.1,140.7 1206.8,130.7 		"/>
		<path class="st2" d="M1198.1,141.4l-6.2-5.4l8.7-10l-5.3-4.7l19.8-5.6l-2.9,20.4l-5.3-4.7L1198.1,141.4z M1193.3,135.9l4.7,4.1
			l8.7-10l4.7,4.1l2.4-17.1l-16.6,4.7l4.7,4.1L1193.3,135.9z"/>
	</g>
</g>
<g>
	<g>
		<polygon class="st0" points="1286.7,141.9 1289.4,123.2 1271.2,128.3 1276.2,132.7 1267.5,142.7 1273,147.5 1281.7,137.5 		"/>
	</g>
	<g>
		<polygon class="st1" points="1283.8,135.1 1286.5,116.4 1268.3,121.6 1273.3,125.9 1264.6,135.9 1270,140.7 1278.8,130.7 		"/>
		<path class="st2" d="M1270.1,141.4l-6.2-5.4l8.7-10l-5.3-4.7l19.8-5.6l-2.9,20.4l-5.3-4.7L1270.1,141.4z M1265.3,135.9l4.7,4.1
			l8.7-10l4.7,4.1l2.4-17.1l-16.6,4.7l4.7,4.1L1265.3,135.9z"/>
	</g>
</g>
<g>
	<g>
		<polygon class="st0" points="1358.7,141.9 1361.4,123.2 1343.2,128.3 1348.2,132.7 1339.5,142.7 1344.9,147.5 1353.7,137.5 		"/>
	</g>
	<g>
		<polygon class="st1" points="1355.7,135.1 1358.4,116.4 1340.2,121.6 1345.2,125.9 1336.5,135.9 1342,140.7 1350.7,130.7 		"/>
		<path class="st2" d="M1342,141.4l-6.2-5.4l8.7-10l-5.3-4.7l19.8-5.6l-2.9,20.4l-5.3-4.7L1342,141.4z M1337.2,135.9l4.7,4.1l8.7-10
			l4.7,4.1l2.4-17.1l-16.6,4.7l4.7,4.1L1337.2,135.9z"/>
	</g>
</g>
<g>
	<g>
		<polygon class="st0" points="1430.6,141.9 1433.3,123.2 1415.1,128.3 1420.1,132.7 1411.4,142.7 1416.9,147.5 1425.6,137.5 		"/>
	</g>
	<g>
		<polygon class="st1" points="1427.7,135.1 1430.3,116.4 1412.1,121.6 1417.2,125.9 1408.4,135.9 1413.9,140.7 1422.6,130.7 		"/>
		<path class="st2" d="M1414,141.4l-6.2-5.4l8.7-10l-5.3-4.7l19.8-5.6l-2.9,20.4l-5.3-4.7L1414,141.4z M1409.2,135.9l4.7,4.1l8.7-10
			l4.7,4.1l2.4-17.1l-16.6,4.7l4.7,4.1L1409.2,135.9z"/>
	</g>
</g>
<g>
	<g>
		<polygon class="st0" points="1032.1,187.3 1034.8,168.6 1016.6,173.8 1021.6,178.1 1012.9,188.1 1018.4,192.9 1027.1,182.9 		"/>
	</g>
	<g>
		<polygon class="st1" points="1029.1,180.5 1031.8,161.8 1013.6,167 1018.6,171.4 1009.9,181.3 1015.4,186.1 1024.1,176.2 		"/>
		<path class="st2" d="M1015.4,186.8l-6.2-5.4l8.7-10l-5.3-4.7l19.8-5.6l-2.9,20.4l-5.3-4.7L1015.4,186.8z M1010.6,181.3l4.7,4.1
			l8.7-10l4.7,4.1l2.4-17.1l-16.6,4.7l4.7,4.1L1010.6,181.3z"/>
	</g>
</g>
<g>
	<g>
		<polygon class="st0" points="1104,187.3 1106.7,168.6 1088.5,173.8 1093.5,178.1 1084.8,188.1 1090.3,192.9 1099,182.9 		"/>
	</g>
	<g>
		<polygon class="st1" points="1101.1,180.5 1103.8,161.8 1085.6,167 1090.6,171.4 1081.9,181.3 1087.3,186.1 1096.1,176.2 		"/>
		<path class="st2" d="M1087.4,186.8l-6.2-5.4l8.7-10l-5.3-4.7l19.8-5.6l-2.9,20.4l-5.3-4.7L1087.4,186.8z M1082.6,181.3l4.7,4.1
			l8.7-10l4.7,4.1l2.4-17.1l-16.6,4.7l4.7,4.1L1082.6,181.3z"/>
	</g>
</g>
<g>
	<g>
		<polygon class="st0" points="1176,187.3 1178.7,168.6 1160.5,173.8 1165.5,178.1 1156.8,188.1 1162.2,192.9 1171,182.9 		"/>
	</g>
	<g>
		<polygon class="st1" points="1173,180.5 1175.7,161.8 1157.5,167 1162.5,171.4 1153.8,181.3 1159.3,186.1 1168,176.2 		"/>
		<path class="st2" d="M1159.3,186.8l-6.2-5.4l8.7-10l-5.3-4.7l19.8-5.6l-2.9,20.4l-5.3-4.7L1159.3,186.8z M1154.5,181.3l4.7,4.1
			l8.7-10l4.7,4.1l2.4-17.1l-16.6,4.7l4.7,4.1L1154.5,181.3z"/>
	</g>
</g>
<g>
	<g>
		<polygon class="st0" points="1247.9,187.3 1250.6,168.6 1232.4,173.8 1237.4,178.1 1228.7,188.1 1234.2,192.9 1242.9,182.9 		"/>
	</g>
	<g>
		<polygon class="st1" points="1245,180.5 1247.7,161.8 1229.5,167 1234.5,171.4 1225.8,181.3 1231.2,186.1 1240,176.2 		"/>
		<path class="st2" d="M1231.3,186.8l-6.2-5.4l8.7-10l-5.3-4.7l19.8-5.6l-2.9,20.4l-5.3-4.7L1231.3,186.8z M1226.5,181.3l4.7,4.1
			l8.7-10l4.7,4.1l2.4-17.1l-16.6,4.7l4.7,4.1L1226.5,181.3z"/>
	</g>
</g>
<g>
	<g>
		<polygon class="st0" points="1319.9,187.3 1322.6,168.6 1304.4,173.8 1309.4,178.1 1300.7,188.1 1306.1,192.9 1314.9,182.9 		"/>
	</g>
	<g>
		<polygon class="st1" points="1316.9,180.5 1319.6,161.8 1301.4,167 1306.4,171.4 1297.7,181.3 1303.2,186.1 1311.9,176.2 		"/>
		<path class="st2" d="M1303.2,186.8l-6.2-5.4l8.7-10l-5.3-4.7l19.8-5.6l-2.9,20.4l-5.3-4.7L1303.2,186.8z M1298.4,181.3l4.7,4.1
			l8.7-10l4.7,4.1l2.4-17.1l-16.6,4.7l4.7,4.1L1298.4,181.3z"/>
	</g>
</g>
<g>
	<g>
		<polygon class="st0" points="1391.8,187.3 1394.5,168.6 1376.3,173.8 1381.3,178.1 1372.6,188.1 1378.1,192.9 1386.8,182.9 		"/>
	</g>
	<g>
		<polygon class="st1" points="1388.9,180.5 1391.5,161.8 1373.3,167 1378.4,171.4 1369.6,181.3 1375.1,186.1 1383.8,176.2 		"/>
		<path class="st2" d="M1375.2,186.8l-6.2-5.4l8.7-10l-5.3-4.7l19.8-5.6l-2.9,20.4l-5.3-4.7L1375.2,186.8z M1370.4,181.3l4.7,4.1
			l8.7-10l4.7,4.1l2.4-17.1l-16.6,4.7l4.7,4.1L1370.4,181.3z"/>
	</g>
</g>
<g>
	<g>
		<polygon class="st0" points="1463.8,187.3 1466.4,168.6 1448.2,173.8 1453.3,178.1 1444.5,188.1 1450,192.9 1458.7,182.9 		"/>
	</g>
	<g>
		<polygon class="st1" points="1460.8,180.5 1463.5,161.8 1445.3,167 1450.3,171.4 1441.6,181.3 1447.1,186.1 1455.8,176.2 		"/>
		<path class="st2" d="M1447.1,186.8l-6.2-5.4l8.7-10l-5.3-4.7l19.8-5.6l-2.9,20.4l-5.3-4.7L1447.1,186.8z M1442.3,181.3l4.7,4.1
			l8.7-10l4.7,4.1l2.4-17.1l-16.6,4.7l4.7,4.1L1442.3,181.3z"/>
	</g>
</g>
<g>
	<g>
		<polygon class="st0" points="998.9,233.9 1001.6,215.1 983.4,220.3 988.4,224.7 979.7,234.7 985.2,239.5 993.9,229.5 		"/>
	</g>
	<g>
		<polygon class="st1" points="996,227.1 998.7,208.4 980.5,213.5 985.5,217.9 976.8,227.9 982.3,232.7 991,222.7 		"/>
		<path class="st2" d="M982.3,233.4l-6.2-5.4l8.7-10l-5.3-4.7l19.8-5.6l-2.9,20.4l-5.3-4.7L982.3,233.4z M977.5,227.8l4.7,4.1
			l8.7-10l4.7,4.1l2.4-17.1l-16.6,4.7l4.7,4.1L977.5,227.8z"/>
	</g>
</g>
<g>
	<g>
		<polygon class="st0" points="1070.9,233.9 1073.6,215.1 1055.4,220.3 1060.4,224.7 1051.7,234.7 1057.2,239.5 1065.9,229.5 		"/>
	</g>
	<g>
		<polygon class="st1" points="1067.9,227.1 1070.6,208.4 1052.4,213.5 1057.4,217.9 1048.7,227.9 1054.2,232.7 1062.9,222.7 		"/>
		<path class="st2" d="M1054.2,233.4l-6.2-5.4l8.7-10l-5.3-4.7l19.8-5.6l-2.9,20.4l-5.3-4.7L1054.2,233.4z M1049.4,227.8l4.7,4.1
			l8.7-10l4.7,4.1l2.4-17.1l-16.6,4.7l4.7,4.1L1049.4,227.8z"/>
	</g>
</g>
<g>
	<g>
		<polygon class="st0" points="1142.8,233.9 1145.5,215.1 1127.3,220.3 1132.3,224.7 1123.6,234.7 1129.1,239.5 1137.8,229.5 		"/>
	</g>
	<g>
		<polygon class="st1" points="1139.9,227.1 1142.6,208.4 1124.4,213.5 1129.4,217.9 1120.7,227.9 1126.1,232.7 1134.9,222.7 		"/>
		<path class="st2" d="M1126.2,233.4l-6.2-5.4l8.7-10l-5.3-4.7l19.8-5.6l-2.9,20.4l-5.3-4.7L1126.2,233.4z M1121.4,227.8l4.7,4.1
			l8.7-10l4.7,4.1l2.4-17.1l-16.6,4.7l4.7,4.1L1121.4,227.8z"/>
	</g>
</g>
<g>
	<g>
		<polygon class="st0" points="1214.8,233.9 1217.5,215.1 1199.3,220.3 1204.3,224.7 1195.6,234.7 1201,239.5 1209.8,229.5 		"/>
	</g>
	<g>
		<polygon class="st1" points="1211.8,227.1 1214.5,208.4 1196.3,213.5 1201.3,217.9 1192.6,227.9 1198.1,232.7 1206.8,222.7 		"/>
		<path class="st2" d="M1198.1,233.4l-6.2-5.4l8.7-10l-5.3-4.7l19.8-5.6l-2.9,20.4l-5.3-4.7L1198.1,233.4z M1193.3,227.8l4.7,4.1
			l8.7-10l4.7,4.1l2.4-17.1l-16.6,4.7l4.7,4.1L1193.3,227.8z"/>
	</g>
</g>
<g>
	<g>
		<polygon class="st0" points="1286.7,233.9 1289.4,215.1 1271.2,220.3 1276.2,224.7 1267.5,234.7 1273,239.5 1281.7,229.5 		"/>
	</g>
	<g>
		<polygon class="st1" points="1283.8,227.1 1286.5,208.4 1268.3,213.5 1273.3,217.9 1264.6,227.9 1270,232.7 1278.8,222.7 		"/>
		<path class="st2" d="M1270.1,233.4l-6.2-5.4l8.7-10l-5.3-4.7l19.8-5.6l-2.9,20.4l-5.3-4.7L1270.1,233.4z M1265.3,227.8l4.7,4.1
			l8.7-10l4.7,4.1l2.4-17.1l-16.6,4.7l4.7,4.1L1265.3,227.8z"/>
	</g>
</g>
<g>
	<g>
		<polygon class="st0" points="1358.7,233.9 1361.4,215.1 1343.2,220.3 1348.2,224.7 1339.5,234.7 1344.9,239.5 1353.7,229.5 		"/>
	</g>
	<g>
		<polygon class="st1" points="1355.7,227.1 1358.4,208.4 1340.2,213.5 1345.2,217.9 1336.5,227.9 1342,232.7 1350.7,222.7 		"/>
		<path class="st2" d="M1342,233.4l-6.2-5.4l8.7-10l-5.3-4.7l19.8-5.6l-2.9,20.4l-5.3-4.7L1342,233.4z M1337.2,227.8l4.7,4.1l8.7-10
			l4.7,4.1l2.4-17.1l-16.6,4.7l4.7,4.1L1337.2,227.8z"/>
	</g>
</g>
<g>
	<g>
		<polygon class="st0" points="1430.6,233.9 1433.3,215.1 1415.1,220.3 1420.1,224.7 1411.4,234.7 1416.9,239.5 1425.6,229.5 		"/>
	</g>
	<g>
		<polygon class="st1" points="1427.7,227.1 1430.3,208.4 1412.1,213.5 1417.2,217.9 1408.4,227.9 1413.9,232.7 1422.6,222.7 		"/>
		<path class="st2" d="M1414,233.4l-6.2-5.4l8.7-10l-5.3-4.7l19.8-5.6l-2.9,20.4l-5.3-4.7L1414,233.4z M1409.2,227.8l4.7,4.1l8.7-10
			l4.7,4.1l2.4-17.1l-16.6,4.7l4.7,4.1L1409.2,227.8z"/>
	</g>
</g>
<g>
	<g>
		<polygon class="st0" points="1032.1,279.3 1034.8,260.6 1016.6,265.7 1021.6,270.1 1012.9,280.1 1018.4,284.9 1027.1,274.9 		"/>
	</g>
	<g>
		<polygon class="st1" points="1029.1,272.5 1031.8,253.8 1013.6,259 1018.6,263.3 1009.9,273.3 1015.4,278.1 1024.1,268.1 		"/>
		<path class="st2" d="M1015.4,278.8l-6.2-5.4l8.7-10l-5.3-4.7l19.8-5.6l-2.9,20.4l-5.3-4.7L1015.4,278.8z M1010.6,273.3l4.7,4.1
			l8.7-10l4.7,4.1l2.4-17.1l-16.6,4.7l4.7,4.1L1010.6,273.3z"/>
	</g>
</g>
<g>
	<g>
		<polygon class="st0" points="1104,279.3 1106.7,260.6 1088.5,265.7 1093.5,270.1 1084.8,280.1 1090.3,284.9 1099,274.9 		"/>
	</g>
	<g>
		<polygon class="st1" points="1101.1,272.5 1103.8,253.8 1085.6,259 1090.6,263.3 1081.9,273.3 1087.3,278.1 1096.1,268.1 		"/>
		<path class="st2" d="M1087.4,278.8l-6.2-5.4l8.7-10l-5.3-4.7l19.8-5.6l-2.9,20.4l-5.3-4.7L1087.4,278.8z M1082.6,273.3l4.7,4.1
			l8.7-10l4.7,4.1l2.4-17.1l-16.6,4.7l4.7,4.1L1082.6,273.3z"/>
	</g>
</g>
<g>
	<g>
		<polygon class="st0" points="1176,279.3 1178.7,260.6 1160.5,265.7 1165.5,270.1 1156.8,280.1 1162.2,284.9 1171,274.9 		"/>
	</g>
	<g>
		<polygon class="st1" points="1173,272.5 1175.7,253.8 1157.5,259 1162.5,263.3 1153.8,273.3 1159.3,278.1 1168,268.1 		"/>
		<path class="st2" d="M1159.3,278.8l-6.2-5.4l8.7-10l-5.3-4.7l19.8-5.6l-2.9,20.4l-5.3-4.7L1159.3,278.8z M1154.5,273.3l4.7,4.1
			l8.7-10l4.7,4.1l2.4-17.1l-16.6,4.7l4.7,4.1L1154.5,273.3z"/>
	</g>
</g>
<g>
	<g>
		<polygon class="st0" points="1247.9,279.3 1250.6,260.6 1232.4,265.7 1237.4,270.1 1228.7,280.1 1234.2,284.9 1242.9,274.9 		"/>
	</g>
	<g>
		<polygon class="st1" points="1245,272.5 1247.7,253.8 1229.5,259 1234.5,263.3 1225.8,273.3 1231.2,278.1 1240,268.1 		"/>
		<path class="st2" d="M1231.3,278.8l-6.2-5.4l8.7-10l-5.3-4.7l19.8-5.6l-2.9,20.4l-5.3-4.7L1231.3,278.8z M1226.5,273.3l4.7,4.1
			l8.7-10l4.7,4.1l2.4-17.1l-16.6,4.7l4.7,4.1L1226.5,273.3z"/>
	</g>
</g>
<g>
	<g>
		<polygon class="st0" points="1319.9,279.3 1322.6,260.6 1304.4,265.7 1309.4,270.1 1300.7,280.1 1306.1,284.9 1314.9,274.9 		"/>
	</g>
	<g>
		<polygon class="st1" points="1316.9,272.5 1319.6,253.8 1301.4,259 1306.4,263.3 1297.7,273.3 1303.2,278.1 1311.9,268.1 		"/>
		<path class="st2" d="M1303.2,278.8l-6.2-5.4l8.7-10l-5.3-4.7l19.8-5.6l-2.9,20.4l-5.3-4.7L1303.2,278.8z M1298.4,273.3l4.7,4.1
			l8.7-10l4.7,4.1l2.4-17.1l-16.6,4.7l4.7,4.1L1298.4,273.3z"/>
	</g>
</g>
<g>
	<g>
		<polygon class="st0" points="1391.8,279.3 1394.5,260.6 1376.3,265.7 1381.3,270.1 1372.6,280.1 1378.1,284.9 1386.8,274.9 		"/>
	</g>
	<g>
		<polygon class="st1" points="1388.9,272.5 1391.5,253.8 1373.3,259 1378.4,263.3 1369.6,273.3 1375.1,278.1 1383.8,268.1 		"/>
		<path class="st2" d="M1375.2,278.8l-6.2-5.4l8.7-10l-5.3-4.7l19.8-5.6l-2.9,20.4l-5.3-4.7L1375.2,278.8z M1370.4,273.3l4.7,4.1
			l8.7-10l4.7,4.1l2.4-17.1l-16.6,4.7l4.7,4.1L1370.4,273.3z"/>
	</g>
</g>
<g>
	<g>
		<polygon class="st0" points="1463.8,279.3 1466.4,260.6 1448.2,265.7 1453.3,270.1 1444.5,280.1 1450,284.9 1458.7,274.9 		"/>
	</g>
	<g>
		<polygon class="st1" points="1460.8,272.5 1463.5,253.8 1445.3,259 1450.3,263.3 1441.6,273.3 1447.1,278.1 1455.8,268.1 		"/>
		<path class="st2" d="M1447.1,278.8l-6.2-5.4l8.7-10l-5.3-4.7l19.8-5.6l-2.9,20.4l-5.3-4.7L1447.1,278.8z M1442.3,273.3l4.7,4.1
			l8.7-10l4.7,4.1l2.4-17.1l-16.6,4.7l4.7,4.1L1442.3,273.3z"/>
	</g>
</g>
<g>
	<g>
		<polygon class="st0" points="998.9,334.1 1001.6,315.4 983.4,320.6 988.4,324.9 979.7,334.9 985.2,339.7 993.9,329.7 		"/>
	</g>
	<g>
		<polygon class="st1" points="996,327.3 998.7,308.6 980.5,313.8 985.5,318.2 976.8,328.2 982.3,332.9 991,323 		"/>
		<path class="st2" d="M982.3,333.6l-6.2-5.4l8.7-10l-5.3-4.7l19.8-5.6l-2.9,20.4l-5.3-4.7L982.3,333.6z M977.5,328.1l4.7,4.1
			l8.7-10l4.7,4.1l2.4-17.1l-16.6,4.7l4.7,4.1L977.5,328.1z"/>
	</g>
</g>
<g>
	<g>
		<polygon class="st0" points="1070.9,334.1 1073.6,315.4 1055.4,320.6 1060.4,324.9 1051.7,334.9 1057.2,339.7 1065.9,329.7 		"/>
	</g>
	<g>
		<polygon class="st1" points="1067.9,327.3 1070.6,308.6 1052.4,313.8 1057.4,318.2 1048.7,328.2 1054.2,332.9 1062.9,323 		"/>
		<path class="st2" d="M1054.2,333.6l-6.2-5.4l8.7-10l-5.3-4.7l19.8-5.6l-2.9,20.4l-5.3-4.7L1054.2,333.6z M1049.4,328.1l4.7,4.1
			l8.7-10l4.7,4.1l2.4-17.1l-16.6,4.7l4.7,4.1L1049.4,328.1z"/>
	</g>
</g>
<g>
	<g>
		<polygon class="st0" points="1142.8,334.1 1145.5,315.4 1127.3,320.6 1132.3,324.9 1123.6,334.9 1129.1,339.7 1137.8,329.7 		"/>
	</g>
	<g>
		<polygon class="st1" points="1139.9,327.3 1142.6,308.6 1124.4,313.8 1129.4,318.2 1120.7,328.2 1126.1,332.9 1134.9,323 		"/>
		<path class="st2" d="M1126.2,333.6l-6.2-5.4l8.7-10l-5.3-4.7l19.8-5.6l-2.9,20.4l-5.3-4.7L1126.2,333.6z M1121.4,328.1l4.7,4.1
			l8.7-10l4.7,4.1l2.4-17.1l-16.6,4.7l4.7,4.1L1121.4,328.1z"/>
	</g>
</g>
<g>
	<g>
		<polygon class="st0" points="1214.8,334.1 1217.5,315.4 1199.3,320.6 1204.3,324.9 1195.6,334.9 1201,339.7 1209.8,329.7 		"/>
	</g>
	<g>
		<polygon class="st1" points="1211.8,327.3 1214.5,308.6 1196.3,313.8 1201.3,318.2 1192.6,328.2 1198.1,332.9 1206.8,323 		"/>
		<path class="st2" d="M1198.1,333.6l-6.2-5.4l8.7-10l-5.3-4.7l19.8-5.6l-2.9,20.4l-5.3-4.7L1198.1,333.6z M1193.3,328.1l4.7,4.1
			l8.7-10l4.7,4.1l2.4-17.1l-16.6,4.7l4.7,4.1L1193.3,328.1z"/>
	</g>
</g>
<g>
	<g>
		<polygon class="st0" points="1286.7,334.1 1289.4,315.4 1271.2,320.6 1276.2,324.9 1267.5,334.9 1273,339.7 1281.7,329.7 		"/>
	</g>
	<g>
		<polygon class="st1" points="1283.8,327.3 1286.5,308.6 1268.3,313.8 1273.3,318.2 1264.6,328.2 1270,332.9 1278.8,323 		"/>
		<path class="st2" d="M1270.1,333.6l-6.2-5.4l8.7-10l-5.3-4.7l19.8-5.6l-2.9,20.4l-5.3-4.7L1270.1,333.6z M1265.3,328.1l4.7,4.1
			l8.7-10l4.7,4.1l2.4-17.1l-16.6,4.7l4.7,4.1L1265.3,328.1z"/>
	</g>
</g>
<g>
	<g>
		<polygon class="st0" points="1358.7,334.1 1361.4,315.4 1343.2,320.6 1348.2,324.9 1339.5,334.9 1344.9,339.7 1353.7,329.7 		"/>
	</g>
	<g>
		<polygon class="st1" points="1355.7,327.3 1358.4,308.6 1340.2,313.8 1345.2,318.2 1336.5,328.2 1342,332.9 1350.7,323 		"/>
		<path class="st2" d="M1342,333.6l-6.2-5.4l8.7-10l-5.3-4.7l19.8-5.6l-2.9,20.4l-5.3-4.7L1342,333.6z M1337.2,328.1l4.7,4.1l8.7-10
			l4.7,4.1l2.4-17.1l-16.6,4.7l4.7,4.1L1337.2,328.1z"/>
	</g>
</g>
<g>
	<g>
		<polygon class="st0" points="1430.6,334.1 1433.3,315.4 1415.1,320.6 1420.1,324.9 1411.4,334.9 1416.9,339.7 1425.6,329.7 		"/>
	</g>
	<g>
		<polygon class="st1" points="1427.7,327.3 1430.3,308.6 1412.1,313.8 1417.2,318.2 1408.4,328.2 1413.9,332.9 1422.6,323 		"/>
		<path class="st2" d="M1414,333.6l-6.2-5.4l8.7-10l-5.3-4.7l19.8-5.6l-2.9,20.4l-5.3-4.7L1414,333.6z M1409.2,328.1l4.7,4.1l8.7-10
			l4.7,4.1l2.4-17.1l-16.6,4.7l4.7,4.1L1409.2,328.1z"/>
	</g>
</g>
<g>
	<g>
		<polygon class="st0" points="1032.1,379.5 1034.8,360.8 1016.6,366 1021.6,370.4 1012.9,380.3 1018.4,385.1 1027.1,375.2 		"/>
	</g>
	<g>
		<polygon class="st1" points="1029.1,372.8 1031.8,354 1013.6,359.2 1018.6,363.6 1009.9,373.6 1015.4,378.4 1024.1,368.4 		"/>
		<path class="st2" d="M1015.4,379.1l-6.2-5.4l8.7-10l-5.3-4.7l19.8-5.6l-2.9,20.4l-5.3-4.7L1015.4,379.1z M1010.6,373.5l4.7,4.1
			l8.7-10l4.7,4.1l2.4-17.1l-16.6,4.7l4.7,4.1L1010.6,373.5z"/>
	</g>
</g>
<g>
	<g>
		<polygon class="st0" points="1104,379.5 1106.7,360.8 1088.5,366 1093.5,370.4 1084.8,380.3 1090.3,385.1 1099,375.2 		"/>
	</g>
	<g>
		<polygon class="st1" points="1101.1,372.8 1103.8,354 1085.6,359.2 1090.6,363.6 1081.9,373.6 1087.3,378.4 1096.1,368.4 		"/>
		<path class="st2" d="M1087.4,379.1l-6.2-5.4l8.7-10l-5.3-4.7l19.8-5.6l-2.9,20.4l-5.3-4.7L1087.4,379.1z M1082.6,373.5l4.7,4.1
			l8.7-10l4.7,4.1l2.4-17.1l-16.6,4.7l4.7,4.1L1082.6,373.5z"/>
	</g>
</g>
<g>
	<g>
		<polygon class="st0" points="1176,379.5 1178.7,360.8 1160.5,366 1165.5,370.4 1156.8,380.3 1162.2,385.1 1171,375.2 		"/>
	</g>
	<g>
		<polygon class="st1" points="1173,372.8 1175.7,354 1157.5,359.2 1162.5,363.6 1153.8,373.6 1159.3,378.4 1168,368.4 		"/>
		<path class="st2" d="M1159.3,379.1l-6.2-5.4l8.7-10l-5.3-4.7l19.8-5.6l-2.9,20.4l-5.3-4.7L1159.3,379.1z M1154.5,373.5l4.7,4.1
			l8.7-10l4.7,4.1l2.4-17.1l-16.6,4.7l4.7,4.1L1154.5,373.5z"/>
	</g>
</g>
<g>
	<g>
		<polygon class="st0" points="1247.9,379.5 1250.6,360.8 1232.4,366 1237.4,370.4 1228.7,380.3 1234.2,385.1 1242.9,375.2 		"/>
	</g>
	<g>
		<polygon class="st1" points="1245,372.8 1247.7,354 1229.5,359.2 1234.5,363.6 1225.8,373.6 1231.2,378.4 1240,368.4 		"/>
		<path class="st2" d="M1231.3,379.1l-6.2-5.4l8.7-10l-5.3-4.7l19.8-5.6l-2.9,20.4l-5.3-4.7L1231.3,379.1z M1226.5,373.5l4.7,4.1
			l8.7-10l4.7,4.1l2.4-17.1l-16.6,4.7l4.7,4.1L1226.5,373.5z"/>
	</g>
</g>
<g>
	<g>
		<polygon class="st0" points="1319.9,379.5 1322.6,360.8 1304.4,366 1309.4,370.4 1300.7,380.3 1306.1,385.1 1314.9,375.2 		"/>
	</g>
	<g>
		<polygon class="st1" points="1316.9,372.8 1319.6,354 1301.4,359.2 1306.4,363.6 1297.7,373.6 1303.2,378.4 1311.9,368.4 		"/>
		<path class="st2" d="M1303.2,379.1l-6.2-5.4l8.7-10l-5.3-4.7l19.8-5.6l-2.9,20.4l-5.3-4.7L1303.2,379.1z M1298.4,373.5l4.7,4.1
			l8.7-10l4.7,4.1l2.4-17.1l-16.6,4.7l4.7,4.1L1298.4,373.5z"/>
	</g>
</g>
<g>
	<g>
		<polygon class="st0" points="1391.8,379.5 1394.5,360.8 1376.3,366 1381.3,370.4 1372.6,380.3 1378.1,385.1 1386.8,375.2 		"/>
	</g>
	<g>
		<polygon class="st1" points="1388.9,372.8 1391.5,354 1373.3,359.2 1378.4,363.6 1369.6,373.6 1375.1,378.4 1383.8,368.4 		"/>
		<path class="st2" d="M1375.2,379.1l-6.2-5.4l8.7-10l-5.3-4.7l19.8-5.6l-2.9,20.4l-5.3-4.7L1375.2,379.1z M1370.4,373.5l4.7,4.1
			l8.7-10l4.7,4.1l2.4-17.1l-16.6,4.7l4.7,4.1L1370.4,373.5z"/>
	</g>
</g>
<g>
	<g>
		<polygon class="st0" points="1463.8,379.5 1466.4,360.8 1448.2,366 1453.3,370.4 1444.5,380.3 1450,385.1 1458.7,375.2 		"/>
	</g>
	<g>
		<polygon class="st1" points="1460.8,372.8 1463.5,354 1445.3,359.2 1450.3,363.6 1441.6,373.6 1447.1,378.4 1455.8,368.4 		"/>
		<path class="st2" d="M1447.1,379.1l-6.2-5.4l8.7-10l-5.3-4.7l19.8-5.6l-2.9,20.4l-5.3-4.7L1447.1,379.1z M1442.3,373.5l4.7,4.1
			l8.7-10l4.7,4.1l2.4-17.1l-16.6,4.7l4.7,4.1L1442.3,373.5z"/>
	</g>
</g>
<g>
	<g>
		<polygon class="st0" points="998.9,426.1 1001.6,407.4 983.4,412.5 988.4,416.9 979.7,426.9 985.2,431.7 993.9,421.7 		"/>
	</g>
	<g>
		<polygon class="st1" points="996,419.3 998.7,400.6 980.5,405.8 985.5,410.2 976.8,420.1 982.3,424.9 991,414.9 		"/>
		<path class="st2" d="M982.3,425.6l-6.2-5.4l8.7-10l-5.3-4.7l19.8-5.6l-2.9,20.4l-5.3-4.7L982.3,425.6z M977.5,420.1l4.7,4.1
			l8.7-10l4.7,4.1l2.4-17l-16.6,4.7l4.7,4.1L977.5,420.1z"/>
	</g>
</g>
<g>
	<g>
		<polygon class="st0" points="1070.9,426.1 1073.6,407.4 1055.4,412.5 1060.4,416.9 1051.7,426.9 1057.2,431.7 1065.9,421.7 		"/>
	</g>
	<g>
		<polygon class="st1" points="1067.9,419.3 1070.6,400.6 1052.4,405.8 1057.4,410.2 1048.7,420.1 1054.2,424.9 1062.9,414.9 		"/>
		<path class="st2" d="M1054.2,425.6l-6.2-5.4l8.7-10l-5.3-4.7l19.8-5.6l-2.9,20.4l-5.3-4.7L1054.2,425.6z M1049.4,420.1l4.7,4.1
			l8.7-10l4.7,4.1l2.4-17l-16.6,4.7l4.7,4.1L1049.4,420.1z"/>
	</g>
</g>
<g>
	<g>
		<polygon class="st0" points="1142.8,426.1 1145.5,407.4 1127.3,412.5 1132.3,416.9 1123.6,426.9 1129.1,431.7 1137.8,421.7 		"/>
	</g>
	<g>
		<polygon class="st1" points="1139.9,419.3 1142.6,400.6 1124.4,405.8 1129.4,410.2 1120.7,420.1 1126.1,424.9 1134.9,414.9 		"/>
		<path class="st2" d="M1126.2,425.6l-6.2-5.4l8.7-10l-5.3-4.7l19.8-5.6l-2.9,20.4l-5.3-4.7L1126.2,425.6z M1121.4,420.1l4.7,4.1
			l8.7-10l4.7,4.1l2.4-17l-16.6,4.7l4.7,4.1L1121.4,420.1z"/>
	</g>
</g>
<g>
	<g>
		<polygon class="st0" points="1214.8,426.1 1217.5,407.4 1199.3,412.5 1204.3,416.9 1195.6,426.9 1201,431.7 1209.8,421.7 		"/>
	</g>
	<g>
		<polygon class="st1" points="1211.8,419.3 1214.5,400.6 1196.3,405.8 1201.3,410.2 1192.6,420.1 1198.1,424.9 1206.8,414.9 		"/>
		<path class="st2" d="M1198.1,425.6l-6.2-5.4l8.7-10l-5.3-4.7l19.8-5.6l-2.9,20.4l-5.3-4.7L1198.1,425.6z M1193.3,420.1l4.7,4.1
			l8.7-10l4.7,4.1l2.4-17l-16.6,4.7l4.7,4.1L1193.3,420.1z"/>
	</g>
</g>
<g>
	<g>
		<polygon class="st0" points="1286.7,426.1 1289.4,407.4 1271.2,412.5 1276.2,416.9 1267.5,426.9 1273,431.7 1281.7,421.7 		"/>
	</g>
	<g>
		<polygon class="st1" points="1283.8,419.3 1286.5,400.6 1268.3,405.8 1273.3,410.2 1264.6,420.1 1270,424.9 1278.8,414.9 		"/>
		<path class="st2" d="M1270.1,425.6l-6.2-5.4l8.7-10l-5.3-4.7l19.8-5.6l-2.9,20.4l-5.3-4.7L1270.1,425.6z M1265.3,420.1l4.7,4.1
			l8.7-10l4.7,4.1l2.4-17l-16.6,4.7l4.7,4.1L1265.3,420.1z"/>
	</g>
</g>
<g>
	<g>
		<polygon class="st0" points="1358.7,426.1 1361.4,407.4 1343.2,412.5 1348.2,416.9 1339.5,426.9 1344.9,431.7 1353.7,421.7 		"/>
	</g>
	<g>
		<polygon class="st1" points="1355.7,419.3 1358.4,400.6 1340.2,405.8 1345.2,410.2 1336.5,420.1 1342,424.9 1350.7,414.9 		"/>
		<path class="st2" d="M1342,425.6l-6.2-5.4l8.7-10l-5.3-4.7l19.8-5.6l-2.9,20.4l-5.3-4.7L1342,425.6z M1337.2,420.1l4.7,4.1l8.7-10
			l4.7,4.1l2.4-17l-16.6,4.7l4.7,4.1L1337.2,420.1z"/>
	</g>
</g>
<g>
	<g>
		<polygon class="st0" points="1430.6,426.1 1433.3,407.4 1415.1,412.5 1420.1,416.9 1411.4,426.9 1416.9,431.7 1425.6,421.7 		"/>
	</g>
	<g>
		<polygon class="st1" points="1427.7,419.3 1430.3,400.6 1412.1,405.8 1417.2,410.2 1408.4,420.1 1413.9,424.9 1422.6,414.9 		"/>
		<path class="st2" d="M1414,425.6l-6.2-5.4l8.7-10l-5.3-4.7l19.8-5.6l-2.9,20.4l-5.3-4.7L1414,425.6z M1409.2,420.1l4.7,4.1l8.7-10
			l4.7,4.1l2.4-17l-16.6,4.7l4.7,4.1L1409.2,420.1z"/>
	</g>
</g>
<g>
	<g>
		<polygon class="st0" points="1032.1,471.5 1034.8,452.8 1016.6,458 1021.6,462.3 1012.9,472.3 1018.4,477.1 1027.1,467.1 		"/>
	</g>
	<g>
		<polygon class="st1" points="1029.1,464.7 1031.8,446 1013.6,451.2 1018.6,455.6 1009.9,465.6 1015.4,470.3 1024.1,460.4 		"/>
		<path class="st2" d="M1015.4,471l-6.2-5.4l8.7-10l-5.3-4.7l19.8-5.6l-2.9,20.4l-5.3-4.7L1015.4,471z M1010.6,465.5l4.7,4.1l8.7-10
			l4.7,4.1l2.4-17.1l-16.6,4.7l4.7,4.1L1010.6,465.5z"/>
	</g>
</g>
<g>
	<g>
		<polygon class="st0" points="1104,471.5 1106.7,452.8 1088.5,458 1093.5,462.3 1084.8,472.3 1090.3,477.1 1099,467.1 		"/>
	</g>
	<g>
		<polygon class="st1" points="1101.1,464.7 1103.8,446 1085.6,451.2 1090.6,455.6 1081.9,465.6 1087.3,470.3 1096.1,460.4 		"/>
		<path class="st2" d="M1087.4,471l-6.2-5.4l8.7-10l-5.3-4.7l19.8-5.6l-2.9,20.4l-5.3-4.7L1087.4,471z M1082.6,465.5l4.7,4.1l8.7-10
			l4.7,4.1l2.4-17.1l-16.6,4.7l4.7,4.1L1082.6,465.5z"/>
	</g>
</g>
<g>
	<g>
		<polygon class="st0" points="1176,471.5 1178.7,452.8 1160.5,458 1165.5,462.3 1156.8,472.3 1162.2,477.1 1171,467.1 		"/>
	</g>
	<g>
		<polygon class="st1" points="1173,464.7 1175.7,446 1157.5,451.2 1162.5,455.6 1153.8,465.6 1159.3,470.3 1168,460.4 		"/>
		<path class="st2" d="M1159.3,471l-6.2-5.4l8.7-10l-5.3-4.7l19.8-5.6l-2.9,20.4l-5.3-4.7L1159.3,471z M1154.5,465.5l4.7,4.1l8.7-10
			l4.7,4.1l2.4-17.1l-16.6,4.7l4.7,4.1L1154.5,465.5z"/>
	</g>
</g>
<g>
	<g>
		<polygon class="st0" points="1247.9,471.5 1250.6,452.8 1232.4,458 1237.4,462.3 1228.7,472.3 1234.2,477.1 1242.9,467.1 		"/>
	</g>
	<g>
		<polygon class="st1" points="1245,464.7 1247.7,446 1229.5,451.2 1234.5,455.6 1225.8,465.6 1231.2,470.3 1240,460.4 		"/>
		<path class="st2" d="M1231.3,471l-6.2-5.4l8.7-10l-5.3-4.7l19.8-5.6l-2.9,20.4l-5.3-4.7L1231.3,471z M1226.5,465.5l4.7,4.1l8.7-10
			l4.7,4.1l2.4-17.1l-16.6,4.7l4.7,4.1L1226.5,465.5z"/>
	</g>
</g>
<g>
	<g>
		<polygon class="st0" points="1319.9,471.5 1322.6,452.8 1304.4,458 1309.4,462.3 1300.7,472.3 1306.1,477.1 1314.9,467.1 		"/>
	</g>
	<g>
		<polygon class="st1" points="1316.9,464.7 1319.6,446 1301.4,451.2 1306.4,455.6 1297.7,465.6 1303.2,470.3 1311.9,460.4 		"/>
		<path class="st2" d="M1303.2,471l-6.2-5.4l8.7-10l-5.3-4.7l19.8-5.6l-2.9,20.4l-5.3-4.7L1303.2,471z M1298.4,465.5l4.7,4.1l8.7-10
			l4.7,4.1l2.4-17.1l-16.6,4.7l4.7,4.1L1298.4,465.5z"/>
	</g>
</g>
<g>
	<g>
		<polygon class="st0" points="1391.8,471.5 1394.5,452.8 1376.3,458 1381.3,462.3 1372.6,472.3 1378.1,477.1 1386.8,467.1 		"/>
	</g>
	<g>
		<polygon class="st1" points="1388.9,464.7 1391.5,446 1373.3,451.2 1378.4,455.6 1369.6,465.6 1375.1,470.3 1383.8,460.4 		"/>
		<path class="st2" d="M1375.2,471l-6.2-5.4l8.7-10l-5.3-4.7l19.8-5.6l-2.9,20.4l-5.3-4.7L1375.2,471z M1370.4,465.5l4.7,4.1l8.7-10
			l4.7,4.1l2.4-17.1l-16.6,4.7l4.7,4.1L1370.4,465.5z"/>
	</g>
</g>
<g>
	<g>
		<polygon class="st0" points="1463.8,471.5 1466.4,452.8 1448.2,458 1453.3,462.3 1444.5,472.3 1450,477.1 1458.7,467.1 		"/>
	</g>
	<g>
		<polygon class="st1" points="1460.8,464.7 1463.5,446 1445.3,451.2 1450.3,455.6 1441.6,465.6 1447.1,470.3 1455.8,460.4 		"/>
		<path class="st2" d="M1447.1,471l-6.2-5.4l8.7-10l-5.3-4.7l19.8-5.6l-2.9,20.4l-5.3-4.7L1447.1,471z M1442.3,465.5l4.7,4.1l8.7-10
			l4.7,4.1l2.4-17.1l-16.6,4.7l4.7,4.1L1442.3,465.5z"/>
	</g>
</g>
</svg>
