<?xml version="1.0" encoding="utf-8"?>
<!-- Generator: Adobe Illustrator 25.0.0, SVG Export Plug-In . SVG Version: 6.00 Build 0)  -->
<svg version="1.1" id="Layer_1" xmlns="http://www.w3.org/2000/svg" xmlns:xlink="http://www.w3.org/1999/xlink" x="0px" y="0px"
	 viewBox="0 0 1256.7 254.4" style="enable-background:new 0 0 1256.7 254.4;" xml:space="preserve">
<style type="text/css">
	.st0{fill:#FBEF9C;}
	.st1{fill:#FFFFFF;}
</style>
<g>
	<g>
		<polygon class="st0" points="843.7,63.1 827.5,176.3 937.5,145.1 907.2,118.6 959.9,58.2 926.8,29.3 874.1,89.6 		"/>
	</g>
	<g>
		<polygon class="st1" points="861.6,104.1 845.4,217.3 955.4,186 925.1,159.5 977.8,99.2 944.6,70.3 891.9,130.6 		"/>
		<path d="M944.3,66L982,98.9l-52.7,60.3l32.3,28.2l-119.8,34l17.6-123.3l32.2,28.2L944.3,66z M973.5,99.5l-28.6-25l-52.7,60.3
			L863.8,110L849,213.1l100.2-28.5l-28.4-24.8L973.5,99.5z"/>
	</g>
</g>
</svg>
