<?xml version="1.0" encoding="utf-8"?>
<!-- Generator: Adobe Illustrator 25.0.0, SVG Export Plug-In . SVG Version: 6.00 Build 0)  -->
<svg version="1.1" id="Layer_1" xmlns="http://www.w3.org/2000/svg" xmlns:xlink="http://www.w3.org/1999/xlink" x="0px" y="0px"
	 viewBox="0 0 280 80" style="enable-background:new 0 0 280 80;" xml:space="preserve">
<style type="text/css">
	.st0{fill:#FCF09D;}
	.st1{fill:#FFFFFF;}
</style>
<g>
	<g>
		<g>
			<g>
				<path class="st0" d="M123.6,8.9V39h-2.5l-16.1-15.6v15h-7.7V8.3h2.5l16.1,15.4V8.9H123.6z"/>
			</g>
			<g>
				<path class="st0" d="M160,23.7c0,8.8-7.2,15.4-16,15.4S128,32.4,128,23.7c0-8.7,7.1-15.4,15.9-15.4S160,15,160,23.7z
					 M135.9,23.7c0,5,3.3,8.3,8.1,8.3c4.6,0,8.1-3.2,8.1-8.3c0-4.9-3.5-8.3-8.1-8.3C139.2,15.4,135.9,18.7,135.9,23.7z"/>
			</g>
			<g>
				<path class="st0" d="M186.3,15.8h-8.9v22.7h-7.7V15.8h-8.9v-7h25.5V15.8z"/>
			</g>
			<g>
				<path class="st0" d="M197.5,38.5h-7.7V8.9h7.7V38.5z"/>
			</g>
			<g>
				<path class="st0" d="M233.9,23.7c0,8.8-7.2,15.4-16,15.4c-8.8,0-15.9-6.6-15.9-15.4c0-8.7,7.1-15.4,15.9-15.4
					C226.7,8.3,233.9,15,233.9,23.7z M209.8,23.7c0,5,3.3,8.3,8.1,8.3c4.6,0,8.1-3.2,8.1-8.3c0-4.9-3.5-8.3-8.1-8.3
					C213.1,15.4,209.8,18.7,209.8,23.7z"/>
			</g>
			<g>
				<path class="st0" d="M264.5,8.9V39H262L246,23.5v15h-7.7V8.3h2.5l16.1,15.4V8.9H264.5z"/>
			</g>
			<g>
				<path class="st0" d="M117.5,52.8h-12.4v5.7h10.1v7h-10.1v10.1h-7.7V45.9h20.1V52.8z"/>
			</g>
			<g>
				<path class="st0" d="M129.4,68.6h12.3v7h-20V45.9h7.7V68.6z"/>
			</g>
			<g>
				<path class="st0" d="M175.5,60.7c0,8.8-7.2,15.4-16,15.4c-8.8,0-15.9-6.6-15.9-15.4c0-8.7,7.1-15.4,15.9-15.4
					C168.3,45.3,175.5,52,175.5,60.7z M151.4,60.7c0,5,3.3,8.3,8.1,8.3c4.6,0,8.1-3.2,8.1-8.3c0-4.9-3.5-8.3-8.1-8.3
					C154.7,52.4,151.4,55.8,151.4,60.7z"/>
			</g>
			<g>
				<path class="st0" d="M221.1,45.9l-12.2,30.2h-2.5l-7.5-15.5l-7.6,15.5h-2.5l-12.2-30.2h8.6l5.6,14.2l6.8-14.8h2.5l6.8,14.8
					l5.6-14.2H221.1z"/>
			</g>
			<g>
				<path class="st0" d="M243.5,51.3l-5.2,4c-1.3-2-2.6-3.1-4.9-3.1c-1.5,0-2.6,0.5-2.6,1.9c0,1.1,0.7,1.7,2.6,2.4l3.4,1.4
					c4.9,2.1,7.6,4.6,7.6,8.9c0,5.8-4.8,9.2-10.9,9.2c-5.4,0-9.7-2.6-11.8-6.6l5.2-4c1.4,1.9,3.3,3.8,6.6,3.8c2.1,0,3.1-0.7,3.1-2.2
					c0-1.4-0.9-1.8-3-2.7l-3.1-1.3c-4.7-2.1-7.5-4.8-7.5-8.9c0-5.3,4.4-8.8,10.4-8.8C238.6,45.3,241.8,47.9,243.5,51.3z"/>
			</g>
		</g>
	</g>
	<g>
		<g>
			<path class="st0" d="M73.4,68.3l-13-13c3.4-3.4,5.3-8,5.3-12.9s-1.9-9.4-5.3-12.9c-7.1-7.1-18.6-7.1-25.7,0l-13-13
				C36,2.4,59.1,2.4,73.4,16.7c6.9,6.9,10.7,16.1,10.7,25.8S80.3,61.4,73.4,68.3z"/>
		</g>
	</g>
	<g>
		<g>
			<path class="st0" d="M47.6,79c-9.4,0-18.7-3.6-25.8-10.7c-14.2-14.2-14.2-37.4,0-51.7l13,13c-7.1,7.1-7.1,18.6,0,25.7
				c7.1,7.1,18.6,7.1,25.7,0l13,13C66.3,75.4,56.9,79,47.6,79z"/>
		</g>
	</g>
</g>
<g>
	<g>
		<path class="st1" d="M127,6v30.2h-2.5l-16.1-15.6v15h-7.7V5.5h2.5l16.1,15.4V6H127z"/>
		<path d="M127.5,36.7h-3.2L109,21.8v14.4h-8.7V5h3.2l15.4,14.7V5.5h8.7V36.7z M124.8,35.7h1.8V6.5h-6.7V22L103,6h-1.8v29.2h6.7
			V19.4L124.8,35.7z"/>
	</g>
	<g>
		<path class="st1" d="M163.4,20.8c0,8.8-7.2,15.4-16,15.4c-8.8,0-15.9-6.6-15.9-15.4c0-8.7,7.1-15.4,15.9-15.4
			C156.2,5.5,163.4,12.1,163.4,20.8z M139.3,20.8c0,5,3.3,8.3,8.1,8.3c4.6,0,8.1-3.2,8.1-8.3c0-4.9-3.5-8.3-8.1-8.3
			C142.7,12.6,139.3,15.9,139.3,20.8z"/>
		<path d="M147.4,36.7c-9.2,0-16.4-7-16.4-15.9S138.1,5,147.4,5c9.3,0,16.5,7,16.5,15.9S156.6,36.7,147.4,36.7z M147.4,6
			c-8.7,0-15.4,6.5-15.4,14.9s6.8,14.9,15.4,14.9c8.7,0,15.5-6.5,15.5-14.9S156.1,6,147.4,6z M147.4,29.6c-5.1,0-8.6-3.5-8.6-8.8
			c0-5.2,3.5-8.8,8.6-8.8c5,0,8.6,3.7,8.6,8.8C156,26,152.5,29.6,147.4,29.6z M147.4,13.1c-4.5,0-7.6,3.1-7.6,7.8s3,7.8,7.6,7.8
			c4.5,0,7.6-3.2,7.6-7.8C155,16.3,151.9,13.1,147.4,13.1z"/>
	</g>
	<g>
		<path class="st1" d="M189.8,13h-8.9v22.7h-7.7V13h-8.9V6h25.5V13z"/>
		<path d="M181.4,36.1h-8.7V13.5h-8.9v-8h26.5v8h-8.9V36.1z M173.6,35.1h6.7V12.5h8.9v-6h-24.5v6h8.9V35.1z"/>
	</g>
	<g>
		<path class="st1" d="M200.9,35.6h-7.7V6h7.7V35.6z"/>
		<path d="M201.4,36.1h-8.7V5.5h8.7V36.1z M193.7,35.1h6.7V6.5h-6.7V35.1z"/>
	</g>
	<g>
		<path class="st1" d="M237.3,20.8c0,8.8-7.2,15.4-16,15.4c-8.8,0-15.9-6.6-15.9-15.4c0-8.7,7.1-15.4,15.9-15.4
			C230.1,5.5,237.3,12.1,237.3,20.8z M213.2,20.8c0,5,3.3,8.3,8.1,8.3c4.6,0,8.1-3.2,8.1-8.3c0-4.9-3.5-8.3-8.1-8.3
			C216.5,12.6,213.2,15.9,213.2,20.8z"/>
		<path d="M221.2,36.7c-9.2,0-16.4-7-16.4-15.9S212,5,221.2,5c9.3,0,16.5,7,16.5,15.9S230.5,36.7,221.2,36.7z M221.2,6
			c-8.7,0-15.4,6.5-15.4,14.9s6.8,14.9,15.4,14.9c8.7,0,15.5-6.5,15.5-14.9S229.9,6,221.2,6z M221.3,29.6c-5.1,0-8.6-3.5-8.6-8.8
			c0-5.2,3.5-8.8,8.6-8.8c5,0,8.6,3.7,8.6,8.8C229.8,26,226.3,29.6,221.3,29.6z M221.3,13.1c-4.5,0-7.6,3.1-7.6,7.8s3,7.8,7.6,7.8
			c4.5,0,7.6-3.2,7.6-7.8C228.8,16.3,225.7,13.1,221.3,13.1z"/>
	</g>
	<g>
		<path class="st1" d="M267.9,6v30.2h-2.5l-16.1-15.6v15h-7.7V5.5h2.5l16.1,15.4V6H267.9z"/>
		<path d="M268.4,36.7h-3.2l-15.4-14.9v14.4h-8.7V5h3.2l15.4,14.7V5.5h8.7V36.7z M265.7,35.7h1.8V6.5h-6.7V22L243.9,6h-1.8v29.2h6.7
			V19.4L265.7,35.7z"/>
	</g>
	<g>
		<path class="st1" d="M120.9,50h-12.4v5.7h10.1v7h-10.1v10.1h-7.7V43h20.1V50z"/>
		<path d="M109,73.2h-8.7V42.5h21.1v8H109v4.7H119v8H109V73.2z M101.3,72.2h6.7V62.1H118v-6H108v-6.7h12.4v-6h-19.1V72.2z"/>
	</g>
	<g>
		<path class="st1" d="M132.8,65.7h12.3v7h-20V43h7.7V65.7z"/>
		<path d="M145.6,73.2h-21V42.5h8.7v22.7h12.3V73.2z M125.6,72.2h19v-6h-12.3V43.5h-6.7V72.2z"/>
	</g>
	<g>
		<path class="st1" d="M178.9,57.9c0,8.8-7.2,15.4-16,15.4c-8.8,0-15.9-6.6-15.9-15.4c0-8.7,7.1-15.4,15.9-15.4
			C171.7,42.5,178.9,49.1,178.9,57.9z M154.8,57.9c0,5,3.3,8.3,8.1,8.3c4.6,0,8.1-3.2,8.1-8.3c0-4.9-3.5-8.3-8.1-8.3
			C158.1,49.6,154.8,52.9,154.8,57.9z"/>
		<path d="M162.9,73.7c-9.2,0-16.4-7-16.4-15.9S153.6,42,162.9,42c9.3,0,16.5,7,16.5,15.9S172.1,73.7,162.9,73.7z M162.9,43
			c-8.7,0-15.4,6.5-15.4,14.9s6.8,14.9,15.4,14.9c8.7,0,15.5-6.5,15.5-14.9S171.6,43,162.9,43z M162.9,66.6c-5.1,0-8.6-3.5-8.6-8.8
			c0-5.2,3.5-8.8,8.6-8.8c5,0,8.6,3.7,8.6,8.8C171.5,63,168,66.6,162.9,66.6z M162.9,50.1c-4.5,0-7.6,3.1-7.6,7.8s3,7.8,7.6,7.8
			c4.5,0,7.6-3.2,7.6-7.8S167.4,50.1,162.9,50.1z"/>
	</g>
	<g>
		<path class="st1" d="M224.5,43l-12.2,30.2h-2.5l-7.5-15.5l-7.6,15.5h-2.5L180,43h8.6l5.6,14.2l6.8-14.8h2.5l6.8,14.8l5.6-14.2
			H224.5z"/>
		<path d="M212.6,73.7h-3.1l-7.2-14.9L195,73.7h-3.1l-12.6-31.2h9.7l5.3,13.5l6.5-14h3.1l6.5,14l5.3-13.5h9.7L212.6,73.7z
			 M210.1,72.7h1.8l11.8-29.2h-7.5l-5.9,15L203.1,43h-1.8l-7.2,15.5l-5.9-15h-7.5l11.8,29.2h1.8l7.9-16.1L210.1,72.7z"/>
	</g>
	<g>
		<path class="st1" d="M247,48.5l-5.2,4c-1.3-2-2.6-3.1-4.9-3.1c-1.5,0-2.6,0.5-2.6,1.9c0,1.1,0.7,1.7,2.6,2.4l3.4,1.4
			c4.9,2.1,7.6,4.6,7.6,8.9c0,5.8-4.8,9.2-10.9,9.2c-5.4,0-9.7-2.6-11.8-6.6l5.2-4c1.4,1.9,3.3,3.8,6.6,3.8c2.1,0,3.1-0.7,3.1-2.2
			c0-1.4-0.9-1.8-3-2.7l-3.1-1.3c-4.7-2.1-7.5-4.8-7.5-8.9c0-5.3,4.4-8.8,10.4-8.8C242,42.5,245.2,45.1,247,48.5z"/>
		<path d="M236.9,73.7c-5.4,0-10-2.6-12.3-6.9l-0.2-0.4l5.9-4.5l0.3,0.4c1.4,1.9,3.1,3.6,6.2,3.6c2.3,0,2.6-0.9,2.6-1.7
			c0-1-0.5-1.3-2.7-2.3l-3.1-1.3c-5.3-2.3-7.8-5.3-7.8-9.4c0-5.5,4.5-9.3,10.9-9.3c4.8,0,8.6,2.2,10.6,6.2l0.2,0.4l-5.9,4.5
			l-0.3-0.4c-1.2-1.8-2.4-2.9-4.5-2.9c-1.4,0-2.1,0.5-2.1,1.4c0,0.7,0.3,1.2,2.3,2l3.4,1.4c5.5,2.3,7.9,5.1,7.9,9.4
			C248.3,69.8,243.7,73.7,236.9,73.7z M225.8,66.7c2.2,3.8,6.3,6,11.2,6c6.2,0,10.4-3.5,10.4-8.8c0-3.9-2.1-6.3-7.3-8.5l-3.4-1.4
			c-1.9-0.8-2.9-1.4-2.9-2.9c0-1.5,1.1-2.4,3.1-2.4c2.3,0,3.7,1.2,5,2.9l4.4-3.4c-1.4-2.5-4.1-5.3-9.5-5.3c-5.9,0-9.9,3.3-9.9,8.3
			c0,3.7,2.2,6.3,7.2,8.5l3.1,1.3c2,0.9,3.3,1.4,3.3,3.2c0,1.2-0.6,2.7-3.6,2.7c-3.3,0-5.2-1.8-6.7-3.6L225.8,66.7z"/>
	</g>
</g>
<g>
	<g>
		<path class="st1" d="M76.8,65.5l-13-13c3.4-3.4,5.3-8,5.3-12.9s-1.9-9.4-5.3-12.9c-7.1-7.1-18.6-7.1-25.7,0l-13-13
			c14.2-14.2,37.4-14.2,51.7,0c6.9,6.9,10.7,16.1,10.7,25.8S83.7,58.6,76.8,65.5z"/>
		<path d="M76.8,66.2L63.1,52.5l0.4-0.4c3.3-3.3,5.2-7.8,5.2-12.5c0-4.7-1.8-9.2-5.2-12.5c-6.9-6.9-18.1-6.9-25,0l-0.4,0.4
			L24.4,13.8l0.4-0.4c7-7,16.3-10.8,26.2-10.8c0,0,0,0,0,0c9.9,0,19.2,3.8,26.2,10.8c7,7,10.8,16.3,10.8,26.2
			c0,9.9-3.9,19.2-10.8,26.2L76.8,66.2z M64.5,52.5l12.3,12.3C83.4,58,87,49.1,87,39.7C87,30,83.2,21,76.4,14.2
			C69.6,7.4,60.6,3.6,51,3.6c-9.5,0-18.4,3.6-25.1,10.2l12.3,12.3c7.3-6.9,18.9-6.8,26.1,0.3c3.5,3.5,5.5,8.2,5.5,13.2
			C69.6,44.5,67.8,49,64.5,52.5z"/>
	</g>
</g>
<g>
	<g>
		<g>
			<path class="st0" d="M51,76.2c-9.4,0-18.7-3.6-25.8-10.7c-14.2-14.2-14.2-37.4,0-51.7l13,13c-7.1,7.1-7.1,18.6,0,25.7
				c7.1,7.1,18.6,7.1,25.7,0l13,13C69.7,72.6,60.3,76.2,51,76.2z"/>
		</g>
		<g>
			<path d="M51,76.7L51,76.7c-9.9,0-19.2-3.8-26.2-10.8c-14.4-14.4-14.4-37.9,0-52.4l0.4-0.4l13.7,13.7l-0.4,0.4
				c-6.9,6.9-6.9,18.1,0,25c3.3,3.3,7.8,5.2,12.5,5.2s9.2-1.8,12.5-5.2l0.4-0.4l13.7,13.7l-0.4,0.4C70.2,72.8,60.9,76.7,51,76.7z
				 M25.1,14.5c-13.7,14.1-13.6,36.7,0.4,50.6c6.8,6.8,15.8,10.5,25.5,10.5c9.5,0,18.4-3.6,25.1-10.2L63.8,53.2
				c-3.5,3.3-8,5.1-12.8,5.1c-5,0-9.7-1.9-13.2-5.5c-7.2-7.2-7.3-18.7-0.3-26.1L25.1,14.5z"/>
		</g>
	</g>
</g>
</svg>
